<svg width="21" height="27" viewBox="0 0 21 27" fill="none" xmlns="http://www.w3.org/2000/svg">
<path fill-rule="evenodd" clip-rule="evenodd" d="M0.458618 10.7587C0.458618 5.2121 4.93314 0.698669 10.432 0.698669C15.9308 0.698669 20.4053 5.2121 20.4053 10.7587C20.4053 14.8643 15.2569 21.8792 12.184 25.6857C11.7527 26.2295 11.1058 26.5286 10.432 26.5286C9.75808 26.5286 9.11116 26.2295 8.67988 25.6857C5.60701 21.8792 0.458618 14.8643 0.458618 10.7587ZM5.63342 10.7307C5.63342 8.06639 7.78964 5.89142 10.431 5.89142C13.0724 5.89142 15.2286 8.06639 15.2286 10.7307C15.2286 13.3951 13.0724 15.57 10.431 15.57C7.78964 15.57 5.63342 13.3951 5.63342 10.7307Z" fill="#C59D5F"/>
</svg>
