<svg width="42" height="42" viewBox="0 0 42 42" fill="none" xmlns="http://www.w3.org/2000/svg">
<path d="M20.7641 14.3784C17.3002 14.3784 14.4302 17.199 14.4302 20.7124C14.4302 24.2257 17.2508 27.0463 20.7641 27.0463C24.2775 27.0463 27.0981 24.1762 27.0981 20.7124C27.0981 17.2485 24.228 14.3784 20.7641 14.3784ZM20.7641 24.77C18.5373 24.77 16.7064 22.9391 16.7064 20.7124C16.7064 18.4856 18.5373 16.6547 20.7641 16.6547C22.9909 16.6547 24.8218 18.4856 24.8218 20.7124C24.8218 22.9391 22.9909 24.77 20.7641 24.77Z" fill="#C59D5F"/>
<path d="M27.3445 15.666C28.137 15.666 28.7795 15.0235 28.7795 14.2309C28.7795 13.4384 28.137 12.7959 27.3445 12.7959C26.5519 12.7959 25.9094 13.4384 25.9094 14.2309C25.9094 15.0235 26.5519 15.666 27.3445 15.666Z" fill="#C59D5F"/>
<path d="M31.0556 10.5196C29.7691 9.1835 27.9382 8.49072 25.8598 8.49072H15.6661C11.361 8.49072 8.49097 11.3608 8.49097 15.6659V25.8101C8.49097 27.9379 9.18374 29.7688 10.5693 31.1049C11.9054 32.3915 13.6868 33.0348 15.7156 33.0348H25.8103C27.9382 33.0348 29.7196 32.342 31.0062 31.1049C32.3422 29.8183 33.035 27.9874 33.035 25.8596V15.6659C33.035 13.5876 32.3422 11.8061 31.0556 10.5196ZM30.8577 25.8596C30.8577 27.3936 30.3134 28.6307 29.4227 29.4719C28.532 30.3131 27.2949 30.7585 25.8103 30.7585H15.7156C14.2311 30.7585 12.994 30.3131 12.1033 29.4719C11.2126 28.5812 10.7672 27.3441 10.7672 25.8101V15.6659C10.7672 14.1814 11.2126 12.9443 12.1033 12.0536C12.9445 11.2123 14.2311 10.767 15.7156 10.767H25.9093C27.3938 10.767 28.6309 11.2123 29.5216 12.1031C30.3629 12.9938 30.8577 14.2309 30.8577 15.6659V25.8596Z" fill="#C59D5F"/>
<circle cx="20.7554" cy="20.7554" r="20.2554" stroke="#C59D5F"/>
</svg>
