<svg width="21" height="27" viewBox="0 0 21 27" fill="none" xmlns="http://www.w3.org/2000/svg">
<path fill-rule="evenodd" clip-rule="evenodd" d="M0.874634 10.7587C0.874634 5.2121 5.34916 0.698669 10.848 0.698669C16.3468 0.698669 20.8213 5.2121 20.8213 10.7587C20.8213 14.8643 15.6729 21.8792 12.6 25.6857C12.1688 26.2295 11.5218 26.5286 10.848 26.5286C10.1741 26.5286 9.52717 26.2295 9.09589 25.6857C6.02303 21.8792 0.874634 14.8643 0.874634 10.7587ZM6.04944 10.7307C6.04944 8.06639 8.20566 5.89142 10.847 5.89142C13.4884 5.89142 15.6446 8.06639 15.6446 10.7307C15.6446 13.3951 13.4884 15.57 10.847 15.57C8.20566 15.57 6.04944 13.3951 6.04944 10.7307Z" fill="#3E92CC"/>
</svg>
