<svg width="22" height="22" viewBox="0 0 22 22" fill="none" xmlns="http://www.w3.org/2000/svg">
<path d="M8.32864 8.49026L8.32979 8.49009C8.50276 8.46459 8.66699 8.39758 8.80843 8.2948L8.46709 7.82506L8.80843 8.2948C8.94987 8.19201 9.06433 8.05651 9.14201 7.89988L9.14239 7.8991L10.6725 4.8027C10.6726 4.80248 10.6727 4.80226 10.6728 4.80203C10.7032 4.74143 10.7498 4.69045 10.8074 4.65478C10.8653 4.61897 10.932 4.6 11 4.6C11.068 4.6 11.1347 4.61897 11.1926 4.65477C11.2502 4.69042 11.2967 4.74133 11.3271 4.80186C11.3272 4.80214 11.3274 4.80242 11.3275 4.8027L12.855 7.89877L12.8558 7.90035C12.934 8.05767 13.0493 8.1936 13.1917 8.29643C13.3338 8.39898 13.4986 8.46553 13.6721 8.49037C13.6725 8.49043 13.673 8.4905 13.6734 8.49056L17.0883 8.98735C17.0886 8.9874 17.0889 8.98744 17.0892 8.98749C17.1561 8.99769 17.2189 9.02626 17.2706 9.07003C17.3225 9.11401 17.3611 9.17158 17.3821 9.23629C17.4031 9.301 17.4057 9.37028 17.3895 9.43636C17.3733 9.50227 17.3392 9.56238 17.2908 9.60998C17.2907 9.61011 17.2906 9.61023 17.2904 9.61035L14.8235 12.0218L14.8227 12.0225C14.6975 12.1454 14.604 12.2968 14.5502 12.4637C14.4966 12.6301 14.4841 12.8071 14.5138 12.9794C14.5139 12.9799 14.514 12.9804 14.5141 12.981L15.0908 16.3835L15.0908 16.3837C15.0997 16.4361 15.0971 16.4898 15.0832 16.5411C15.0692 16.5924 15.0443 16.64 15.0101 16.6806C14.9758 16.7213 14.9332 16.754 14.885 16.7765C14.837 16.799 14.7847 16.8107 14.7316 16.811C14.6722 16.811 14.6137 16.7965 14.5611 16.7689L14.5611 16.7689L11.5039 15.1606L11.5036 15.1604C11.3483 15.0788 11.1754 15.0362 11 15.0362C10.8246 15.0362 10.6517 15.0788 10.4964 15.1604L10.4961 15.1606L7.43985 16.7684C7.43971 16.7684 7.43956 16.7685 7.43942 16.7686C7.37915 16.8001 7.3113 16.8141 7.24349 16.8092C7.17551 16.8042 7.11026 16.7804 7.0551 16.7403C6.99994 16.7003 6.95706 16.6457 6.93129 16.5826C6.90556 16.5196 6.89791 16.4506 6.9092 16.3835C6.90922 16.3834 6.90923 16.3833 6.90925 16.3832L7.48584 12.9816C7.516 12.8123 7.50544 12.6383 7.455 12.4739C7.40411 12.3081 7.31413 12.1569 7.19263 12.0331L7.19273 12.033L7.18338 12.0238L4.70955 9.61035C4.70937 9.61017 4.70919 9.61 4.70901 9.60982C4.66076 9.56224 4.62666 9.50219 4.61052 9.43636C4.59432 9.37028 4.59687 9.301 4.61787 9.23629C4.63887 9.17158 4.67749 9.11401 4.7294 9.07003L4.34284 8.61372L4.7294 9.07003C4.78107 9.02626 4.84386 8.99769 4.91079 8.98749C4.9111 8.98744 4.91142 8.9874 4.91173 8.98735L8.32864 8.49026Z" stroke="#067891" stroke-width="1.2"/>
<circle cx="11" cy="11" r="10.4" stroke="#067891" stroke-width="1.2"/>
</svg>
