<svg width="22" height="17" viewBox="0 0 22 17" fill="none" xmlns="http://www.w3.org/2000/svg">
<path d="M18.1297 7.19971H4.09666C2.53585 7.19971 1.13184 8.34715 1.13184 9.90796V13.9775C1.13184 14.1628 1.42404 14.398 1.60934 14.398H20.617C20.8023 14.398 20.8736 14.1628 20.8736 13.9775V9.90796C20.8736 8.35428 19.6905 7.19971 18.1297 7.19971Z" stroke="black" stroke-width="0.8" stroke-miterlimit="10" stroke-linecap="round" stroke-linejoin="round"/>
<path d="M20.8736 10.9129C20.8736 10.7276 20.7239 10.5708 20.5315 10.5708H1.47393C1.28863 10.5708 1.13184 10.7205 1.13184 10.9129V14.0702C1.13184 14.2555 1.2815 14.4122 1.47393 14.4122H20.5386C20.7239 14.4122 20.8807 14.2626 20.8807 14.0702V10.9129H20.8736Z" stroke="black" stroke-width="0.8" stroke-miterlimit="10" stroke-linecap="round" stroke-linejoin="round"/>
<path d="M19.1919 6.1734V1.09185C19.1919 0.90655 19.1063 0.842407 18.921 0.842407H3.31293C3.12763 0.842407 2.91382 0.90655 2.91382 1.09185V6.1734" stroke="black" stroke-width="0.8" stroke-miterlimit="10" stroke-linecap="round" stroke-linejoin="round"/>
<path d="M1.13184 12.6305V15.9944" stroke="black" stroke-width="0.8" stroke-miterlimit="10" stroke-linecap="round" stroke-linejoin="round"/>
<path d="M20.8734 12.6305V15.9944" stroke="black" stroke-width="0.8" stroke-miterlimit="10" stroke-linecap="round" stroke-linejoin="round"/>
<path d="M15.6852 6.16628C15.6852 5.32529 15.8634 4.44155 15.8634 4.44155C15.8634 4.29188 15.7422 4.15647 15.5925 4.15647C15.5925 4.15647 14.7516 4.32751 13.9248 4.32751C13.0981 4.32751 12.1716 4.14221 12.1716 4.14221C12.0219 4.14221 11.9008 4.26337 11.9008 4.41304C11.9008 4.41304 12.0789 5.26828 12.0789 6.16628" stroke="black" stroke-width="0.8" stroke-miterlimit="10" stroke-linecap="round" stroke-linejoin="round"/>
<path d="M10.1472 6.16628C10.1472 5.32529 10.3254 4.44155 10.3254 4.44155C10.3254 4.29188 10.2042 4.15647 10.0546 4.15647C10.0546 4.15647 9.21359 4.32751 8.38686 4.32751C7.56013 4.32751 6.63362 4.14221 6.63362 4.14221C6.48395 4.14221 6.36279 4.26337 6.36279 4.41304C6.36279 4.41304 6.54097 5.26828 6.54097 6.16628" stroke="black" stroke-width="0.8" stroke-miterlimit="10" stroke-linecap="round" stroke-linejoin="round"/>
</svg>
