<svg width="21" height="27" viewBox="0 0 21 27" fill="none" xmlns="http://www.w3.org/2000/svg">
<path fill-rule="evenodd" clip-rule="evenodd" d="M0.458618 10.8601C0.458618 5.31344 4.93314 0.800003 10.432 0.800003C15.9308 0.800003 20.4053 5.31344 20.4053 10.8601C20.4053 14.9657 15.2569 21.9805 12.184 25.787C11.7527 26.3308 11.1058 26.6299 10.432 26.6299C9.75808 26.6299 9.11116 26.3308 8.67988 25.787C5.60701 21.9805 0.458618 14.9657 0.458618 10.8601ZM5.63337 10.8321C5.63337 8.16771 7.7896 5.99274 10.431 5.99274C13.0723 5.99274 15.2286 8.16771 15.2286 10.8321C15.2286 13.4964 13.0723 15.6714 10.431 15.6714C7.7896 15.6714 5.63337 13.4964 5.63337 10.8321Z" fill="#73683B"/>
</svg>
