<svg width="23" height="16" viewBox="0 0 23 16" fill="none" xmlns="http://www.w3.org/2000/svg">
<path d="M21.1918 5.97519L20.7141 5.52161L19.0396 1.47153C18.8805 1.12365 18.6228 0.830078 18.2986 0.627177C17.9743 0.424275 17.5976 0.32096 17.2152 0.330027H5.24698C4.86389 0.320878 4.48651 0.424097 4.16141 0.62695C3.83631 0.829803 3.57772 1.12341 3.41756 1.47153L1.76615 5.47132L1.07823 6.04258C0.789751 6.25379 0.55416 6.529 0.389954 6.84659C0.225747 7.16418 0.137396 7.51552 0.131836 7.87301V13.7736C0.162438 14.2635 0.384992 14.7216 0.751206 15.0485C1.11742 15.3754 1.59775 15.5446 2.08798 15.5196H3.32302C3.81325 15.5446 4.29358 15.3754 4.6598 15.0485C5.02601 14.7216 5.24856 14.2635 5.27917 13.7736V12.9178H16.8823V13.7736C16.9119 14.2643 17.134 14.7234 17.5003 15.0511C17.8666 15.3788 18.3475 15.5486 18.8384 15.5236H20.0735C20.5637 15.5486 21.044 15.3794 21.4102 15.0525C21.7765 14.7256 21.999 14.2676 22.0296 13.7777V7.72114C22.0238 7.38697 21.946 7.05799 21.8014 6.75667C21.6568 6.45535 21.4489 6.18879 21.1918 5.97519ZM4.1276 1.60127C4.21016 1.41296 4.34674 1.25338 4.52004 1.14274C4.69335 1.03209 4.89559 0.975365 5.10115 0.979729H17.365C17.5704 0.976161 17.7723 1.03321 17.9455 1.14376C18.1186 1.25431 18.2554 1.41344 18.3386 1.60127L19.8361 5.33253H18.7167C18.5501 4.50309 18.067 3.77111 17.37 3.29165C16.673 2.81219 15.8166 2.62291 14.9825 2.76389C14.3065 2.83867 13.6724 3.12867 13.1737 3.59114C12.675 4.05361 12.3381 4.66408 12.2127 5.33253H2.63007L4.1276 1.60127ZM17.9775 5.27822H12.9288C13.1153 4.64761 13.5351 4.11173 14.1026 3.77956C14.6702 3.44739 15.343 3.34386 15.9842 3.49003C16.4537 3.56359 16.8918 3.77163 17.2456 4.08898C17.5994 4.40634 17.8536 4.81941 17.9775 5.27822ZM4.45648 13.7857C4.43887 14.0591 4.31384 14.3145 4.10866 14.4962C3.90349 14.6778 3.63481 14.7709 3.36124 14.7552H2.04272C1.76928 14.7704 1.5009 14.6771 1.29584 14.4956C1.09078 14.314 0.965604 14.059 0.947484 13.7857V12.606C1.28392 12.786 1.66127 12.8757 2.04272 12.8665H4.45648V13.7857ZM21.2069 13.7857C21.1893 14.0591 21.0643 14.3145 20.8591 14.4962C20.6539 14.6778 20.3853 14.7709 20.1117 14.7552H18.7912C18.5179 14.7696 18.25 14.676 18.0451 14.4946C17.8402 14.3133 17.7148 14.0587 17.6959 13.7857V12.8665H20.1097C20.4911 12.8752 20.8683 12.7855 21.2049 12.606V13.7857H21.2069ZM21.2773 11.2211C21.2592 11.4796 21.1401 11.7205 20.9456 11.8918C20.7512 12.0631 20.4971 12.1509 20.2384 12.1363H1.91902C1.66018 12.1515 1.40582 12.0638 1.21126 11.8924C1.0167 11.7211 0.897682 11.4798 0.880099 11.2211V7.85088C0.883986 7.61242 0.943031 7.3781 1.05261 7.16628C1.16218 6.95445 1.31932 6.77087 1.5117 6.62992L1.53081 6.61282L2.18151 6.06671H20.2324L20.691 6.50722C20.691 6.51527 20.7101 6.51929 20.7141 6.52834C20.8867 6.6704 21.0264 6.84835 21.1233 7.04982C21.2202 7.25129 21.2721 7.47145 21.2753 7.69499V11.2201L21.2773 11.2211Z" fill="black"/>
<path d="M6.30796 7.80066H2.79896C2.68155 7.79516 2.56669 7.83606 2.47919 7.91453C2.39169 7.993 2.33857 8.10275 2.3313 8.22006V10.4025C2.33857 10.5198 2.39169 10.6296 2.47919 10.708C2.56669 10.7865 2.68155 10.8274 2.79896 10.8219H6.30796C6.42537 10.8274 6.54023 10.7865 6.62773 10.708C6.71523 10.6296 6.76835 10.5198 6.77562 10.4025V8.22006C6.76835 8.10275 6.71523 7.993 6.62773 7.91453C6.54023 7.83606 6.42537 7.79516 6.30796 7.80066ZM5.95696 10.0465H3.14997V8.58212H5.95696V10.0465Z" fill="black"/>
<path d="M19.3624 7.80059H15.8534C15.7359 7.79482 15.6209 7.83563 15.5334 7.91415C15.4458 7.99267 15.3928 8.10258 15.3857 8.21998V10.4024C15.393 10.5197 15.4461 10.6295 15.5336 10.7079C15.6212 10.7864 15.736 10.8273 15.8534 10.8218H19.3624C19.4798 10.8273 19.5947 10.7864 19.6822 10.7079C19.7697 10.6295 19.8228 10.5197 19.8301 10.4024V8.21998C19.8231 8.10258 19.77 7.99267 19.6824 7.91415C19.5949 7.83563 19.4799 7.79482 19.3624 7.80059ZM19.0114 10.0464H16.2044V8.58205H19.0114V10.0464Z" fill="black"/>
<path d="M13.2326 9.56364H8.92804C8.87304 9.55419 8.81663 9.55687 8.76277 9.57149C8.7089 9.58612 8.6589 9.61235 8.61622 9.64832C8.57355 9.68429 8.53924 9.72913 8.51571 9.77974C8.49218 9.83035 8.47998 9.8855 8.47998 9.94131C8.47998 9.99712 8.49218 10.0522 8.51571 10.1028C8.53924 10.1534 8.57355 10.1983 8.61622 10.2343C8.6589 10.2703 8.7089 10.2965 8.76277 10.3111C8.81663 10.3257 8.87304 10.3284 8.92804 10.3189H13.2326C13.2876 10.3284 13.344 10.3257 13.3978 10.3111C13.4517 10.2965 13.5017 10.2703 13.5444 10.2343C13.5871 10.1983 13.6214 10.1534 13.6449 10.1028C13.6684 10.0522 13.6806 9.99712 13.6806 9.94131C13.6806 9.8855 13.6684 9.83035 13.6449 9.77974C13.6214 9.72913 13.5871 9.68429 13.5444 9.64832C13.5017 9.61235 13.4517 9.58612 13.3978 9.57149C13.344 9.55687 13.2876 9.55419 13.2326 9.56364Z" fill="black"/>
<path d="M13.2326 8.31254H8.92804C8.87304 8.30309 8.81663 8.30576 8.76277 8.32038C8.7089 8.33501 8.6589 8.36122 8.61622 8.39719C8.57355 8.43316 8.53924 8.47802 8.51571 8.52863C8.49218 8.57924 8.47998 8.63437 8.47998 8.69018C8.47998 8.74599 8.49218 8.80114 8.51571 8.85175C8.53924 8.90236 8.57355 8.9472 8.61622 8.98317C8.6589 9.01914 8.7089 9.04536 8.76277 9.05998C8.81663 9.0746 8.87304 9.07729 8.92804 9.06784H13.2326C13.2876 9.07729 13.344 9.0746 13.3978 9.05998C13.4517 9.04536 13.5017 9.01914 13.5444 8.98317C13.5871 8.9472 13.6214 8.90236 13.6449 8.85175C13.6684 8.80114 13.6806 8.74599 13.6806 8.69018C13.6806 8.63437 13.6684 8.57924 13.6449 8.52863C13.6214 8.47802 13.5871 8.43316 13.5444 8.39719C13.5017 8.36122 13.4517 8.33501 13.3978 8.32038C13.344 8.30576 13.2876 8.30309 13.2326 8.31254Z" fill="black"/>
</svg>
