<svg width="18" height="17" viewBox="0 0 18 17" fill="none" xmlns="http://www.w3.org/2000/svg">
<path d="M17.8772 5.64403C17.9081 5.61957 17.9329 5.58867 17.95 5.5536C17.9671 5.51853 17.976 5.48017 17.976 5.44132C17.976 5.40246 17.9671 5.3641 17.95 5.32903C17.9329 5.29396 17.9081 5.26307 17.8772 5.23861C17.8092 5.18429 17.7231 5.15663 17.6354 5.16101H14.2265L16.9754 0.493831C16.9918 0.458551 17.0009 0.420421 17.002 0.381678C17.0031 0.342935 16.9963 0.304362 16.982 0.268222C16.9677 0.232082 16.9462 0.199104 16.9187 0.171224C16.8912 0.143344 16.8582 0.121125 16.8218 0.10587C16.7493 0.0746836 16.6679 0.0691431 16.5916 0.0901966C16.5153 0.11125 16.4489 0.15759 16.4037 0.221288L13.4794 5.14356H8.6643C8.52415 4.12591 7.98399 3.20189 7.15864 2.56796C6.3333 1.93403 5.28788 1.64018 4.24464 1.74889C3.23977 1.7958 2.28323 2.18484 1.54032 2.84876H1.51852C1.51853 2.85148 1.51796 2.85417 1.51684 2.85666C1.51572 2.85915 1.51409 2.86138 1.51203 2.86321C1.50997 2.86504 1.50755 2.86643 1.50491 2.86728C1.50227 2.86813 1.49948 2.86843 1.49672 2.86816C1.13919 3.17978 0.851897 3.56087 0.653132 3.98714C0.454367 4.41342 0.348489 4.87554 0.342243 5.34407C0.335997 5.8126 0.42952 6.27727 0.616853 6.70848C0.804187 7.13968 1.08123 7.52798 1.43032 7.84862C1.44241 7.89545 1.46721 7.9382 1.5021 7.97235C1.53699 8.0065 1.58067 8.03077 1.62851 8.0426C2.39782 8.66072 3.35509 9.01126 4.35 9.03917C5.34492 9.06709 6.32113 8.77079 7.12534 8.19682L10.6432 11.3005V16.15H7.74073C7.66188 16.15 7.58627 16.1807 7.53051 16.2353C7.47476 16.2898 7.44344 16.3638 7.44344 16.441C7.44344 16.5182 7.47476 16.5922 7.53051 16.6468C7.58627 16.7013 7.66188 16.732 7.74073 16.732H14.5575C14.6364 16.732 14.712 16.7013 14.7677 16.6468C14.8235 16.5922 14.8548 16.5182 14.8548 16.441C14.8548 16.3638 14.8235 16.2898 14.7677 16.2353C14.712 16.1807 14.6364 16.15 14.5575 16.15H11.3686V11.3432L17.8772 5.64403ZM4.77182 2.40454C5.55135 2.41984 6.29994 2.70585 6.8839 3.21149C7.46787 3.71713 7.84917 4.40948 7.95973 5.16489H4.77182V2.40454ZM4.11185 2.40454V4.70225L2.28651 3.09997C2.82718 2.72394 3.45468 2.48501 4.11284 2.40454H4.11185ZM1.09934 5.3967C1.1032 4.70345 1.3694 4.03619 1.84652 3.52382L4.00185 5.4161L1.86931 7.30838C1.37587 6.78886 1.10121 6.10604 1.10033 5.3967H1.09934ZM4.52904 8.40341C3.72948 8.40628 2.95044 8.15586 2.30831 7.68956L4.44085 5.81667L6.63978 7.74678C6.02689 8.18241 5.28746 8.41425 4.53003 8.40826L4.52904 8.40341ZM11.104 10.7011H10.995L5.3882 5.77884H16.7118L11.104 10.7011Z" fill="#2C2C2C"/>
</svg>
