<svg width="15" height="20" viewBox="0 0 15 20" fill="none" xmlns="http://www.w3.org/2000/svg">
<g clip-path="url(#clip0)">
<path d="M8.86282 6.13183L8.94775 6.09574L8.86282 6.13183ZM8.86282 6.13183L8.95105 6.15869L8.95107 6.15869C10.2541 6.55587 11.4264 7.38778 12.2505 8.4984C13.1048 9.6468 13.5551 11.0151 13.5551 12.4538V12.4538C13.5528 16.0778 10.6561 19.0278 7.09332 19.0278C3.53051 19.0278 0.633848 16.0778 0.633848 12.4538C0.633848 10.7645 1.26525 9.16002 2.40968 7.93131C3.54956 6.70723 5.08451 5.98381 6.73104 5.88926L6.73127 5.88924L6.76189 5.8876V1.61506C6.76189 1.4284 6.90967 1.27643 7.09562 1.27643C7.28158 1.27643 7.42936 1.4284 7.42936 1.61506V3.81438L7.48793 3.71529L7.48794 3.71528C7.64661 3.44689 7.83126 3.20406 8.03748 2.99652C8.6213 2.40231 9.35266 2.08516 9.95979 1.91581C10.5672 1.74639 11.0543 1.72375 11.1542 1.72133C11.1542 1.72133 11.1542 1.72133 11.1542 1.72133L11.4394 1.7143L11.5024 1.71275L11.5009 1.77571L11.494 2.06603C11.494 2.06604 11.494 2.06605 11.494 2.06605C11.4916 2.16763 11.4688 2.66378 11.3022 3.28201C11.1356 3.89994 10.8242 4.6442 10.2416 5.23725C9.89495 5.59005 9.45797 5.87992 8.94784 6.0957L8.86282 6.13183ZM10.7462 2.44003L10.7462 2.44004L10.7472 2.43985L10.7874 2.43291L10.7812 2.47495L10.7811 2.47538C10.7034 3.0267 10.4665 4.04568 9.76483 4.76219C9.07269 5.46667 8.06773 5.71007 7.52357 5.79385C7.52357 5.79385 7.52356 5.79385 7.52355 5.79385L7.48205 5.80023L7.48852 5.75659L7.48858 5.7562C7.56628 5.20718 7.80322 4.18825 8.50481 3.47411L8.50495 3.47397C9.19474 2.76724 10.2019 2.52383 10.7462 2.44003ZM1.29902 12.4538C1.29902 9.20083 3.90012 6.55472 7.09332 6.55472C10.2888 6.55472 12.8876 9.20083 12.8876 12.4515C12.8876 15.7044 10.2865 18.3506 7.09332 18.3506C3.90009 18.3506 1.29902 15.7068 1.29902 12.4538Z" fill="black" stroke="black" stroke-width="0.12"/>
<path d="M11.4519 12.3282C11.4372 12.3643 11.4293 12.4071 11.4293 12.4534C11.4293 12.4999 11.4373 12.5419 11.4513 12.5791C11.4664 12.6218 11.4926 12.6593 11.5245 12.6918L11.5245 12.6918L11.5255 12.6927C11.5865 12.752 11.6724 12.7892 11.7579 12.7892C11.8466 12.7892 11.9318 12.7553 11.9923 12.6907L11.9923 12.6908L11.9929 12.69C12.0177 12.6627 12.045 12.631 12.0618 12.5919L12.0638 12.5899L12.0683 12.5789C12.0831 12.5427 12.0912 12.4998 12.0912 12.4534C12.0912 12.4095 12.0832 12.3642 12.0683 12.3278L12.0128 12.3505M11.4519 12.3282C11.452 12.3281 11.452 12.3279 11.4521 12.3278L11.5076 12.3505M11.4519 12.3282C11.4519 12.3283 11.4518 12.3285 11.4518 12.3286L11.5076 12.3505M11.4519 12.3282C11.4683 12.2867 11.4987 12.2493 11.5178 12.2257C11.5196 12.2235 11.5213 12.2214 11.5229 12.2195L11.5275 12.2136L11.5279 12.214C11.5877 12.1559 11.6718 12.1223 11.7602 12.1223C11.8486 12.1223 11.9327 12.1559 11.9925 12.214L11.9957 12.217L11.9955 12.2171C12.0199 12.2444 12.0509 12.2835 12.0686 12.3286L12.0128 12.3505M11.5076 12.3505C11.5204 12.318 11.545 12.2875 11.565 12.2628C11.5666 12.2608 11.5681 12.2589 11.5696 12.257C11.6178 12.2103 11.6867 12.1823 11.7602 12.1823C11.8337 12.1823 11.9026 12.2103 11.9508 12.257C11.9737 12.2828 11.999 12.3155 12.0128 12.3505M11.5076 12.3505L12.0128 12.5562C12.0243 12.5282 12.0312 12.4931 12.0312 12.4534C12.0312 12.416 12.0243 12.3786 12.0128 12.3505" fill="black" stroke="black" stroke-width="0.12"/>
<path d="M11.639 13.6029C11.6052 13.5914 11.5688 13.5858 11.535 13.5858C11.389 13.5858 11.2631 13.6801 11.2185 13.8164L11.2185 13.8164L11.2184 13.8167C11.1611 13.9944 11.2497 14.1819 11.4245 14.2412L11.4251 14.2415L11.4246 14.2423L11.4348 14.2454C11.463 14.254 11.4941 14.2597 11.5327 14.2597C11.678 14.2597 11.8045 14.1681 11.8493 14.0287L11.8493 14.0287L11.8494 14.0282C11.9045 13.8514 11.8116 13.6606 11.639 13.6029ZM11.639 13.6029C11.6391 13.6029 11.6391 13.6029 11.6392 13.603L11.6199 13.6598M11.639 13.6029C11.639 13.6029 11.639 13.6029 11.6389 13.6029L11.6199 13.6598M11.6199 13.6598C11.76 13.7065 11.838 13.8631 11.7921 14.0104L11.4477 14.1857C11.303 14.1389 11.2273 13.9847 11.2755 13.8351C11.3122 13.7229 11.4156 13.6458 11.535 13.6458C11.5625 13.6458 11.5924 13.6504 11.6199 13.6598Z" fill="black" stroke="black" stroke-width="0.12"/>
<path d="M8.54782 17.3092H8.53343C8.39126 17.3092 8.26557 17.2141 8.22108 17.0782L8.2209 17.0776L8.2209 17.0776C8.16538 16.9024 8.25895 16.7125 8.42976 16.652C8.46718 16.6375 8.50429 16.6319 8.54033 16.6319C8.68269 16.6319 8.80833 16.7272 8.85274 16.8654C8.88029 16.9497 8.87523 17.0435 8.83305 17.1242C8.79401 17.2032 8.72645 17.2639 8.64087 17.2901C8.6408 17.2901 8.64073 17.2901 8.64066 17.2902L8.62314 17.2328C8.59324 17.2421 8.56563 17.2468 8.53803 17.2468L8.54782 17.3092ZM8.54782 17.3092L8.55316 17.3064L8.54782 17.3092Z" fill="black" stroke="black" stroke-width="0.12"/>
<path d="M9.56867 16.4929L9.56823 16.4932L9.57276 16.4978C9.63284 16.582 9.73042 16.6315 9.83718 16.6315C9.88275 16.6315 9.95821 16.6242 10.0252 16.5714L10.0255 16.5719L10.0334 16.5661C10.1035 16.5147 10.1511 16.4376 10.1651 16.3495C10.1792 16.2607 10.1565 16.1726 10.1043 16.0998C10.0423 16.0111 9.94125 15.9599 9.83489 15.9599C9.76401 15.9599 9.69669 15.9831 9.63887 16.0251L9.63887 16.0251L9.63869 16.0253C9.56758 16.0774 9.52304 16.155 9.50927 16.2419L9.50927 16.2419L9.50922 16.2422C9.49554 16.3314 9.51454 16.4204 9.56867 16.4929Z" fill="black" stroke="black" stroke-width="0.12"/>
<path d="M11.1981 15.1955C11.1844 15.1068 11.1385 15.0313 11.0692 14.9779L11.0695 14.9776L11.0627 14.9724C11.0064 14.9294 10.9385 14.9063 10.8679 14.9063C10.761 14.9063 10.6626 14.9579 10.601 15.0434L10.601 15.0434L10.6001 15.0448C10.5508 15.1173 10.5283 15.2049 10.5422 15.2956L10.5422 15.2956L10.5422 15.2959C10.5555 15.3798 10.5978 15.4584 10.6687 15.5111L10.6687 15.5111L10.6733 15.5149C10.7389 15.5695 10.817 15.5802 10.8656 15.5802C10.9707 15.5802 11.0706 15.5343 11.1336 15.4479L11.134 15.4483L11.1396 15.4404C11.1893 15.37 11.2121 15.2843 11.1981 15.1955ZM11.1981 15.1955C11.1981 15.1954 11.1981 15.1954 11.1981 15.1953L11.1388 15.2047L11.1981 15.1956C11.1981 15.1956 11.1981 15.1955 11.1981 15.1955Z" fill="black" stroke="black" stroke-width="0.12"/>
<path d="M6.85905 17.4422C6.91934 17.5062 7.00422 17.5401 7.09063 17.5401C7.17989 17.5401 7.26807 17.5073 7.32729 17.4417C7.39087 17.3764 7.42387 17.2915 7.42387 17.202C7.42387 17.1129 7.39114 17.0249 7.3286 16.9612C7.2682 16.8997 7.18346 16.8661 7.09292 16.8661C7.00238 16.8661 6.91764 16.8997 6.85724 16.9612C6.79372 17.0259 6.75738 17.1133 6.75738 17.202C6.75738 17.2912 6.79418 17.3759 6.85905 17.4422Z" fill="black" stroke="black" stroke-width="0.12"/>
<path d="M2.09234 12.4514C2.09234 12.6381 2.24012 12.79 2.42608 12.79C2.60974 12.79 2.75752 12.6381 2.75752 12.4537C2.75752 10.0179 4.70302 8.03915 7.09342 8.03915C7.27937 8.03915 7.42715 7.88718 7.42715 7.70051C7.42715 7.51384 7.27937 7.36188 7.09342 7.36188C4.33571 7.36188 2.09234 9.64694 2.09234 12.4514Z" fill="black" stroke="black" stroke-width="0.12"/>
</g>
<defs>
<clipPath id="clip0">
<rect width="14.0802" height="19.1089" fill="white" transform="translate(0.0544434 0.598877)"/>
</clipPath>
</defs>
</svg>
