<svg width="21" height="27" viewBox="0 0 21 27" fill="none" xmlns="http://www.w3.org/2000/svg">
<path fill-rule="evenodd" clip-rule="evenodd" d="M0.458618 10.6574C0.458618 5.11077 4.93314 0.597336 10.432 0.597336C15.9308 0.597336 20.4053 5.11077 20.4053 10.6574C20.4053 14.763 15.2569 21.7778 12.184 25.5843C11.7527 26.1281 11.1058 26.4272 10.432 26.4272C9.75808 26.4272 9.11116 26.1281 8.67988 25.5843C5.60701 21.7778 0.458618 14.763 0.458618 10.6574ZM5.63337 10.6294C5.63337 7.96504 7.7896 5.79007 10.431 5.79007C13.0723 5.79007 15.2286 7.96504 15.2286 10.6294C15.2286 13.2937 13.0723 15.4687 10.431 15.4687C7.7896 15.4687 5.63337 13.2937 5.63337 10.6294Z" fill="#583E23"/>
</svg>
