<svg width="18" height="21" viewBox="0 0 18 21" fill="none" xmlns="http://www.w3.org/2000/svg">
<path d="M1.85669 7.4514C2.14942 7.40958 2.44215 7.57685 2.52578 7.82776C3.06943 9.0405 4.74217 9.0405 5.28581 7.82776C5.41127 7.57685 5.66218 7.40958 5.95491 7.4514C7.25129 7.57685 8.08766 6.1132 7.33493 5.06773C7.16765 4.81682 7.16765 4.52409 7.33493 4.27318C8.08766 3.22771 7.25129 1.72224 5.95491 1.88952C5.66218 1.93134 5.36945 1.76406 5.28581 1.51315C5.0349 0.927689 4.49126 0.59314 3.9058 0.59314C3.32034 0.59314 2.7767 0.927689 2.52578 1.51315C2.40033 1.76406 2.1076 1.93134 1.85669 1.88952C1.18759 1.80588 0.602127 2.14043 0.309396 2.72589C0.0584844 3.22771 0.100303 3.81317 0.476671 4.27318C0.643945 4.52409 0.643945 4.81682 0.476671 5.06773C-0.317883 6.1132 0.518489 7.61867 1.85669 7.4514ZM1.14577 3.77136C0.769401 3.31135 1.14577 2.64225 1.73123 2.72589C2.40033 2.80953 3.02761 2.43316 3.27852 1.8477C3.40397 1.59679 3.61307 1.42951 3.9058 1.42951C4.19853 1.42951 4.40762 1.59679 4.53308 1.8477C4.78399 2.43316 5.41127 2.80953 6.08037 2.72589C6.66583 2.64225 7.04219 3.31135 6.70765 3.77136C6.33128 4.315 6.33128 5.02591 6.70765 5.56956C7.04219 6.02956 6.66583 6.69866 6.08037 6.61502C5.41127 6.53138 4.78399 6.90775 4.53308 7.49321C4.28217 8.03686 3.52943 8.03686 3.32034 7.49321C3.06943 6.90775 2.44215 6.53138 1.77305 6.61502C1.14577 6.69866 0.769401 6.02956 1.14577 5.56956C1.52214 5.02591 1.52214 4.315 1.14577 3.77136Z" fill="black"/>
<path d="M15.5324 11.0476C15.5324 9.96034 14.6961 9.08215 13.6088 9.08215H2.06685C1.02138 9.08215 0.143188 9.96034 0.143188 11.0058C0.143188 14.0586 2.02503 16.8604 4.82688 18.0732L4.57596 18.9932C4.45051 19.4114 4.53414 19.8295 4.82688 20.1641C5.07779 20.4986 5.45415 20.7077 5.87234 20.7077H9.80329C10.2215 20.7077 10.5978 20.4986 10.8488 20.1641C11.0997 19.8295 11.1833 19.4114 11.0997 18.9932L10.8488 18.115C11.8942 17.655 12.8561 16.9859 13.6088 16.1077H15.4906C17.1216 16.1077 17.9997 14.644 17.9997 13.5986C18.0416 12.1767 16.9125 11.0894 15.5324 11.0476ZM10.2215 19.6204C10.1378 19.7459 9.97057 19.8295 9.80329 19.8295H5.87234C5.70507 19.8295 5.57961 19.7459 5.45415 19.6204C5.37052 19.495 5.3287 19.3277 5.37052 19.2023L5.57961 18.3659C6.29053 18.575 7.04326 18.7004 7.796 18.7004C8.54873 18.7004 9.30147 18.575 10.0124 18.3659L10.2215 19.2023C10.3469 19.3277 10.3051 19.495 10.2215 19.6204ZM7.87963 17.8641C7.08508 17.9059 1.43957 17.2786 1.02138 11.0058C0.979561 10.4203 1.5232 9.91853 2.10866 9.91853H13.6506C14.2361 9.91853 14.7379 10.4203 14.7379 11.0058C14.6961 11.1731 14.5706 17.5295 7.87963 17.8641ZM15.4906 15.2713H14.2361C14.9052 14.2677 15.3234 13.0967 15.4488 11.884C16.3688 11.884 17.1216 12.6367 17.1216 13.5567C17.2052 14.1422 16.7034 15.2713 15.4906 15.2713Z" fill="black"/>
</svg>
