<svg width="48" height="31" viewBox="0 0 48 31" fill="none" xmlns="http://www.w3.org/2000/svg">
<path d="M18.9433 29.3874C18.4641 29.3874 18.0915 29.0148 18.0915 28.5356C18.0915 28.0565 18.4641 27.6838 18.9433 27.6838H43.9652C44.9767 27.6838 45.7753 26.8852 45.7753 25.8737V8.09219H9.20069V10.4347C9.20069 10.9138 8.82802 11.2865 8.34888 11.2865C8.13593 11.2865 7.92298 11.18 7.76326 11.0203C7.60355 10.8606 7.49707 10.6476 7.49707 10.4347V3.51372C7.49707 1.59714 9.09421 0 11.0108 0H44.0184C45.935 0 47.5321 1.59714 47.5321 3.51372V25.8737C47.5321 27.7903 45.935 29.3874 44.0184 29.3874H18.9433ZM45.7753 6.38857V3.51372C45.7753 2.50219 44.9767 1.70362 43.9652 1.70362H10.9575C9.94602 1.70362 9.14745 2.50219 9.14745 3.51372V6.38857H45.7753Z" fill="white"/>
<path d="M17.7187 21.5617V21.6149C17.6654 26.3531 13.7791 30.133 9.04086 30.0798C4.30267 30.0265 0.469527 26.1401 0.522765 21.4019C0.576003 16.6638 4.46238 12.8306 9.20058 12.8838C13.9388 12.9903 17.7719 16.8235 17.7187 21.5617ZM16.2812 21.6149C16.3345 17.6753 13.1402 14.4278 9.20058 14.3745C5.26096 14.3213 2.01343 17.5156 1.96019 21.4552C1.90696 25.3948 5.10124 28.6423 9.04086 28.6956C9.04086 28.6956 9.04086 28.6956 9.0941 28.6956C11.0107 28.6956 12.8208 28.0035 14.1517 26.6193C15.5359 25.2883 16.2812 23.4782 16.2812 21.6149Z" fill="white"/>
<path d="M7.51463 21.8101L7.51464 21.8101L7.51399 21.8095C7.40464 21.7001 7.29512 21.6454 7.18889 21.5922L7.18806 21.5918L7.18938 21.5892H7.17688C7.06525 21.5892 6.95441 21.6435 6.89596 21.7001C6.84334 21.7267 6.80076 21.7548 6.77138 21.7916C6.74063 21.83 6.72598 21.8757 6.72598 21.9336C6.72598 22.0458 6.78115 22.2096 6.83509 22.3175L6.83388 22.3181L6.83977 22.324L7.05247 22.5367L7.9548 23.4921C8.0134 23.6059 8.12819 23.6622 8.24164 23.6622V23.6652L8.25282 23.6596C8.27802 23.647 8.30345 23.6374 8.32903 23.6284C8.33382 23.6267 8.33865 23.625 8.34349 23.6233C8.36405 23.616 8.38492 23.6087 8.40455 23.6003C8.45319 23.5795 8.49805 23.5504 8.52825 23.4925L12.0391 20.0349L12.0401 20.0359L12.0439 20.0282C12.0726 19.9708 12.0865 19.9003 12.0865 19.8307C12.0865 19.7612 12.0726 19.6906 12.0439 19.6332C11.9321 19.4095 11.6516 19.2956 11.4247 19.4091L11.4242 19.408L11.4185 19.4134L8.18936 22.5368L7.51463 21.8101Z" fill="white" stroke="white" stroke-width="0.05"/>
<path d="M10.6913 27.0442C10.5316 27.0442 10.3187 26.991 10.1057 26.9378C9.83952 26.8313 9.52009 26.7781 9.14742 26.7781C8.77475 26.7781 8.45532 26.8845 8.18913 26.9378C7.97618 26.991 7.70999 27.0442 7.55028 27.0442C7.49704 27.0442 7.4438 27.0442 7.39056 27.0442C7.17761 26.991 6.96466 26.7248 6.75171 26.4586C6.53875 26.1924 6.37904 25.9795 6.11285 25.7665C5.84666 25.5536 5.47399 25.4471 5.2078 25.2874C4.94161 25.1809 4.62218 25.0744 4.51571 24.9147C4.40923 24.755 4.40923 24.4888 4.35599 24.1694C4.35599 23.85 4.30275 23.4773 4.19628 23.1046C4.0898 22.8384 3.93009 22.5722 3.77037 22.3061C3.55742 21.9866 3.39771 21.7204 3.39771 21.4542C3.39771 21.2413 3.55742 20.9751 3.77037 20.7089C3.93009 20.4427 4.14304 20.1765 4.19628 19.8039C4.24951 19.5377 4.30275 19.2715 4.30275 18.9521C4.30275 18.5794 4.35599 18.2067 4.51571 17.9938C4.62218 17.8341 4.94161 17.7276 5.26104 17.5679C5.52723 17.4614 5.84666 17.3549 6.16609 17.142C6.43228 16.929 6.59199 16.7161 6.80494 16.5031C7.0179 16.2369 7.23085 16.024 7.4438 15.9175C7.49704 15.9175 7.55028 15.9175 7.60351 15.9175C7.76323 15.9175 8.02942 15.9707 8.24237 16.024C8.50856 16.0772 8.88123 16.1837 9.20066 16.1837C9.57332 16.1837 9.89275 16.0772 10.1589 16.024C10.3719 15.9707 10.6381 15.9175 10.7978 15.9175C10.851 15.9175 10.9043 15.9175 10.9575 15.9175C11.1172 15.9707 11.3302 16.2369 11.5431 16.5031C11.7561 16.7693 11.969 16.9822 12.2352 17.1952C12.5014 17.3549 12.7676 17.4614 13.087 17.5679C13.4065 17.6743 13.7259 17.7808 13.8324 17.9405C13.9388 18.1002 13.9921 18.4729 13.9921 18.7923C13.9921 19.1118 14.0453 19.4312 14.1518 19.7506C14.2583 20.0701 14.418 20.3362 14.5777 20.5492C14.7374 20.8154 14.9504 21.1348 14.9504 21.3478C14.9504 21.5607 14.7907 21.8269 14.5777 22.0931C14.418 22.3593 14.205 22.6787 14.1518 22.9981C14.0986 23.2643 14.0453 23.5305 14.0453 23.85C14.0453 24.2226 13.9921 24.5953 13.8324 24.8082C13.6727 24.968 13.4065 25.1277 13.087 25.2341C12.8208 25.3406 12.5014 25.4471 12.2352 25.6068C11.969 25.8198 11.7561 26.086 11.5431 26.2989C11.3302 26.5651 11.1172 26.8313 10.9043 26.8845C10.851 27.0442 10.7978 27.0442 10.6913 27.0442ZM9.14742 16.929C7.92294 16.929 6.75171 17.4081 5.8999 18.3132C5.04809 19.165 4.56894 20.3362 4.56894 21.5607C4.56894 24.1161 6.64523 26.1392 9.14742 26.1392C10.3719 26.1392 11.5431 25.6601 12.3949 24.8082C13.2468 23.9564 13.7259 22.732 13.7259 21.5075C13.7259 18.9521 11.6496 16.929 9.14742 16.929Z" fill="white"/>
<path d="M19.4749 23.9663H23.4677" stroke="white" stroke-width="2" stroke-miterlimit="10" stroke-linecap="round"/>
<path d="M26.1306 23.9663H30.1235" stroke="white" stroke-width="2" stroke-miterlimit="10" stroke-linecap="round"/>
<path d="M32.7849 23.9663H36.7778" stroke="white" stroke-width="2" stroke-miterlimit="10" stroke-linecap="round"/>
</svg>
