<svg width="15" height="18" viewBox="0 0 15 18" fill="none" xmlns="http://www.w3.org/2000/svg">
<path d="M14.5312 4.35446H12.9581C13.8178 3.53898 14.0086 2.21267 13.3448 1.17951C12.8686 0.440876 12.0525 0 11.1619 0C10.6739 0 10.1977 0.135761 9.78469 0.393015C8.87625 0.956306 7.90453 3.10822 7.50047 4.0811C7.09594 3.10822 6.12375 0.955846 5.21625 0.393475C4.80234 0.13622 4.32656 0.000459952 3.83859 0.000459952C2.94797 0.000459952 2.13141 0.441336 1.65516 1.18043C0.992813 2.21129 1.18313 3.53668 2.04094 4.35446H0.46875C0.21 4.35446 0 4.56017 0 4.81467V8.72043C0 8.97492 0.21 9.18063 0.46875 9.18063H0.727032V17.5398C0.727032 17.7943 0.936563 18 1.19578 18H5.78438H9.21562H13.8042C14.0634 18 14.273 17.7943 14.273 17.5398V9.18063H14.5312C14.7905 9.18063 15 8.97492 15 8.72043V4.81467C15 4.56017 14.7905 4.35446 14.5312 4.35446ZM14.0625 8.26022H13.8042H9.68437V5.27487H14.0625V8.26022ZM8.74687 5.27487V8.26022H6.25313V5.27487H8.74687ZM10.2853 1.1703C10.5488 1.00693 10.8516 0.92041 11.1614 0.92041C11.7291 0.92041 12.2489 1.20114 12.5522 1.67146C13.0359 2.42482 12.8072 3.42301 12.0413 3.89748C11.88 3.9978 11.3048 4.23159 9.45328 4.23159C9.08391 4.23159 8.73797 4.22192 8.46047 4.21042C8.97141 3.02401 9.75563 1.49889 10.2853 1.1703ZM2.44687 1.67146C2.75016 1.20114 3.27047 0.92041 3.83812 0.92041C4.14797 0.92041 4.45125 1.00693 4.71469 1.17122C5.24391 1.49889 6.02813 3.02447 6.53953 4.21042C6.25969 4.22192 5.91141 4.23205 5.53781 4.23205C3.69234 4.23205 3.11859 3.99964 2.95828 3.90024C2.19281 3.42347 1.96359 2.4239 2.44687 1.67146ZM0.9375 5.27487H5.31563V8.26022H1.19578H0.9375V5.27487ZM1.66453 9.18063H5.31563V17.0796H1.66453V9.18063ZM6.25313 17.0796V9.18063H8.74687V17.0796H6.25313ZM13.3355 17.0796H9.68437V9.18063H13.3355V17.0796Z" fill="white"/>
</svg>
