<svg width="89" height="31" viewBox="0 0 89 31" fill="none" xmlns="http://www.w3.org/2000/svg">
<mask id="path-1-inside-1" fill="white">
<path fill-rule="evenodd" clip-rule="evenodd" d="M27.6088 23.3037C24.9193 27.3861 20.2944 30.0803 15.0402 30.0803C6.73371 30.0803 0 23.3466 0 15.0402C0 6.73371 6.73371 0 15.0402 0C20.3241 0 24.9716 2.72482 27.6542 6.84597H78.9004C83.4451 6.84597 87.1293 10.5302 87.1293 15.0749C87.1293 19.6195 83.4451 23.3037 78.9004 23.3037H27.6088Z"/>
</mask>
<path d="M27.6088 23.3037V21.3037H26.5314L25.9387 22.2034L27.6088 23.3037ZM27.6542 6.84597L25.9781 7.93706L26.5697 8.84597H27.6542V6.84597ZM25.9387 22.2034C23.6035 25.748 19.5937 28.0803 15.0402 28.0803V32.0803C20.9951 32.0803 26.2352 29.0241 29.2789 24.404L25.9387 22.2034ZM15.0402 28.0803C7.83828 28.0803 2 22.242 2 15.0402H-2C-2 24.4512 5.62914 32.0803 15.0402 32.0803V28.0803ZM2 15.0402C2 7.83828 7.83828 2 15.0402 2V-2C5.62914 -2 -2 5.62914 -2 15.0402H2ZM15.0402 2C19.6194 2 23.6488 4.35881 25.9781 7.93706L29.3304 5.75489C26.2944 1.09083 21.0288 -2 15.0402 -2V2ZM27.6542 8.84597H78.9004V4.84597H27.6542V8.84597ZM78.9004 8.84597C82.3406 8.84597 85.1293 11.6347 85.1293 15.0749H89.1293C89.1293 9.42559 84.5497 4.84597 78.9004 4.84597V8.84597ZM85.1293 15.0749C85.1293 18.515 82.3406 21.3037 78.9004 21.3037V25.3037C84.5497 25.3037 89.1293 20.7241 89.1293 15.0749H85.1293ZM78.9004 21.3037H27.6088V25.3037H78.9004V21.3037Z" fill="white" mask="url(#path-1-inside-1)"/>
<g clip-path="url(#clip0)">
<path d="M11.0046 10.9827C11.0729 8.94331 12.824 7.27668 14.9389 7.18896C14.9844 7.18896 15.0299 7.18896 15.0981 7.18896C17.304 7.18896 19.1006 8.85559 19.1916 11.0047V12.2766C19.1688 12.2766 19.1461 12.2766 19.1234 12.2766H17.5542V10.9827C17.486 9.77662 16.4853 8.81173 15.2346 8.74595C15.1891 8.74595 15.1436 8.74595 15.0981 8.74595C13.8018 8.74595 12.733 9.73276 12.6648 10.9827V12.2766H11.1183C11.0729 12.2766 11.0501 12.2766 11.0046 12.2766V10.9827Z" fill="white"/>
<path d="M19.5326 12.3426C19.3962 12.2988 19.2598 12.2769 19.1233 12.2769H11.1183C10.9591 12.2769 10.8227 12.2988 10.6635 12.3426C10.0722 12.5181 9.66284 13.0444 9.66284 13.6584V20.1276C9.66284 20.8951 10.3223 21.5091 11.1183 21.5091H19.1006C19.8965 21.5091 20.5333 20.8951 20.556 20.1276V13.6584C20.556 13.0444 20.1467 12.5181 19.5326 12.3426Z" fill="white"/>
</g>
<path d="M28.9905 15.9543H27.9265C27.9219 16.2623 27.9779 16.5283 28.0945 16.7523C28.2112 16.9763 28.3675 17.1606 28.5635 17.3053C28.7642 17.4499 28.9929 17.5549 29.2495 17.6203C29.5109 17.6903 29.7792 17.7253 30.0545 17.7253C30.3952 17.7253 30.6939 17.6856 30.9505 17.6063C31.2119 17.5269 31.4289 17.4173 31.6015 17.2773C31.7789 17.1326 31.9119 16.9623 32.0005 16.7663C32.0892 16.5703 32.1335 16.3579 32.1335 16.1293C32.1335 15.8493 32.0729 15.6206 31.9515 15.4433C31.8349 15.2613 31.6949 15.1166 31.5315 15.0093C31.3682 14.9019 31.2025 14.8249 31.0345 14.7783C30.8712 14.7269 30.7429 14.6919 30.6495 14.6733C30.3369 14.5939 30.0825 14.5286 29.8865 14.4773C29.6952 14.4259 29.5435 14.3746 29.4315 14.3233C29.3242 14.2719 29.2519 14.2159 29.2145 14.1553C29.1772 14.0946 29.1585 14.0153 29.1585 13.9173C29.1585 13.8099 29.1819 13.7213 29.2285 13.6513C29.2752 13.5813 29.3335 13.5229 29.4035 13.4763C29.4782 13.4296 29.5599 13.3969 29.6485 13.3783C29.7372 13.3596 29.8259 13.3503 29.9145 13.3503C30.0499 13.3503 30.1735 13.3619 30.2855 13.3853C30.4022 13.4086 30.5049 13.4483 30.5935 13.5043C30.6822 13.5603 30.7522 13.6373 30.8035 13.7353C30.8595 13.8333 30.8922 13.9569 30.9015 14.1063H31.9655C31.9655 13.8169 31.9095 13.5719 31.7975 13.3713C31.6902 13.1659 31.5432 12.9979 31.3565 12.8673C31.1699 12.7366 30.9552 12.6433 30.7125 12.5873C30.4745 12.5266 30.2249 12.4963 29.9635 12.4963C29.7395 12.4963 29.5155 12.5266 29.2915 12.5873C29.0675 12.6479 28.8669 12.7413 28.6895 12.8673C28.5122 12.9933 28.3675 13.1519 28.2555 13.3433C28.1482 13.5299 28.0945 13.7516 28.0945 14.0083C28.0945 14.2369 28.1365 14.4329 28.2205 14.5963C28.3092 14.7549 28.4235 14.8879 28.5635 14.9953C28.7035 15.1026 28.8622 15.1913 29.0395 15.2613C29.2169 15.3266 29.3989 15.3826 29.5855 15.4293C29.7675 15.4806 29.9472 15.5273 30.1245 15.5693C30.3019 15.6113 30.4605 15.6603 30.6005 15.7163C30.7405 15.7723 30.8525 15.8423 30.9365 15.9263C31.0252 16.0103 31.0695 16.1199 31.0695 16.2553C31.0695 16.3813 31.0369 16.4863 30.9715 16.5703C30.9062 16.6496 30.8245 16.7126 30.7265 16.7593C30.6285 16.8059 30.5235 16.8386 30.4115 16.8573C30.2995 16.8713 30.1945 16.8783 30.0965 16.8783C29.9519 16.8783 29.8119 16.8619 29.6765 16.8293C29.5412 16.7919 29.4222 16.7383 29.3195 16.6683C29.2215 16.5936 29.1422 16.4979 29.0815 16.3813C29.0209 16.2646 28.9905 16.1223 28.9905 15.9543ZM33.5364 15.9543H32.4724C32.4678 16.2623 32.5238 16.5283 32.6404 16.7523C32.7571 16.9763 32.9134 17.1606 33.1094 17.3053C33.3101 17.4499 33.5388 17.5549 33.7954 17.6203C34.0568 17.6903 34.3251 17.7253 34.6004 17.7253C34.9411 17.7253 35.2398 17.6856 35.4964 17.6063C35.7578 17.5269 35.9748 17.4173 36.1474 17.2773C36.3248 17.1326 36.4578 16.9623 36.5464 16.7663C36.6351 16.5703 36.6794 16.3579 36.6794 16.1293C36.6794 15.8493 36.6188 15.6206 36.4974 15.4433C36.3808 15.2613 36.2408 15.1166 36.0774 15.0093C35.9141 14.9019 35.7484 14.8249 35.5804 14.7783C35.4171 14.7269 35.2888 14.6919 35.1954 14.6733C34.8828 14.5939 34.6284 14.5286 34.4324 14.4773C34.2411 14.4259 34.0894 14.3746 33.9774 14.3233C33.8701 14.2719 33.7978 14.2159 33.7604 14.1553C33.7231 14.0946 33.7044 14.0153 33.7044 13.9173C33.7044 13.8099 33.7278 13.7213 33.7744 13.6513C33.8211 13.5813 33.8794 13.5229 33.9494 13.4763C34.0241 13.4296 34.1058 13.3969 34.1944 13.3783C34.2831 13.3596 34.3718 13.3503 34.4604 13.3503C34.5958 13.3503 34.7194 13.3619 34.8314 13.3853C34.9481 13.4086 35.0508 13.4483 35.1394 13.5043C35.2281 13.5603 35.2981 13.6373 35.3494 13.7353C35.4054 13.8333 35.4381 13.9569 35.4474 14.1063H36.5114C36.5114 13.8169 36.4554 13.5719 36.3434 13.3713C36.2361 13.1659 36.0891 12.9979 35.9024 12.8673C35.7158 12.7366 35.5011 12.6433 35.2584 12.5873C35.0204 12.5266 34.7708 12.4963 34.5094 12.4963C34.2854 12.4963 34.0614 12.5266 33.8374 12.5873C33.6134 12.6479 33.4128 12.7413 33.2354 12.8673C33.0581 12.9933 32.9134 13.1519 32.8014 13.3433C32.6941 13.5299 32.6404 13.7516 32.6404 14.0083C32.6404 14.2369 32.6824 14.4329 32.7664 14.5963C32.8551 14.7549 32.9694 14.8879 33.1094 14.9953C33.2494 15.1026 33.4081 15.1913 33.5854 15.2613C33.7628 15.3266 33.9448 15.3826 34.1314 15.4293C34.3134 15.4806 34.4931 15.5273 34.6704 15.5693C34.8478 15.6113 35.0064 15.6603 35.1464 15.7163C35.2864 15.7723 35.3984 15.8423 35.4824 15.9263C35.5711 16.0103 35.6154 16.1199 35.6154 16.2553C35.6154 16.3813 35.5828 16.4863 35.5174 16.5703C35.4521 16.6496 35.3704 16.7126 35.2724 16.7593C35.1744 16.8059 35.0694 16.8386 34.9574 16.8573C34.8454 16.8713 34.7404 16.8783 34.6424 16.8783C34.4978 16.8783 34.3578 16.8619 34.2224 16.8293C34.0871 16.7919 33.9681 16.7383 33.8654 16.6683C33.7674 16.5936 33.6881 16.4979 33.6274 16.3813C33.5668 16.2646 33.5364 16.1223 33.5364 15.9543ZM37.3333 12.6153V17.6133H40.8683V16.6893H38.4323V12.6153H37.3333ZM44.18 15.9543H43.116C43.1113 16.2623 43.1673 16.5283 43.284 16.7523C43.4007 16.9763 43.557 17.1606 43.753 17.3053C43.9537 17.4499 44.1823 17.5549 44.439 17.6203C44.7003 17.6903 44.9687 17.7253 45.244 17.7253C45.5847 17.7253 45.8833 17.6856 46.14 17.6063C46.4013 17.5269 46.6183 17.4173 46.791 17.2773C46.9683 17.1326 47.1013 16.9623 47.19 16.7663C47.2787 16.5703 47.323 16.3579 47.323 16.1293C47.323 15.8493 47.2623 15.6206 47.141 15.4433C47.0243 15.2613 46.8843 15.1166 46.721 15.0093C46.5577 14.9019 46.392 14.8249 46.224 14.7783C46.0607 14.7269 45.9323 14.6919 45.839 14.6733C45.5263 14.5939 45.272 14.5286 45.076 14.4773C44.8847 14.4259 44.733 14.3746 44.621 14.3233C44.5137 14.2719 44.4413 14.2159 44.404 14.1553C44.3667 14.0946 44.348 14.0153 44.348 13.9173C44.348 13.8099 44.3713 13.7213 44.418 13.6513C44.4647 13.5813 44.523 13.5229 44.593 13.4763C44.6677 13.4296 44.7493 13.3969 44.838 13.3783C44.9267 13.3596 45.0153 13.3503 45.104 13.3503C45.2393 13.3503 45.363 13.3619 45.475 13.3853C45.5917 13.4086 45.6943 13.4483 45.783 13.5043C45.8717 13.5603 45.9417 13.6373 45.993 13.7353C46.049 13.8333 46.0817 13.9569 46.091 14.1063H47.155C47.155 13.8169 47.099 13.5719 46.987 13.3713C46.8797 13.1659 46.7327 12.9979 46.546 12.8673C46.3593 12.7366 46.1447 12.6433 45.902 12.5873C45.664 12.5266 45.4143 12.4963 45.153 12.4963C44.929 12.4963 44.705 12.5266 44.481 12.5873C44.257 12.6479 44.0563 12.7413 43.879 12.8673C43.7017 12.9933 43.557 13.1519 43.445 13.3433C43.3377 13.5299 43.284 13.7516 43.284 14.0083C43.284 14.2369 43.326 14.4329 43.41 14.5963C43.4987 14.7549 43.613 14.8879 43.753 14.9953C43.893 15.1026 44.0517 15.1913 44.229 15.2613C44.4063 15.3266 44.5883 15.3826 44.775 15.4293C44.957 15.4806 45.1367 15.5273 45.314 15.5693C45.4913 15.6113 45.65 15.6603 45.79 15.7163C45.93 15.7723 46.042 15.8423 46.126 15.9263C46.2147 16.0103 46.259 16.1199 46.259 16.2553C46.259 16.3813 46.2263 16.4863 46.161 16.5703C46.0957 16.6496 46.014 16.7126 45.916 16.7593C45.818 16.8059 45.713 16.8386 45.601 16.8573C45.489 16.8713 45.384 16.8783 45.286 16.8783C45.1413 16.8783 45.0013 16.8619 44.866 16.8293C44.7307 16.7919 44.6117 16.7383 44.509 16.6683C44.411 16.5936 44.3317 16.4979 44.271 16.3813C44.2103 16.2646 44.18 16.1223 44.18 15.9543ZM47.9769 12.6153V17.6133H51.7709V16.6893H49.0759V15.4643H51.4979V14.6103H49.0759V13.5393H51.7149V12.6153H47.9769ZM55.848 14.2953H56.912C56.8793 14.0059 56.8 13.7493 56.674 13.5253C56.548 13.3013 56.387 13.1146 56.191 12.9653C55.9996 12.8113 55.7803 12.6946 55.533 12.6153C55.2903 12.5359 55.0313 12.4963 54.756 12.4963C54.3733 12.4963 54.028 12.5639 53.72 12.6993C53.4166 12.8346 53.16 13.0213 52.95 13.2593C52.74 13.4973 52.579 13.7773 52.467 14.0993C52.355 14.4166 52.299 14.7619 52.299 15.1353C52.299 15.4993 52.355 15.8399 52.467 16.1573C52.579 16.4699 52.74 16.7429 52.95 16.9763C53.16 17.2096 53.4166 17.3939 53.72 17.5293C54.028 17.6599 54.3733 17.7253 54.756 17.7253C55.064 17.7253 55.3463 17.6786 55.603 17.5853C55.8596 17.4919 56.0836 17.3566 56.275 17.1793C56.4663 17.0019 56.6203 16.7873 56.737 16.5353C56.8536 16.2833 56.926 16.0009 56.954 15.6883H55.89C55.848 16.0243 55.7313 16.2949 55.54 16.5003C55.3533 16.7056 55.092 16.8083 54.756 16.8083C54.5086 16.8083 54.2986 16.7616 54.126 16.6683C53.9533 16.5703 53.8133 16.4419 53.706 16.2833C53.5986 16.1246 53.5193 15.9473 53.468 15.7513C53.4213 15.5506 53.398 15.3453 53.398 15.1353C53.398 14.9159 53.4213 14.7036 53.468 14.4983C53.5193 14.2929 53.5986 14.1109 53.706 13.9523C53.8133 13.7889 53.9533 13.6606 54.126 13.5673C54.2986 13.4693 54.5086 13.4203 54.756 13.4203C54.8913 13.4203 55.0196 13.4436 55.141 13.4903C55.267 13.5323 55.379 13.5929 55.477 13.6723C55.575 13.7516 55.6566 13.8449 55.722 13.9523C55.7873 14.0549 55.8293 14.1693 55.848 14.2953ZM61.9464 15.7233V12.6153H60.8474V15.7233C60.8474 16.0966 60.7728 16.3719 60.6234 16.5493C60.4741 16.7219 60.2034 16.8083 59.8114 16.8083C59.5874 16.8083 59.4078 16.7779 59.2724 16.7173C59.1418 16.6519 59.0391 16.5703 58.9644 16.4723C58.8898 16.3696 58.8408 16.2529 58.8174 16.1223C58.7941 15.9916 58.7824 15.8586 58.7824 15.7233V12.6153H57.6834V15.7233C57.6834 16.4046 57.8678 16.9086 58.2364 17.2353C58.6098 17.5619 59.1348 17.7253 59.8114 17.7253C60.4788 17.7253 61.0014 17.5619 61.3794 17.2353C61.7574 16.9039 61.9464 16.3999 61.9464 15.7233ZM63.9919 14.8763V13.4693H65.1959C65.4479 13.4693 65.6369 13.5253 65.7629 13.6373C65.8889 13.7446 65.9519 13.9196 65.9519 14.1623C65.9519 14.4143 65.8889 14.5963 65.7629 14.7083C65.6369 14.8203 65.4479 14.8763 65.1959 14.8763H63.9919ZM62.8929 12.6153V17.6133H63.9919V15.6603H65.0909C65.3662 15.6603 65.5646 15.7209 65.6859 15.8423C65.8072 15.9636 65.8866 16.1549 65.9239 16.4163C65.9519 16.6169 65.9729 16.8269 65.9869 17.0463C66.0009 17.2656 66.0382 17.4546 66.0989 17.6133H67.1979C67.1466 17.5433 67.1069 17.4593 67.0789 17.3613C67.0556 17.2586 67.0369 17.1513 67.0229 17.0393C67.0136 16.9273 67.0066 16.8176 67.0019 16.7103C66.9972 16.6029 66.9926 16.5096 66.9879 16.4303C66.9786 16.3043 66.9599 16.1783 66.9319 16.0523C66.9086 15.9263 66.8689 15.8119 66.8129 15.7093C66.7569 15.6019 66.6846 15.5109 66.5959 15.4363C66.5072 15.3569 66.3952 15.2986 66.2599 15.2613V15.2473C66.5399 15.1353 66.7406 14.9719 66.8619 14.7573C66.9879 14.5426 67.0509 14.2883 67.0509 13.9943C67.0509 13.8029 67.0159 13.6256 66.9459 13.4623C66.8806 13.2943 66.7826 13.1473 66.6519 13.0213C66.5259 12.8953 66.3719 12.7973 66.1899 12.7273C66.0126 12.6526 65.8119 12.6153 65.5879 12.6153H62.8929ZM67.9447 12.6153V17.6133H71.7387V16.6893H69.0437V15.4643H71.4657V14.6103H69.0437V13.5393H71.6827V12.6153H67.9447ZM73.5827 16.6893V13.5393H74.3667C74.6374 13.5393 74.8637 13.5789 75.0457 13.6583C75.2324 13.7329 75.3817 13.8426 75.4937 13.9873C75.6057 14.1319 75.6851 14.3069 75.7317 14.5123C75.7831 14.7129 75.8087 14.9393 75.8087 15.1913C75.8087 15.4666 75.7737 15.6999 75.7037 15.8913C75.6337 16.0826 75.5404 16.2389 75.4237 16.3603C75.3071 16.4769 75.1741 16.5609 75.0247 16.6123C74.8754 16.6636 74.7214 16.6893 74.5627 16.6893H73.5827ZM72.4837 12.6153V17.6133H74.6397C75.0224 17.6133 75.3537 17.5503 75.6337 17.4243C75.9184 17.2936 76.1541 17.1163 76.3407 16.8923C76.5321 16.6683 76.6744 16.4023 76.7677 16.0943C76.8611 15.7863 76.9077 15.4503 76.9077 15.0863C76.9077 14.6709 76.8494 14.3093 76.7327 14.0013C76.6207 13.6933 76.4621 13.4366 76.2567 13.2313C76.0561 13.0259 75.8157 12.8719 75.5357 12.7693C75.2604 12.6666 74.9617 12.6153 74.6397 12.6153H72.4837Z" fill="white"/>
<defs>
<clipPath id="clip0">
<rect width="12.2804" height="15.3505" fill="white" transform="translate(8.98071 6.53125)"/>
</clipPath>
</defs>
</svg>
