<svg width="25" height="18" viewBox="0 0 25 18" fill="none" xmlns="http://www.w3.org/2000/svg">
<mask id="path-1-outside-1" maskUnits="userSpaceOnUse" x="-0.0128174" y="-0.139893" width="25" height="18" fill="black">
<rect fill="white" x="-0.0128174" y="-0.139893" width="25" height="18"/>
<path d="M22.0321 17.3634C21.7351 17.3634 21.4381 17.1529 21.2259 16.8582C21.0562 16.6056 20.9714 16.2267 20.9714 15.8478V6.92256L20.8865 6.88046C20.5895 6.62786 20.2925 6.29105 20.0803 5.91215C19.6985 5.15434 19.5712 4.22814 19.7409 3.34403C19.8258 2.75462 20.0379 2.29152 20.2925 1.87052C20.7168 1.23901 21.3532 0.902208 21.9472 0.860107H21.9897C22.414 0.860107 22.8383 1.02851 23.1777 1.28111C23.7293 1.70211 24.1111 2.41782 24.2808 3.25983C24.4506 4.22814 24.3233 5.23854 23.8566 6.03845C23.6444 6.37525 23.4323 6.62786 23.1777 6.83836L23.1353 6.92256V15.8899C23.1353 16.353 23.008 16.774 22.7534 17.0687C22.5412 17.2371 22.2867 17.3634 22.0321 17.3634ZM21.4381 9.74328C21.4381 11.8062 21.4381 13.827 21.4381 15.8899C21.4381 16.2688 21.5229 16.5635 21.7351 16.7319C21.8199 16.8161 21.9048 16.8582 22.0321 16.8582C22.2442 16.8161 22.3715 16.6477 22.414 16.6056C22.5412 16.3951 22.6261 16.1425 22.6261 15.8478V7.17516L22.414 7.21726C22.2867 7.25936 22.1594 7.25936 22.0321 7.25936C21.9048 7.25936 21.7775 7.25936 21.6502 7.21726L21.4381 7.17516V9.74328ZM22.0321 1.36531C21.6078 1.36531 21.1411 1.61791 20.8441 2.03892C20.4198 2.54412 20.2076 3.25983 20.2076 4.05973C20.2076 4.98594 20.5046 5.78585 21.0562 6.33315C21.3532 6.62786 21.7351 6.79626 22.0745 6.79626C22.6261 6.79626 23.0928 6.41735 23.3474 6.03845C23.7293 5.49115 23.9414 4.81754 23.9414 4.05973C23.9414 3.13353 23.6444 2.33362 23.0928 1.82842C22.8383 1.61791 22.4988 1.36531 22.0321 1.36531ZM2.93893 17.3634C2.72678 17.3634 2.47221 17.2792 2.30249 17.1108C2.00548 16.8161 1.83577 16.3109 1.83577 15.7636V6.08055L1.75091 6.03845C1.28419 5.70165 0.987183 5.15434 0.987183 4.56494V4.48074V1.11271C0.987183 1.07061 0.987183 1.07061 0.987183 1.02851C1.02961 0.944308 1.11447 0.902208 1.19933 0.860107H1.28419H1.36905C1.41148 0.944308 1.4539 0.986408 1.49633 1.02851C1.49633 1.07061 1.49633 1.07061 1.49633 1.11271V2.24942C1.49633 3.00723 1.49633 3.76503 1.49633 4.48074C1.49633 5.07014 1.8782 5.61745 2.47221 5.82795L2.68435 5.91215V1.11271C2.68435 1.07061 2.68435 1.07061 2.68435 1.02851C2.72678 0.944308 2.76921 0.902208 2.85407 0.860107C2.8965 0.860107 2.8965 0.860107 2.93893 0.860107H3.02379C3.06622 0.860107 3.06622 0.860107 3.10865 0.902208C3.10865 0.944308 3.15107 0.986408 3.1935 1.02851C3.1935 1.07061 3.1935 1.07061 3.1935 1.11271V5.91215L3.40565 5.82795C3.70266 5.74375 3.9148 5.53325 4.08452 5.32274C4.25424 5.07014 4.33909 4.77544 4.33909 4.48074V1.11271V1.07061C4.33909 0.944308 4.46638 0.860107 4.59367 0.860107C4.72096 0.860107 4.80582 0.944308 4.84825 1.07061V1.11271C4.84825 1.11271 4.84825 3.72293 4.84825 4.48074C4.84825 5.07014 4.55124 5.65955 4.08452 6.03845L4.04209 6.08055V15.7636C4.04209 16.1425 3.95723 16.5214 3.78751 16.8161C3.6178 17.1108 3.40565 17.2792 3.15107 17.3634C3.10865 17.3634 3.02379 17.3634 2.93893 17.3634ZM2.34492 9.40648C2.34492 11.5115 2.34492 13.6586 2.34492 15.7636C2.34492 16.1425 2.42978 16.4793 2.64192 16.6898C2.72678 16.8161 2.85407 16.8582 2.93893 16.8582C3.02379 16.8582 3.15107 16.8161 3.23593 16.7319C3.44808 16.5214 3.53294 16.1846 3.53294 15.7636V6.33315L3.32079 6.37525C3.1935 6.41735 3.10865 6.41735 2.98136 6.41735H2.8965H2.81164C2.68435 6.41735 2.59949 6.41735 2.47221 6.37525L2.26006 6.33315L2.34492 9.40648ZM12.2734 15.2584C11.4672 15.2584 10.6611 15.09 9.89733 14.7953C8.49716 14.2059 7.35157 13.1113 6.6727 11.7641C5.99383 10.3327 5.86655 8.64867 6.3757 7.13306C6.79999 5.87005 7.69101 4.73334 8.8366 3.97553C9.81247 3.34403 11.0429 2.96513 12.2309 2.96513C13.4614 2.96513 14.6918 3.34403 15.7101 4.01763C17.0679 4.94384 18.0437 6.37525 18.3407 7.97507C18.5953 9.23808 18.4256 10.5853 17.8316 11.7641C17.0679 13.3218 15.6677 14.5006 14.013 15.0058C13.4614 15.1742 12.8674 15.2584 12.2734 15.2584ZM12.2734 3.47033C11.1702 3.47033 10.067 3.80713 9.1336 4.39654C7.86072 5.23854 6.96971 6.54365 6.6727 8.01717C6.46056 9.19598 6.58784 10.459 7.13943 11.5115C7.73343 12.7324 8.8366 13.7428 10.1095 14.2901C10.7883 14.5848 11.5521 14.7111 12.2734 14.7111C13.0371 14.7111 13.7584 14.5848 14.4797 14.2901C16.0496 13.6586 17.28 12.3114 17.7467 10.7116C18.171 9.32228 18.0013 7.76456 17.3224 6.50155C16.5163 4.94384 14.9888 3.84923 13.2917 3.55453C12.9522 3.51243 12.6128 3.47033 12.2734 3.47033ZM12.2734 13.5744C11.4248 13.5744 10.6186 13.3639 9.89733 12.9008C8.96388 12.3114 8.24259 11.3852 7.94558 10.3327C7.64858 9.28018 7.73343 8.10137 8.20016 7.13306C8.79417 5.87005 10.067 4.94384 11.4248 4.69124C11.6794 4.64914 11.9764 4.60704 12.2309 4.60704C13.1644 4.60704 14.0978 4.90174 14.8615 5.44905C15.9223 6.20685 16.5587 7.34356 16.7284 8.60657C16.8557 9.78538 16.4739 10.9642 15.7526 11.8904C15.0737 12.6903 14.1403 13.2797 13.122 13.4481C12.8249 13.5744 12.5704 13.5744 12.2734 13.5744ZM12.2734 5.15434C11.4248 5.15434 10.6186 5.40695 9.93976 5.91215C9.1336 6.50155 8.58202 7.34356 8.36987 8.31187C8.15773 9.23808 8.32744 10.2485 8.79417 11.0905C9.38818 12.1009 10.4065 12.8166 11.5096 13.0271C11.7642 13.0692 11.9764 13.1113 12.2309 13.1113C12.9947 13.1113 13.716 12.9008 14.3524 12.5219C15.3283 11.8904 16.0496 10.8379 16.2193 9.70118C16.3466 8.77497 16.1344 7.76456 15.5828 6.96466C14.904 5.95425 13.7584 5.28064 12.5279 5.19644C12.4431 5.15434 12.3582 5.15434 12.2734 5.15434Z"/>
</mask>
<path d="M22.0321 17.3634C21.7351 17.3634 21.4381 17.1529 21.2259 16.8582C21.0562 16.6056 20.9714 16.2267 20.9714 15.8478V6.92256L20.8865 6.88046C20.5895 6.62786 20.2925 6.29105 20.0803 5.91215C19.6985 5.15434 19.5712 4.22814 19.7409 3.34403C19.8258 2.75462 20.0379 2.29152 20.2925 1.87052C20.7168 1.23901 21.3532 0.902208 21.9472 0.860107H21.9897C22.414 0.860107 22.8383 1.02851 23.1777 1.28111C23.7293 1.70211 24.1111 2.41782 24.2808 3.25983C24.4506 4.22814 24.3233 5.23854 23.8566 6.03845C23.6444 6.37525 23.4323 6.62786 23.1777 6.83836L23.1353 6.92256V15.8899C23.1353 16.353 23.008 16.774 22.7534 17.0687C22.5412 17.2371 22.2867 17.3634 22.0321 17.3634ZM21.4381 9.74328C21.4381 11.8062 21.4381 13.827 21.4381 15.8899C21.4381 16.2688 21.5229 16.5635 21.7351 16.7319C21.8199 16.8161 21.9048 16.8582 22.0321 16.8582C22.2442 16.8161 22.3715 16.6477 22.414 16.6056C22.5412 16.3951 22.6261 16.1425 22.6261 15.8478V7.17516L22.414 7.21726C22.2867 7.25936 22.1594 7.25936 22.0321 7.25936C21.9048 7.25936 21.7775 7.25936 21.6502 7.21726L21.4381 7.17516V9.74328ZM22.0321 1.36531C21.6078 1.36531 21.1411 1.61791 20.8441 2.03892C20.4198 2.54412 20.2076 3.25983 20.2076 4.05973C20.2076 4.98594 20.5046 5.78585 21.0562 6.33315C21.3532 6.62786 21.7351 6.79626 22.0745 6.79626C22.6261 6.79626 23.0928 6.41735 23.3474 6.03845C23.7293 5.49115 23.9414 4.81754 23.9414 4.05973C23.9414 3.13353 23.6444 2.33362 23.0928 1.82842C22.8383 1.61791 22.4988 1.36531 22.0321 1.36531ZM2.93893 17.3634C2.72678 17.3634 2.47221 17.2792 2.30249 17.1108C2.00548 16.8161 1.83577 16.3109 1.83577 15.7636V6.08055L1.75091 6.03845C1.28419 5.70165 0.987183 5.15434 0.987183 4.56494V4.48074V1.11271C0.987183 1.07061 0.987183 1.07061 0.987183 1.02851C1.02961 0.944308 1.11447 0.902208 1.19933 0.860107H1.28419H1.36905C1.41148 0.944308 1.4539 0.986408 1.49633 1.02851C1.49633 1.07061 1.49633 1.07061 1.49633 1.11271V2.24942C1.49633 3.00723 1.49633 3.76503 1.49633 4.48074C1.49633 5.07014 1.8782 5.61745 2.47221 5.82795L2.68435 5.91215V1.11271C2.68435 1.07061 2.68435 1.07061 2.68435 1.02851C2.72678 0.944308 2.76921 0.902208 2.85407 0.860107C2.8965 0.860107 2.8965 0.860107 2.93893 0.860107H3.02379C3.06622 0.860107 3.06622 0.860107 3.10865 0.902208C3.10865 0.944308 3.15107 0.986408 3.1935 1.02851C3.1935 1.07061 3.1935 1.07061 3.1935 1.11271V5.91215L3.40565 5.82795C3.70266 5.74375 3.9148 5.53325 4.08452 5.32274C4.25424 5.07014 4.33909 4.77544 4.33909 4.48074V1.11271V1.07061C4.33909 0.944308 4.46638 0.860107 4.59367 0.860107C4.72096 0.860107 4.80582 0.944308 4.84825 1.07061V1.11271C4.84825 1.11271 4.84825 3.72293 4.84825 4.48074C4.84825 5.07014 4.55124 5.65955 4.08452 6.03845L4.04209 6.08055V15.7636C4.04209 16.1425 3.95723 16.5214 3.78751 16.8161C3.6178 17.1108 3.40565 17.2792 3.15107 17.3634C3.10865 17.3634 3.02379 17.3634 2.93893 17.3634ZM2.34492 9.40648C2.34492 11.5115 2.34492 13.6586 2.34492 15.7636C2.34492 16.1425 2.42978 16.4793 2.64192 16.6898C2.72678 16.8161 2.85407 16.8582 2.93893 16.8582C3.02379 16.8582 3.15107 16.8161 3.23593 16.7319C3.44808 16.5214 3.53294 16.1846 3.53294 15.7636V6.33315L3.32079 6.37525C3.1935 6.41735 3.10865 6.41735 2.98136 6.41735H2.8965H2.81164C2.68435 6.41735 2.59949 6.41735 2.47221 6.37525L2.26006 6.33315L2.34492 9.40648ZM12.2734 15.2584C11.4672 15.2584 10.6611 15.09 9.89733 14.7953C8.49716 14.2059 7.35157 13.1113 6.6727 11.7641C5.99383 10.3327 5.86655 8.64867 6.3757 7.13306C6.79999 5.87005 7.69101 4.73334 8.8366 3.97553C9.81247 3.34403 11.0429 2.96513 12.2309 2.96513C13.4614 2.96513 14.6918 3.34403 15.7101 4.01763C17.0679 4.94384 18.0437 6.37525 18.3407 7.97507C18.5953 9.23808 18.4256 10.5853 17.8316 11.7641C17.0679 13.3218 15.6677 14.5006 14.013 15.0058C13.4614 15.1742 12.8674 15.2584 12.2734 15.2584ZM12.2734 3.47033C11.1702 3.47033 10.067 3.80713 9.1336 4.39654C7.86072 5.23854 6.96971 6.54365 6.6727 8.01717C6.46056 9.19598 6.58784 10.459 7.13943 11.5115C7.73343 12.7324 8.8366 13.7428 10.1095 14.2901C10.7883 14.5848 11.5521 14.7111 12.2734 14.7111C13.0371 14.7111 13.7584 14.5848 14.4797 14.2901C16.0496 13.6586 17.28 12.3114 17.7467 10.7116C18.171 9.32228 18.0013 7.76456 17.3224 6.50155C16.5163 4.94384 14.9888 3.84923 13.2917 3.55453C12.9522 3.51243 12.6128 3.47033 12.2734 3.47033ZM12.2734 13.5744C11.4248 13.5744 10.6186 13.3639 9.89733 12.9008C8.96388 12.3114 8.24259 11.3852 7.94558 10.3327C7.64858 9.28018 7.73343 8.10137 8.20016 7.13306C8.79417 5.87005 10.067 4.94384 11.4248 4.69124C11.6794 4.64914 11.9764 4.60704 12.2309 4.60704C13.1644 4.60704 14.0978 4.90174 14.8615 5.44905C15.9223 6.20685 16.5587 7.34356 16.7284 8.60657C16.8557 9.78538 16.4739 10.9642 15.7526 11.8904C15.0737 12.6903 14.1403 13.2797 13.122 13.4481C12.8249 13.5744 12.5704 13.5744 12.2734 13.5744ZM12.2734 5.15434C11.4248 5.15434 10.6186 5.40695 9.93976 5.91215C9.1336 6.50155 8.58202 7.34356 8.36987 8.31187C8.15773 9.23808 8.32744 10.2485 8.79417 11.0905C9.38818 12.1009 10.4065 12.8166 11.5096 13.0271C11.7642 13.0692 11.9764 13.1113 12.2309 13.1113C12.9947 13.1113 13.716 12.9008 14.3524 12.5219C15.3283 11.8904 16.0496 10.8379 16.2193 9.70118C16.3466 8.77497 16.1344 7.76456 15.5828 6.96466C14.904 5.95425 13.7584 5.28064 12.5279 5.19644C12.4431 5.15434 12.3582 5.15434 12.2734 5.15434Z" fill="black"/>
<path d="M22.0321 17.3634C21.7351 17.3634 21.4381 17.1529 21.2259 16.8582C21.0562 16.6056 20.9714 16.2267 20.9714 15.8478V6.92256L20.8865 6.88046C20.5895 6.62786 20.2925 6.29105 20.0803 5.91215C19.6985 5.15434 19.5712 4.22814 19.7409 3.34403C19.8258 2.75462 20.0379 2.29152 20.2925 1.87052C20.7168 1.23901 21.3532 0.902208 21.9472 0.860107H21.9897C22.414 0.860107 22.8383 1.02851 23.1777 1.28111C23.7293 1.70211 24.1111 2.41782 24.2808 3.25983C24.4506 4.22814 24.3233 5.23854 23.8566 6.03845C23.6444 6.37525 23.4323 6.62786 23.1777 6.83836L23.1353 6.92256V15.8899C23.1353 16.353 23.008 16.774 22.7534 17.0687C22.5412 17.2371 22.2867 17.3634 22.0321 17.3634ZM21.4381 9.74328C21.4381 11.8062 21.4381 13.827 21.4381 15.8899C21.4381 16.2688 21.5229 16.5635 21.7351 16.7319C21.8199 16.8161 21.9048 16.8582 22.0321 16.8582C22.2442 16.8161 22.3715 16.6477 22.414 16.6056C22.5412 16.3951 22.6261 16.1425 22.6261 15.8478V7.17516L22.414 7.21726C22.2867 7.25936 22.1594 7.25936 22.0321 7.25936C21.9048 7.25936 21.7775 7.25936 21.6502 7.21726L21.4381 7.17516V9.74328ZM22.0321 1.36531C21.6078 1.36531 21.1411 1.61791 20.8441 2.03892C20.4198 2.54412 20.2076 3.25983 20.2076 4.05973C20.2076 4.98594 20.5046 5.78585 21.0562 6.33315C21.3532 6.62786 21.7351 6.79626 22.0745 6.79626C22.6261 6.79626 23.0928 6.41735 23.3474 6.03845C23.7293 5.49115 23.9414 4.81754 23.9414 4.05973C23.9414 3.13353 23.6444 2.33362 23.0928 1.82842C22.8383 1.61791 22.4988 1.36531 22.0321 1.36531ZM2.93893 17.3634C2.72678 17.3634 2.47221 17.2792 2.30249 17.1108C2.00548 16.8161 1.83577 16.3109 1.83577 15.7636V6.08055L1.75091 6.03845C1.28419 5.70165 0.987183 5.15434 0.987183 4.56494V4.48074V1.11271C0.987183 1.07061 0.987183 1.07061 0.987183 1.02851C1.02961 0.944308 1.11447 0.902208 1.19933 0.860107H1.28419H1.36905C1.41148 0.944308 1.4539 0.986408 1.49633 1.02851C1.49633 1.07061 1.49633 1.07061 1.49633 1.11271V2.24942C1.49633 3.00723 1.49633 3.76503 1.49633 4.48074C1.49633 5.07014 1.8782 5.61745 2.47221 5.82795L2.68435 5.91215V1.11271C2.68435 1.07061 2.68435 1.07061 2.68435 1.02851C2.72678 0.944308 2.76921 0.902208 2.85407 0.860107C2.8965 0.860107 2.8965 0.860107 2.93893 0.860107H3.02379C3.06622 0.860107 3.06622 0.860107 3.10865 0.902208C3.10865 0.944308 3.15107 0.986408 3.1935 1.02851C3.1935 1.07061 3.1935 1.07061 3.1935 1.11271V5.91215L3.40565 5.82795C3.70266 5.74375 3.9148 5.53325 4.08452 5.32274C4.25424 5.07014 4.33909 4.77544 4.33909 4.48074V1.11271V1.07061C4.33909 0.944308 4.46638 0.860107 4.59367 0.860107C4.72096 0.860107 4.80582 0.944308 4.84825 1.07061V1.11271C4.84825 1.11271 4.84825 3.72293 4.84825 4.48074C4.84825 5.07014 4.55124 5.65955 4.08452 6.03845L4.04209 6.08055V15.7636C4.04209 16.1425 3.95723 16.5214 3.78751 16.8161C3.6178 17.1108 3.40565 17.2792 3.15107 17.3634C3.10865 17.3634 3.02379 17.3634 2.93893 17.3634ZM2.34492 9.40648C2.34492 11.5115 2.34492 13.6586 2.34492 15.7636C2.34492 16.1425 2.42978 16.4793 2.64192 16.6898C2.72678 16.8161 2.85407 16.8582 2.93893 16.8582C3.02379 16.8582 3.15107 16.8161 3.23593 16.7319C3.44808 16.5214 3.53294 16.1846 3.53294 15.7636V6.33315L3.32079 6.37525C3.1935 6.41735 3.10865 6.41735 2.98136 6.41735H2.8965H2.81164C2.68435 6.41735 2.59949 6.41735 2.47221 6.37525L2.26006 6.33315L2.34492 9.40648ZM12.2734 15.2584C11.4672 15.2584 10.6611 15.09 9.89733 14.7953C8.49716 14.2059 7.35157 13.1113 6.6727 11.7641C5.99383 10.3327 5.86655 8.64867 6.3757 7.13306C6.79999 5.87005 7.69101 4.73334 8.8366 3.97553C9.81247 3.34403 11.0429 2.96513 12.2309 2.96513C13.4614 2.96513 14.6918 3.34403 15.7101 4.01763C17.0679 4.94384 18.0437 6.37525 18.3407 7.97507C18.5953 9.23808 18.4256 10.5853 17.8316 11.7641C17.0679 13.3218 15.6677 14.5006 14.013 15.0058C13.4614 15.1742 12.8674 15.2584 12.2734 15.2584ZM12.2734 3.47033C11.1702 3.47033 10.067 3.80713 9.1336 4.39654C7.86072 5.23854 6.96971 6.54365 6.6727 8.01717C6.46056 9.19598 6.58784 10.459 7.13943 11.5115C7.73343 12.7324 8.8366 13.7428 10.1095 14.2901C10.7883 14.5848 11.5521 14.7111 12.2734 14.7111C13.0371 14.7111 13.7584 14.5848 14.4797 14.2901C16.0496 13.6586 17.28 12.3114 17.7467 10.7116C18.171 9.32228 18.0013 7.76456 17.3224 6.50155C16.5163 4.94384 14.9888 3.84923 13.2917 3.55453C12.9522 3.51243 12.6128 3.47033 12.2734 3.47033ZM12.2734 13.5744C11.4248 13.5744 10.6186 13.3639 9.89733 12.9008C8.96388 12.3114 8.24259 11.3852 7.94558 10.3327C7.64858 9.28018 7.73343 8.10137 8.20016 7.13306C8.79417 5.87005 10.067 4.94384 11.4248 4.69124C11.6794 4.64914 11.9764 4.60704 12.2309 4.60704C13.1644 4.60704 14.0978 4.90174 14.8615 5.44905C15.9223 6.20685 16.5587 7.34356 16.7284 8.60657C16.8557 9.78538 16.4739 10.9642 15.7526 11.8904C15.0737 12.6903 14.1403 13.2797 13.122 13.4481C12.8249 13.5744 12.5704 13.5744 12.2734 13.5744ZM12.2734 5.15434C11.4248 5.15434 10.6186 5.40695 9.93976 5.91215C9.1336 6.50155 8.58202 7.34356 8.36987 8.31187C8.15773 9.23808 8.32744 10.2485 8.79417 11.0905C9.38818 12.1009 10.4065 12.8166 11.5096 13.0271C11.7642 13.0692 11.9764 13.1113 12.2309 13.1113C12.9947 13.1113 13.716 12.9008 14.3524 12.5219C15.3283 11.8904 16.0496 10.8379 16.2193 9.70118C16.3466 8.77497 16.1344 7.76456 15.5828 6.96466C14.904 5.95425 13.7584 5.28064 12.5279 5.19644C12.4431 5.15434 12.3582 5.15434 12.2734 5.15434Z" stroke="black" stroke-width="0.16" mask="url(#path-1-outside-1)"/>
</svg>
