<svg width="16" height="23" viewBox="0 0 16 23" fill="none" xmlns="http://www.w3.org/2000/svg">
<g clip-path="url(#clip0)">
<path d="M7.86218 3.24508L7.86212 3.24506L7.86135 3.24734C7.80695 3.40725 7.88738 3.59631 8.05498 3.65105C8.21577 3.70356 8.4079 3.62686 8.4647 3.46234C8.90586 2.3716 9.94963 1.66701 11.1569 1.66701C12.7591 1.66701 14.0348 2.94087 14.0348 4.48592C14.0348 5.75859 13.1766 6.87282 11.9229 7.21404L11.9229 7.21398L11.9208 7.21468C11.7636 7.26601 11.6473 7.42465 11.7027 7.59261C11.732 7.72861 11.8681 7.83367 12.0054 7.83367H12.0056H12.0057H12.0059H12.006H12.0061H12.0063H12.0064H12.0065H12.0067H12.0068H12.007H12.0071H12.0072H12.0074H12.0075H12.0077H12.0078H12.0079H12.0081H12.0082H12.0083H12.0085H12.0086H12.0088H12.0089H12.009H12.0092H12.0093H12.0094H12.0096H12.0097H12.0099H12.01H12.0101H12.0103H12.0104H12.0106H12.0107H12.0108H12.011H12.0111H12.0112H12.0114H12.0115H12.0117H12.0118H12.0119H12.0121H12.0122H12.0123H12.0125H12.0126H12.0128H12.0129H12.013H12.0132H12.0133H12.0135H12.0136H12.0137H12.0139H12.014H12.0141H12.0143H12.0144H12.0146H12.0147H12.0148H12.015H12.0151H12.0152H12.0154H12.0155H12.0157H12.0158H12.0159H12.0161H12.0162H12.0164H12.0165H12.0166H12.0168H12.0169H12.017H12.0172H12.0173H12.0175H12.0176H12.0177H12.0179H12.018H12.0181H12.0183H12.0184H12.0186H12.0187H12.0188H12.019H12.0191H12.0193H12.0194H12.0195H12.0197H12.0198H12.0199H12.0201H12.0202H12.0204H12.0205H12.0206H12.0208H12.0209H12.021H12.0212H12.0213H12.0215H12.0216H12.0217H12.0219H12.022H12.0222H12.0223H12.0224H12.0226H12.0227H12.0228H12.023H12.0231H12.0233H12.0234H12.0235H12.0237H12.0238H12.0239H12.0241H12.0242H12.0244H12.0245H12.0246H12.0248H12.0249H12.0251H12.0252H12.0253H12.0255H12.0256H12.0257H12.0259H12.026H12.0262H12.0263H12.0264H12.0266H12.0267H12.0269H12.027H12.0271H12.0273H12.0274H12.0275H12.0277H12.0278H12.028H12.0281H12.0282H12.0284H12.0285H12.0286H12.0288H12.0289H12.0291H12.0292H12.0293H12.0295H12.0296H12.0298H12.0299H12.03H12.0302H12.0303H12.0304H12.0306H12.0307H12.0309H12.031H12.0311H12.0313H12.0314H12.0315H12.0317H12.0318H12.032H12.0321H12.0322H12.0324H12.0325H12.0327H12.0328H12.0329H12.0331H12.0332H12.0333H12.0335H12.0336H12.0338H12.0339H12.034H12.0342H12.0343H12.0344H12.0346H12.0347H12.0349H12.035H12.0351H12.0353H12.0354H12.0356H12.0357H12.0358H12.036H12.0361H12.0362H12.0364H12.0365H12.0367H12.0368H12.0369H12.0371H12.0372H12.0373H12.0375H12.0376H12.0378H12.0379H12.038H12.0382H12.0383H12.0385H12.0386H12.0387H12.0389H12.039H12.0391H12.0393H12.0394H12.0396H12.0397H12.0398H12.04H12.0401H12.0402H12.0404H12.0405H12.0407H12.0408H12.0409H12.0411H12.0412H12.0414H12.0415H12.0416H12.0418H12.0419H12.042H12.0422H12.0423H12.0425H12.0426H12.0427H12.0429H12.043H12.0431H12.0433H12.0434H12.0436H12.0437H12.0438H12.044H12.0441H12.0443H12.0444H12.0445H12.0447H12.0448H12.0449H12.0451H12.0452H12.0454H12.0455H12.0456H12.0458H12.0459H12.046H12.0462H12.0463H12.0465H12.0466H12.0467H12.0469H12.047H12.0472H12.0473H12.0474H12.0476H12.0477H12.0478H12.048H12.0481H12.0483H12.0484H12.0485H12.0487H12.0488H12.0489H12.0491H12.0492H12.0494H12.0495H12.0496H12.0498H12.0499H12.0501H12.0502H12.0503H12.0505H12.0506H12.0507H12.0509H12.051H12.0512H12.0513H12.0514H12.0516H12.0517H12.0518H12.052H12.0521H12.0523H12.0524H12.0525H12.0527H12.0528H12.053H12.0531H12.0532H12.0534H12.0535H12.0536H12.0538H12.0539H12.0541H12.0542H12.0543H12.0545H12.0546H12.0547H12.0549H12.055H12.0552H12.0553H12.0554H12.0556H12.0557H12.0559H12.056H12.0561H12.0563H12.0564H12.0565H12.0567H12.0568H12.057H12.0571H12.0572H12.0574H12.0575H12.0577H12.0578H12.0579H12.0581H12.0582H12.0583H12.0585H12.0586H12.0588H12.0589H12.059H12.0592H12.0593H12.0594H12.0596H12.0597H12.0599H12.06H12.0601H12.0603H12.0604H12.0606H12.0607H12.0608H12.061H12.0611H12.0612H12.0614H12.0615H12.0617H12.0618H12.0619H12.0621H12.0622H12.0623H12.0625H12.0626H12.0628H12.0629H12.063H12.0632H12.0633H12.0635H12.0636H12.0637H12.0639H12.064H12.0641H12.0643H12.0644H12.0646H12.0647H12.0648H12.065H12.0651H12.0652H12.0654H12.0655H12.0657H12.0658H12.0659H12.0661H12.0662H12.0664H12.0665H12.0666H12.0668H12.0669H12.067H12.0672H12.0673H12.0675H12.0676H12.0677H12.0679H12.068H12.0681H12.0683H12.0684H12.0686H12.0687H12.0688H12.069H12.0691H12.0693H12.0694H12.0695H12.0697H12.0698H12.0699H12.0701H12.0702H12.0704H12.0705H12.0706H12.0708H12.0709H12.071H12.0712H12.0713H12.0715H12.0716H12.0717H12.0719H12.072H12.0722H12.0723H12.0724H12.0726H12.0727H12.0728H12.073H12.0731H12.0733H12.0734H12.0735H12.0737H12.0738H12.0739H12.0741H12.0742H12.0744H12.0745H12.0746H12.0748H12.0749H12.0751H12.0752H12.0753H12.0755H12.0756H12.0757H12.0759H12.076H12.0762V7.83534L12.0881 7.83205C13.6156 7.41112 14.6669 6.05427 14.6669 4.50902C14.6669 2.61233 13.09 1.06889 11.1333 1.06889C9.6775 1.06889 8.38778 1.93419 7.86218 3.24508Z" fill="black" stroke="black" stroke-width="0.09" stroke-linecap="round"/>
<path d="M3.3735 2.01288L4.53228 4.41726H3.59034C3.4274 4.41726 3.26247 4.54967 3.26247 4.73941V15.1327C3.26247 15.2143 3.29111 15.2951 3.37027 15.3727L3.37025 15.3727L3.37134 15.3737C3.92413 15.8808 4.63577 16.6011 5.20885 17.2836C5.49545 17.6249 5.74659 17.9557 5.92584 18.2451C6.01546 18.3898 6.08659 18.5233 6.1352 18.6419C6.18402 18.761 6.20895 18.8623 6.20895 18.9435C6.20895 19.0279 6.17092 19.1165 6.09838 19.2096C6.02596 19.3026 5.9219 19.3966 5.79672 19.4907C5.55456 19.6728 5.24091 19.8501 4.94268 20.0186L4.91182 20.036L4.91178 20.0361L4.89791 20.0439C4.5143 20.2603 4.11544 20.4853 3.81171 20.7424C3.50438 21.0026 3.28605 21.3027 3.28605 21.6689C3.28605 21.8307 3.42251 21.991 3.61391 21.991H10.6619C10.8248 21.991 10.9897 21.8586 10.9897 21.6689C10.9897 21.6576 10.9898 21.6367 10.9862 21.6151C10.9833 21.5985 10.9776 21.5767 10.9639 21.5575C10.911 21.2009 10.685 20.9127 10.3841 20.6641C10.0798 20.4128 9.69309 20.1972 9.31677 19.9898C9.31666 19.9898 9.31655 19.9897 9.31643 19.9896L9.28595 19.9724C8.98773 19.8039 8.67408 19.6266 8.43192 19.4445C8.30674 19.3504 8.20269 19.2564 8.13027 19.1634C8.05773 19.0703 8.01969 18.9817 8.01969 18.8973C8.01969 18.8162 8.04462 18.7148 8.09345 18.5957C8.14206 18.4771 8.21319 18.3436 8.30281 18.1989C8.48205 17.9095 8.7332 17.5787 9.0198 17.2374C9.59287 16.5549 10.3045 15.8346 10.8573 15.3275L10.8573 15.3275L10.8584 15.3265C10.9104 15.2755 10.9662 15.1953 10.9662 15.0865V4.69322C10.9662 4.53137 10.8297 4.37107 10.6383 4.37107H5.24486L3.86647 1.55546L3.86648 1.55546L3.86614 1.55479C3.81226 1.44922 3.70354 1.36857 3.56676 1.36857H1.04458C0.881646 1.36857 0.716719 1.50098 0.716719 1.69073C0.716719 1.85258 0.85318 2.01288 1.04458 2.01288H3.3735ZM5.57121 5.03847H10.334V9.56769H3.89463V5.03847H4.83496L6.66128 8.82388L6.66127 8.82389L6.66173 8.82478C6.71561 8.93036 6.82433 9.011 6.9611 9.011H6.96308C6.98506 9.01101 7.00596 9.01101 7.02729 9.00753C7.05035 9.00376 7.07228 8.99629 7.09876 8.98332C7.26418 8.90228 7.31604 8.71479 7.263 8.55887L7.26331 8.55877L7.26095 8.55387L5.57121 5.03847ZM9.03688 20.5533L9.03765 20.5537C9.27312 20.6806 9.51915 20.8184 9.73542 20.9615C9.91598 21.0811 10.0735 21.2029 10.1866 21.3236H4.04112C4.14618 21.1976 4.31156 21.0728 4.50738 20.9475C4.65658 20.852 4.81999 20.7582 4.98377 20.6641C5.0616 20.6195 5.13952 20.5747 5.21602 20.5298L5.22921 20.5223C5.61283 20.3059 6.0117 20.0809 6.31544 19.8238C6.62277 19.5636 6.8411 19.2635 6.8411 18.8973C6.8411 18.6125 6.68618 18.2554 6.45399 17.8771C6.2206 17.4968 5.90441 17.0877 5.57224 16.6971C4.93339 15.946 4.23199 15.2593 3.93806 14.9715C3.93121 14.9648 3.92459 14.9583 3.9182 14.9521V10.2351H10.334V14.9746C10.041 15.2503 9.32197 15.9458 8.67113 16.7116C8.34038 17.1008 8.02637 17.5092 7.7948 17.8906C7.56432 18.2702 7.41111 18.6301 7.41111 18.9204C7.41111 19.2865 7.62945 19.5867 7.93678 19.8469C8.24051 20.104 8.63938 20.329 9.023 20.5454L9.03688 20.5533Z" fill="black" stroke="black" stroke-width="0.09" stroke-linecap="round"/>
</g>
<defs>
<clipPath id="clip0">
<rect width="15.086" height="22.1261" fill="white" transform="translate(0.148926 0.444092)"/>
</clipPath>
</defs>
</svg>
