<svg width="17" height="17" viewBox="0 0 17 17" fill="none" xmlns="http://www.w3.org/2000/svg">
<path d="M14.6995 16.1441C14.376 16.6379 13.814 16.9273 13.2181 16.8933C12.6221 16.8592 11.8558 16.7741 11.328 16.6379C8.9781 16.0249 6.54312 14.5605 4.48274 12.5001C2.42236 10.4397 0.957947 8.00471 0.344942 5.65485C0.208718 5.12698 0.140606 4.37776 0.0895226 3.78178C0.0554667 3.20283 0.327922 2.64091 0.821732 2.31738L2.91617 0.921087C3.46106 0.5635 4.19326 0.750801 4.48274 1.32975L6.18553 4.61615C6.42392 5.0759 6.30472 5.65485 5.89605 5.97839L4.36354 7.17034C4.97655 8.31121 5.55549 9.23072 6.67933 10.3375C7.71804 11.3762 8.62052 11.9892 9.79544 12.6193L11.0044 11.0697C11.328 10.6611 11.9069 10.5248 12.3667 10.7803L15.6701 12.483C16.249 12.7725 16.4363 13.5047 16.0788 14.0496L14.6995 16.1441Z" fill="white"/>
</svg>
