<svg width="22" height="22" viewBox="0 0 22 22" fill="none" xmlns="http://www.w3.org/2000/svg">
<path d="M10.3464 17.2017L10.8164 16.8287L10.8132 16.8247L10.3464 17.2017ZM12.199 17.2017L11.7323 16.8247L11.729 16.8287L12.199 17.2017ZM11.2727 3.4C8.0297 3.4 5.4 6.05782 5.4 9.31517H6.6C6.6 6.71147 8.7015 4.6 11.2727 4.6V3.4ZM5.4 9.31517C5.4 9.97022 5.60221 10.6923 5.89557 11.4075C6.19222 12.1306 6.6002 12.8895 7.05172 13.6301C7.95483 15.1113 9.05978 16.5638 9.87969 17.5788L10.8132 16.8247C10.0085 15.8286 8.94026 14.4224 8.07629 13.0054C7.64428 12.2968 7.27025 11.5967 7.00578 10.952C6.73803 10.2993 6.6 9.7447 6.6 9.31517H5.4ZM9.87646 17.5747C10.2216 18.0096 10.7387 18.2471 11.2727 18.2471V17.0471C11.0942 17.0471 10.9273 16.9685 10.8164 16.8287L9.87646 17.5747ZM11.2727 18.2471C11.8068 18.2471 12.3239 18.0096 12.669 17.5747L11.729 16.8287C11.6181 16.9685 11.4512 17.0471 11.2727 17.0471V18.2471ZM12.6658 17.5788C13.4857 16.5638 14.5906 15.1113 15.4937 13.6301C15.9453 12.8895 16.3532 12.1306 16.6499 11.4075C16.9432 10.6923 17.1455 9.97022 17.1455 9.31517H15.9455C15.9455 9.7447 15.8074 10.2993 15.5397 10.952C15.2752 11.5967 14.9012 12.2968 14.4692 13.0054C13.6052 14.4224 12.5369 15.8286 11.7323 16.8247L12.6658 17.5788ZM17.1455 9.31517C17.1455 6.05782 14.5157 3.4 11.2727 3.4V4.6C13.844 4.6 15.9455 6.71147 15.9455 9.31517H17.1455ZM11.2727 6.14377C9.54027 6.14377 8.13612 7.56617 8.13612 9.3008H9.33612C9.33612 8.21983 10.2121 7.34377 11.2727 7.34377V6.14377ZM8.13612 9.3008C8.13612 11.0354 9.54027 12.4578 11.2727 12.4578V11.2578C10.2121 11.2578 9.33612 10.3818 9.33612 9.3008H8.13612ZM11.2727 12.4578C13.0052 12.4578 14.4093 11.0354 14.4093 9.3008H13.2093C13.2093 10.3818 12.3334 11.2578 11.2727 11.2578V12.4578ZM14.4093 9.3008C14.4093 7.56617 13.0052 6.14377 11.2727 6.14377V7.34377C12.3334 7.34377 13.2093 8.21983 13.2093 9.3008H14.4093Z" fill="#067891"/>
<circle cx="11" cy="11" r="10.4" stroke="#067891" stroke-width="1.2"/>
</svg>
