<svg width="19" height="19" viewBox="0 0 19 19" fill="none" xmlns="http://www.w3.org/2000/svg">
<path d="M9.68627 18.0791C9.68627 18.0791 9.68627 18.0194 9.68627 18.0791L7.23794 15.6308L7.29766 15.5711H8.96969V13.5407H5.38677C5.38677 13.5407 5.32706 13.5407 5.32706 13.481V9.95783H3.29674V11.6299L3.23702 11.6896L0.788696 9.24125V9.18153L3.23702 6.73321L3.29674 6.79292V8.46495H5.32706V4.82232C5.32706 4.82232 5.32706 4.7626 5.38677 4.7626H8.90997V2.73228H7.23794L7.17823 2.67257L9.62655 0.224243H9.68627L12.1346 2.67257L12.0749 2.73228H10.4029V4.7626H13.9261C13.9261 4.7626 13.9858 4.7626 13.9858 4.82232V8.34552H16.0161V6.67349L16.0758 6.61378L18.5241 9.0621V9.12182L16.0758 11.5701L16.0161 11.5104V9.8384H13.9858V13.3616C13.9858 13.3616 13.9858 13.4213 13.9261 13.4213H10.4029V15.4516H12.0749L12.1346 15.5113L9.68627 18.0791ZM5.86449 12.9436H13.508V5.30004H5.86449V12.9436Z" fill="black"/>
</svg>
