<svg width="21" height="27" viewBox="0 0 21 27" fill="none" xmlns="http://www.w3.org/2000/svg">
<path fill-rule="evenodd" clip-rule="evenodd" d="M0.874634 10.8601C0.874634 5.31344 5.34916 0.800003 10.848 0.800003C16.3468 0.800003 20.8213 5.31344 20.8213 10.8601C20.8213 14.9657 15.6729 21.9805 12.6 25.787C12.1688 26.3308 11.5218 26.6299 10.848 26.6299C10.1741 26.6299 9.52717 26.3308 9.09589 25.787C6.02303 21.9805 0.874634 14.9657 0.874634 10.8601ZM6.04944 10.8321C6.04944 8.16772 8.20566 5.99275 10.847 5.99275C13.4884 5.99275 15.6446 8.16772 15.6446 10.8321C15.6446 13.4964 13.4884 15.6714 10.847 15.6714C8.20566 15.6714 6.04944 13.4964 6.04944 10.8321Z" fill="#067891"/>
</svg>
