<svg width="21" height="27" viewBox="0 0 21 27" fill="none" xmlns="http://www.w3.org/2000/svg">
<path fill-rule="evenodd" clip-rule="evenodd" d="M0.874634 10.6574C0.874634 5.11077 5.34916 0.597336 10.848 0.597336C16.3468 0.597336 20.8213 5.11077 20.8213 10.6574C20.8213 14.763 15.6729 21.7778 12.6 25.5843C12.1688 26.1281 11.5218 26.4272 10.848 26.4272C10.1741 26.4272 9.52717 26.1281 9.09589 25.5843C6.02303 21.7778 0.874634 14.763 0.874634 10.6574ZM6.04943 10.6294C6.04943 7.96504 8.20566 5.79007 10.847 5.79007C13.4884 5.79007 15.6446 7.96504 15.6446 10.6294C15.6446 13.2937 13.4884 15.4687 10.847 15.4687C8.20566 15.4687 6.04943 13.2937 6.04943 10.6294Z" fill="#16324F"/>
</svg>
