<svg width="17" height="17" viewBox="0 0 17 17" fill="none" xmlns="http://www.w3.org/2000/svg">
<path d="M14.0891 11.0791C13.2588 11.0791 12.5119 11.4343 11.9817 12.0014L5.78578 8.9162C5.80709 8.77125 5.82176 8.62452 5.82176 8.47353C5.82176 8.32645 5.80779 8.18292 5.78753 8.04188L11.9743 4.99047C12.505 5.5621 13.2553 5.92092 14.0891 5.92092C15.6967 5.92092 17 4.59541 17 2.96046C17 1.32516 15.6967 0 14.0891 0C12.4815 0 11.1782 1.32516 11.1782 2.96046C11.1782 3.10754 11.1922 3.25072 11.2125 3.39211L5.02566 6.44352C4.49505 5.87189 3.74506 5.51307 2.91088 5.51307C1.30296 5.51307 0 6.83858 0 8.47353C0 10.1088 1.30296 11.434 2.91088 11.434C3.74122 11.434 4.48806 11.0787 5.01833 10.5117L11.2142 13.5969C11.1929 13.7415 11.1782 13.8885 11.1782 14.0395C11.1782 15.6748 12.4815 17 14.0891 17C15.6967 17 17 15.6748 17 14.0395C17 12.4042 15.6967 11.0791 14.0891 11.0791Z" fill="black"/>
</svg>
