<svg width="21" height="14" viewBox="0 0 21 14" fill="none" xmlns="http://www.w3.org/2000/svg">
<path d="M7.30315 6.72091L7.30307 6.7209L7.30314 6.72296C7.36077 8.25601 7.86301 9.73921 8.74868 10.9919C9.14674 11.5959 9.60757 12.1562 10.1235 12.6632C10.1416 12.6946 10.165 12.7225 10.1929 12.7456L10.4366 12.9868L10.4541 13.0041L10.4717 12.9868L10.738 12.7258L10.7455 12.7184V12.7079L10.7455 12.7078L10.7456 12.7073C10.7458 12.7069 10.7461 12.706 10.7467 12.7047C10.7482 12.702 10.7509 12.6982 10.7557 12.6927C10.7655 12.6816 10.7808 12.6677 10.8034 12.6473L10.8034 12.6473L10.8042 12.6465C11.3197 12.1374 11.7813 11.5765 12.1815 10.9727C13.0577 9.71529 13.559 8.23502 13.6271 6.70398L13.6271 6.70398L13.6271 6.70193C13.5694 5.16884 13.0672 3.68561 12.1815 2.43294C11.7586 1.80257 11.2749 1.2152 10.7373 0.679256L10.7373 0.679231L10.7363 0.678345L10.4927 0.4599L10.476 0.44495L10.4593 0.459891L10.193 0.698352L10.1847 0.705805V0.716977L10.1847 0.717094L10.1846 0.717554C10.1844 0.718024 10.1841 0.718871 10.1835 0.720158C10.182 0.722874 10.1793 0.726726 10.1745 0.732164C10.1647 0.743276 10.1494 0.757225 10.1268 0.777609L10.1268 0.777584L10.1258 0.778506C9.6141 1.29086 9.15293 1.85133 8.7487 2.45215C7.87249 3.70954 7.37121 5.18984 7.30315 6.72091ZM10.4024 1.449L10.4025 1.44908L10.4039 1.4471L10.4533 1.37944L10.4996 1.44884L10.4992 1.44909L10.5025 1.4525C11.8971 2.87087 12.7416 4.73903 12.8852 6.72291C12.8848 8.9798 11.3834 11.002 10.4974 11.995L10.4972 11.9949L10.4952 11.9978L10.4499 12.0658L10.4045 11.9978L10.4049 11.9976L10.4015 11.9941C9.00486 10.5757 8.1587 8.70649 8.01455 6.72111C8.01495 4.46423 9.51629 2.44205 10.4024 1.449Z" fill="#151515" stroke="black" stroke-width="0.05"/>
<path d="M10.2147 12.7246L10.2147 12.7247L10.2157 12.7256L10.4385 12.9249L10.4552 12.9398L10.4718 12.9249L10.6938 12.7264L10.6938 12.7265L10.6947 12.7255C11.2337 12.1909 11.7176 11.6034 12.1389 10.9718C13.0215 9.7251 13.5237 8.2492 13.5845 6.72291L13.5846 6.72291L13.5845 6.72091C13.5237 5.19462 13.0215 3.71872 12.1389 2.47202C11.7176 1.84045 11.2337 1.25291 10.6947 0.718275L10.6947 0.718252L10.6938 0.717389L10.4718 0.518961L10.4552 0.504062L10.4385 0.518961L10.2166 0.717389L10.2165 0.717352L10.2155 0.71846C9.6824 1.25834 9.19912 1.8452 8.77151 2.47192C7.88885 3.71864 7.38668 5.19458 7.32585 6.72091L7.32577 6.72091L7.32585 6.7229C7.38659 8.24882 7.88842 9.7244 8.77058 10.971C9.19342 11.6014 9.67712 12.1887 10.2147 12.7246ZM10.3616 1.42888L10.3616 1.42891L10.3625 1.42779L10.4534 1.31321L10.5444 1.42779L10.5443 1.42783L10.5456 1.42918C11.2769 2.2231 12.9331 4.30566 12.9331 6.72104C12.9331 9.13636 11.2544 11.2179 10.5453 12.0132L10.5453 12.0132L10.5444 12.0143L10.4534 12.1289L10.3625 12.0143L10.3625 12.0143L10.3613 12.0129C9.62998 11.219 7.97372 9.13642 7.97372 6.72104C7.97372 4.30573 9.65244 2.22415 10.3616 1.42888Z" fill="#151515" stroke="black" stroke-width="0.05"/>
<path d="M10.2596 12.6848L10.2602 12.6854L10.4343 12.8446L10.4512 12.8601L10.468 12.8446L10.6421 12.6854L10.6421 12.6854L10.6429 12.6847C11.1736 12.1558 11.6499 11.575 12.0645 10.9509C12.933 9.71364 13.4269 8.25254 13.4874 6.7421L13.4874 6.74211L13.4874 6.74005C13.4235 5.23032 12.9299 3.77022 12.0646 2.53147C11.6579 1.90133 11.1809 1.31953 10.6426 0.797327L10.6426 0.797319L10.6421 0.796826L10.468 0.637562L10.4512 0.62212L10.4343 0.637562L10.2602 0.796826L10.2602 0.796809L10.2595 0.79756C9.72869 1.32637 9.25243 1.90721 8.83787 2.53131C7.96937 3.76856 7.4754 5.22967 7.41496 6.74011L7.41488 6.7401L7.41496 6.74216C7.47879 8.2519 7.97242 9.71201 8.83778 10.9508C9.24611 11.5796 9.72298 12.1612 10.2596 12.6848ZM10.6068 12.0338L10.6064 12.0343L10.4502 12.2123L10.2954 12.0529C9.58619 11.2574 7.90792 9.15609 7.90792 6.72109C7.90792 4.28588 9.56391 2.18435 10.2952 1.38945L10.4521 1.22864L10.6074 1.3707C11.3169 2.16656 12.9944 4.2675 12.9944 6.70194C12.9944 9.13742 11.338 11.2392 10.6068 12.0338Z" fill="#151515" stroke="black" stroke-width="0.05"/>
<path d="M15.1321 6.105C15.0665 6.15429 14.9907 6.18819 14.9102 6.20421C14.8596 6.20616 14.8093 6.19642 14.7631 6.17574C14.7169 6.15506 14.6761 6.124 14.6439 6.08498C14.6127 6.05411 14.5887 6.01672 14.5737 5.9755C14.5586 5.93427 14.5529 5.89023 14.5569 5.84652C14.5592 5.80446 14.5703 5.76334 14.5893 5.72575C14.6083 5.68815 14.6349 5.6549 14.6674 5.62808C16.1855 4.4961 17.9466 3.73357 19.8108 3.401L20.1877 3.36096L20.2321 3.67949V3.73954M15.1321 6.105L12.3191 13.4033H12.3602C13.1473 13.256 13.919 13.0364 14.6657 12.7471C16.1999 12.2133 17.568 11.2878 18.6342 10.0622C19.5701 8.851 20.1329 7.39334 20.2538 5.86741M15.1321 6.105C16.4061 5.14055 17.8731 4.46225 19.4331 4.11638M15.1321 6.105L19.4331 4.11638M20.2321 3.73954C20.305 4.44664 20.3123 5.15897 20.2538 5.86741M20.2321 3.73954L20.2569 3.73697C20.257 3.7374 20.257 3.73782 20.2571 3.73825M20.2321 3.73954H20.2571V3.73825M20.2538 5.86741L20.2787 5.86947C20.2787 5.86945 20.2787 5.86943 20.2787 5.86942C20.1575 7.40018 19.5929 8.86245 18.654 10.0775L18.6531 10.0787L18.6531 10.0786C17.5841 11.3074 16.2125 12.2353 14.6743 12.7706C13.9264 13.0603 13.1533 13.2804 12.3648 13.4279L12.3602 13.4287V13.4283H12.2941H12.2691V13.4275M20.2538 5.86741L20.2787 5.86938L12.2691 13.4275M12.2691 13.4275C12.1897 13.4252 12.1128 13.3975 12.0499 13.3482C11.9802 13.2935 11.9322 13.2157 11.9145 13.1289L11.9144 13.1283L11.9144 13.1283C11.8998 13.0462 11.917 12.9617 11.9625 12.8918L11.9639 12.8896L11.964 12.8897C12.0242 12.8159 12.107 12.764 12.1995 12.7419L12.2053 12.7405V12.7412C12.2057 12.7411 12.2063 12.7411 12.207 12.741L12.2166 12.7396C12.2249 12.7384 12.2368 12.7365 12.252 12.7339C12.2824 12.7286 12.3262 12.7207 12.3819 12.7096C12.4934 12.6876 12.6525 12.6533 12.8485 12.6047C13.2405 12.5073 13.7799 12.3522 14.3802 12.1215C15.581 11.6599 17.0227 10.8964 18.0166 9.68833C19.1675 8.11579 19.7093 6.17927 19.5414 4.23776L19.5412 4.23561H19.5413V4.1254L19.4377 4.14097C17.8815 4.48613 16.4181 5.16283 15.1472 6.12493L15.1472 6.12499C15.0786 6.17652 14.9992 6.21198 14.9151 6.22873L14.9112 6.22951L14.9112 6.2292C14.8568 6.23129 14.8026 6.22081 14.7529 6.19856C14.7036 6.17648 14.66 6.1434 14.6254 6.10187C14.592 6.06857 14.5664 6.02836 14.5502 5.98407C14.5339 5.93952 14.5277 5.89193 14.5319 5.84469C14.5345 5.79933 14.5465 5.755 14.567 5.71446C14.5876 5.67379 14.6163 5.63781 14.6515 5.6088L14.6524 5.60801L14.6525 5.60804C16.1737 4.47374 17.9384 3.70964 19.8064 3.37638L19.8082 3.37607L19.8082 3.37613L20.185 3.3361L20.2091 3.33355L20.2124 3.35751L20.2568 3.67604L20.2573 3.67949H20.2571V3.73825M12.2691 13.4275L20.2571 3.73825M19.4331 4.11638L19.5413 4.10012L19.4331 4.11638Z" fill="#151515" stroke="black" stroke-width="0.05"/>
<path d="M12.0085 12.9103C12.0618 12.843 12.138 12.7975 12.2226 12.7825L12.227 12.7817V12.782C12.2274 12.782 12.228 12.7819 12.2287 12.7818L12.2383 12.7805C12.2467 12.7792 12.2586 12.7773 12.2739 12.7747C12.3045 12.7695 12.3485 12.7615 12.4045 12.7505C12.5166 12.7284 12.6765 12.694 12.8736 12.6452C13.2677 12.5476 13.8098 12.3919 14.4127 12.16C15.6189 11.696 17.0661 10.9277 18.0599 9.71011C19.2116 8.13028 19.7532 6.18727 19.5848 4.23947L19.5846 4.23731H19.5847V4.08943L19.4413 4.12243L19.441 4.12248C17.8773 4.46576 16.4061 5.14256 15.128 6.10665L15.1277 6.10681C15.0658 6.15248 14.993 6.18138 14.9166 6.1907L14.9142 6.191L14.9142 6.19088C14.8684 6.1919 14.823 6.18274 14.7813 6.16407C14.74 6.14563 14.7033 6.11837 14.6738 6.08421C14.6428 6.05632 14.6183 6.02201 14.602 5.98366C14.5855 5.94479 14.5777 5.90274 14.5794 5.86053C14.581 5.81832 14.592 5.77699 14.6115 5.73952C14.631 5.70205 14.6586 5.66937 14.6922 5.64382L14.6924 5.64365C16.2158 4.51302 17.9795 3.74932 19.8463 3.41204L19.8476 3.41181L19.8476 3.41185L20.1583 3.37181L20.1823 3.36871L20.1862 3.39267L20.2306 3.67117L20.2307 3.67231L20.2307 3.67232C20.3116 4.39369 20.3189 5.12141 20.2525 5.84426C20.1317 7.3695 19.5675 8.82612 18.6295 10.0349L18.6285 10.0362L18.6285 10.0361C17.5565 11.2464 16.1956 12.1655 14.6726 12.7078C13.9253 12.9998 13.1519 13.2199 12.3629 13.3652L12.36 13.3657L12.36 13.3655C12.3442 13.3665 12.3379 13.3704 12.3328 13.3737C12.3322 13.3742 12.3314 13.3747 12.3306 13.3753C12.3242 13.3798 12.3124 13.388 12.2946 13.3882M12.0085 12.9103C12.0086 12.9102 12.0088 12.91 12.0089 12.9099L12.0277 12.9263L12.0081 12.9108C12.0082 12.9107 12.0083 12.9105 12.0085 12.9103ZM12.0085 12.9103C11.9825 12.9401 11.9644 12.9759 11.9558 13.0144C11.9472 13.0529 11.9483 13.0929 11.9591 13.1308C11.9756 13.2064 12.0183 13.2737 12.0797 13.3208C12.1411 13.368 12.2173 13.3918 12.2946 13.3882M12.2946 13.3882C12.2944 13.3882 12.2942 13.3882 12.294 13.3882V13.3632L12.2952 13.3882C12.295 13.3882 12.2948 13.3882 12.2946 13.3882Z" fill="#151515" stroke="black" stroke-width="0.05"/>
<path d="M12.3046 13.3282L12.2942 13.3282C12.2344 13.3282 12.1762 13.3091 12.1281 13.2737L12.1429 13.2536L12.1281 13.2737C12.0799 13.2383 12.0444 13.1884 12.0266 13.1313L12.0255 13.1277L12.0258 13.1277C12.0206 13.094 12.0223 13.0597 12.0307 13.0267C12.0391 12.9938 12.0541 12.9628 12.0747 12.9358C12.0954 12.9088 12.1213 12.8861 12.1509 12.8693C12.1804 12.8525 12.2131 12.8419 12.2469 12.838L12.2498 12.8376V12.8377C12.2502 12.8377 12.2507 12.8376 12.2515 12.8375L12.2612 12.8362C12.2696 12.8349 12.2816 12.833 12.297 12.8304C12.3278 12.8252 12.372 12.8172 12.4283 12.8061C12.541 12.7839 12.702 12.7494 12.9002 12.7003C13.2968 12.602 13.8424 12.4451 14.4495 12.2107C15.6641 11.7417 17.1224 10.9634 18.1271 9.72578C19.2797 8.13792 19.8281 6.19097 19.6737 4.23493C19.6737 4.2349 19.6737 4.23487 19.6737 4.23483L19.6544 4.00248L19.4161 4.05621L12.3046 13.3282ZM12.3046 13.3282L12.3119 13.3208M12.3046 13.3282L12.3119 13.3208M12.3119 13.3208C12.3227 13.3099 12.3312 13.297 12.3367 13.2827C12.3396 13.2755 12.3416 13.2681 12.3429 13.2605C13.129 13.1409 13.8981 12.9279 14.6337 12.6259C16.148 12.0885 17.5014 11.1763 18.5677 9.97432L18.5677 9.97435L18.5687 9.9731C19.5056 8.77203 20.0699 7.32262 20.1918 5.80419C20.2585 5.08772 20.2512 4.36627 20.1699 3.65129L20.17 3.65128L20.1696 3.64914L20.1252 3.43069L20.1204 3.4071L20.0967 3.411L19.853 3.45103L19.8526 3.4511M12.3119 13.3208L19.8526 3.4511M19.8526 3.4511C18.0024 3.78686 16.2543 4.54352 14.7432 5.66259C14.7155 5.68251 14.6926 5.70829 14.676 5.7381C14.6593 5.76796 14.6495 5.80113 14.6472 5.83523C14.6449 5.86934 14.6501 5.90353 14.6625 5.93538C14.6747 5.96668 14.6935 5.99494 14.7177 6.01824C14.7407 6.04675 14.77 6.0695 14.8033 6.08467C14.8372 6.10007 14.8742 6.1072 14.9113 6.1055M19.8526 3.4511L14.9113 6.1055M14.9113 6.1055C14.9735 6.10319 15.0331 6.08016 15.0807 6.04011M14.9113 6.1055C14.9113 6.1055 14.9112 6.1055 14.9112 6.1055L15.0807 6.04011M15.0807 6.04011C16.3736 5.08697 17.8496 4.41152 19.4161 4.05621L15.0807 6.04011Z" fill="#151515" stroke="black" stroke-width="0.05"/>
<path d="M8.54411 13.4269L8.54405 13.4273H8.54841H8.58901C8.67198 13.4349 8.75505 13.4137 8.82423 13.3672C8.89375 13.3205 8.94497 13.2512 8.96919 13.1711L8.96927 13.1711L8.96969 13.1692C8.97927 13.1252 8.97997 13.0798 8.97174 13.0356C8.96355 12.9916 8.94669 12.9496 8.92214 12.9122C8.89722 12.8695 8.86232 12.8334 8.82042 12.8071C8.77831 12.7807 8.73041 12.765 8.68084 12.7612L8.68085 12.7611H8.68028L8.67871 12.7609L8.66987 12.7595L8.63602 12.7538C8.60655 12.7485 8.56364 12.7406 8.50864 12.7295C8.39865 12.7074 8.24041 12.6731 8.04487 12.6244C7.65376 12.527 7.1136 12.3719 6.51195 12.1411C5.30834 11.6794 3.8612 10.9159 2.86783 9.70834C1.73724 8.12582 1.19761 6.19684 1.34293 4.25737L1.343 4.25738V4.2555V4.16621L1.42359 4.1808C2.9754 4.52583 4.43744 5.19296 5.71501 6.13897C5.74699 6.17583 5.78722 6.20464 5.83244 6.22306C5.87819 6.24168 5.92772 6.24912 5.97691 6.24476C6.02673 6.24485 6.07609 6.2351 6.12214 6.21606C6.16856 6.19687 6.2107 6.16862 6.24609 6.13297C6.28148 6.09732 6.30942 6.05497 6.32827 6.00841C6.34713 5.96185 6.35652 5.91199 6.3559 5.86176L6.35592 5.86176L6.35586 5.86067C6.3533 5.81516 6.34136 5.77067 6.32078 5.73C6.30021 5.68933 6.27144 5.65336 6.23629 5.62435L6.23631 5.62432L6.23531 5.62358C4.70837 4.48586 2.93543 3.72291 1.05946 3.39626L1.05947 3.39622L1.05798 3.39605L0.702896 3.35602L0.678858 3.35331L0.675359 3.37724L0.63186 3.67477C0.519104 4.40105 0.511725 5.13979 0.609951 5.86817C0.726841 7.39971 1.29122 8.86313 2.23295 10.0766L2.23292 10.0766L2.23389 10.0777C3.30573 11.3027 4.67594 12.23 6.21163 12.7695C6.96476 13.0674 7.74629 13.2876 8.54411 13.4269Z" fill="#151515" stroke="black" stroke-width="0.05"/>
<path d="M5.99628 6.21005C6.08659 6.20695 6.17211 6.16876 6.23469 6.10359C6.26464 6.07513 6.28807 6.04051 6.30337 6.00212C6.31875 5.96353 6.32553 5.92207 6.32327 5.88059C6.321 5.83912 6.30972 5.79864 6.29023 5.76197C6.27074 5.72529 6.2435 5.6933 6.2104 5.66821L6.2102 5.66806C4.68689 4.53743 2.92313 3.77373 1.0563 3.43645L1.05631 3.43642L1.05505 3.43626L0.74436 3.39623L0.720296 3.39312L0.716477 3.41709L0.672092 3.69558L0.672089 3.69558L0.672039 3.69593C0.56759 4.41609 0.560228 5.14701 0.650151 5.86913C0.776505 7.39347 1.3424 8.84841 2.27923 10.0575L2.27919 10.0576L2.28028 10.0588C3.35218 11.269 4.71306 12.1881 6.23606 12.7304C6.98046 13.0294 7.75406 13.2498 8.54427 13.3879L8.54421 13.3883H8.54858H8.61393C8.68878 13.3929 8.76299 13.372 8.8245 13.3291C8.88622 13.286 8.93148 13.2232 8.95286 13.1511L8.95288 13.1511L8.95312 13.1501C8.96282 13.1121 8.96342 13.0723 8.95485 13.034C8.9463 12.9957 8.92886 12.9601 8.90397 12.9298C8.85061 12.8623 8.77432 12.8167 8.68957 12.8017L8.68964 12.8013H8.6865L8.68489 12.8011L8.67602 12.7997L8.64204 12.7941C8.61246 12.7891 8.56935 12.7813 8.51409 12.7705C8.40357 12.7489 8.24452 12.7153 8.04799 12.6672C7.6549 12.5711 7.11201 12.4173 6.50762 12.1867C5.29847 11.7252 3.8457 10.9569 2.85236 9.7294C1.71083 8.14457 1.17029 6.20534 1.32742 4.25851L1.3275 4.25852V4.2565V4.10862L1.47096 4.14162L1.47098 4.14162C3.02851 4.4983 4.49535 5.17348 5.7792 6.12467C5.80682 6.15352 5.84033 6.17609 5.87746 6.19085C5.91519 6.20584 5.95575 6.21239 5.99628 6.21005ZM5.99628 6.21005C5.99639 6.21004 5.9965 6.21004 5.9966 6.21003L5.99513 6.18507L5.99597 6.21006C5.99607 6.21006 5.99618 6.21005 5.99628 6.21005Z" fill="#151515" stroke="black" stroke-width="0.05"/>
<path d="M8.5694 13.3282L8.56947 13.3279C7.78726 13.1929 7.02067 12.9794 6.28134 12.6905C4.76587 12.1554 3.41185 11.2427 2.34718 10.0388L2.34596 10.0374L2.34601 10.0374C1.42532 8.82684 0.860866 7.38331 0.71622 5.86934C0.625115 5.15361 0.632475 4.42877 0.738096 3.71503L0.738348 3.71332L0.738406 3.71334L0.786272 3.49489L0.791347 3.47173L0.814745 3.47557L1.05843 3.51561L1.05884 3.51568L1.05884 3.51568C2.90895 3.85143 4.65709 4.60808 6.16816 5.72714C6.19586 5.74706 6.21883 5.77284 6.23543 5.80265C6.25206 5.83251 6.26189 5.86568 6.26422 5.89978C6.26655 5.93388 6.26132 5.96808 6.2489 5.99993C6.2365 6.03174 6.21723 6.06043 6.19247 6.08394M8.5694 13.3282L8.87757 13.0128C8.86917 12.9826 8.85452 12.9546 8.8346 12.9304C8.81711 12.8996 8.79237 12.8735 8.76251 12.8544C8.73301 12.8355 8.69941 12.824 8.66455 12.8208L8.66181 12.82L8.65138 12.8174C8.64308 12.8155 8.63126 12.813 8.61629 12.8099C8.60821 12.8083 8.59917 12.8064 8.58918 12.8043C8.56198 12.7987 8.5278 12.7917 8.48704 12.7831C8.37568 12.7595 8.21559 12.7241 8.01781 12.6745C7.62221 12.5753 7.0759 12.419 6.46741 12.1858C5.25007 11.7193 3.78638 10.946 2.78171 9.70846C1.62511 8.12259 1.07627 6.17419 1.23507 4.21777L1.25363 4.01428L1.48801 4.11921L1.48779 4.1197L1.49284 4.12081C3.06286 4.46682 4.5413 5.14289 5.82999 6.1041C5.8526 6.1258 5.87929 6.1428 5.90852 6.15413C5.93827 6.16567 5.97004 6.17108 6.00193 6.17006L6.00193 6.17009L6.00329 6.16997C6.07434 6.16381 6.14113 6.13344 6.19247 6.08394M8.5694 13.3282H8.57372H8.61302C8.67733 13.3318 8.74068 13.3113 8.79063 13.2706C8.84072 13.2298 8.87369 13.1716 8.88302 13.1077L8.5694 13.3282ZM6.19247 6.08394C6.19249 6.08391 6.19252 6.08389 6.19254 6.08386L6.17519 6.06587L6.19239 6.08401C6.19242 6.08398 6.19244 6.08396 6.19247 6.08394Z" fill="#151515" stroke="black" stroke-width="0.05"/>
</svg>
