<svg width="19" height="18" viewBox="0 0 19 18" fill="none" xmlns="http://www.w3.org/2000/svg">
<mask id="path-1-outside-1" maskUnits="userSpaceOnUse" x="-0.868164" y="-0.295044" width="20" height="18" fill="black">
<rect fill="white" x="-0.868164" y="-0.295044" width="20" height="18"/>
<path d="M10.767 17.176C10.7668 17.176 10.7668 17.176 10.767 17.176H9.6961C9.28514 17.1758 8.94031 16.8678 8.89392 16.4595L8.23477 10.4012C7.80449 10.1815 7.5038 9.75264 7.45192 9.26621L7.0544 6.25404C7.04646 6.1863 7.0428 6.12242 7.04301 6.05854C7.04402 5.14956 7.78496 4.40923 8.69496 4.40923H9.5962C8.86544 4.14231 8.34219 3.44003 8.34219 2.61813C8.34341 1.56918 9.19746 0.715738 10.246 0.715738C11.2962 0.715738 12.1504 1.56999 12.1504 2.61975C12.1504 3.44105 11.6278 4.14252 10.8974 4.40903H11.796C11.8581 4.40903 11.9201 4.41249 11.9818 4.41961C12.8875 4.52194 13.5412 5.34262 13.4388 6.24875L13.036 9.27496C12.9799 9.76342 12.6702 10.1917 12.23 10.4049L11.5696 16.4579C11.5228 16.8678 11.178 17.1758 10.767 17.176ZM8.69638 4.95364C8.08463 4.95364 7.58782 5.44984 7.58721 6.05996C7.58701 6.10289 7.58945 6.145 7.59433 6.18711L7.99206 9.20192C8.02909 9.54818 8.25979 9.84276 8.58103 9.95954C8.67848 9.99494 8.74724 10.0828 8.75863 10.186L9.43467 16.3995C9.44952 16.5313 9.56203 16.6318 9.6961 16.6318H10.7666C10.9007 16.6318 11.0134 16.5313 11.0284 16.3981L11.7061 10.1858C11.7177 10.0804 11.7893 9.99128 11.8896 9.9573C12.2182 9.84663 12.456 9.55245 12.4957 9.20823L12.8985 6.18243C12.9664 5.57984 12.528 5.02932 11.9201 4.96056C11.8786 4.95588 11.8371 4.95364 11.7958 4.95364H8.69638ZM10.246 1.26035C9.49713 1.26035 8.88721 1.86966 8.8864 2.61853C8.8864 3.36842 9.49632 3.97915 10.2462 3.97976C10.9963 3.97976 11.6062 3.36964 11.6062 2.61996C11.606 1.87027 10.9959 1.26035 10.246 1.26035ZM16.203 17.1742C16.2028 17.1742 16.2018 17.1742 16.2016 17.1742H15.4104C15.0719 17.1742 14.7887 16.9209 14.751 16.5852L14.2803 13.4498C13.9633 13.2738 13.7495 12.956 13.709 12.5878L13.4175 10.388C13.4114 10.3363 13.4087 10.2881 13.4087 10.2399C13.4083 9.8979 13.5412 9.57625 13.783 9.33395C14.0247 9.09186 14.3464 8.9582 14.6886 8.95779H15.0318C14.6259 8.69677 14.3563 8.24127 14.3563 7.72412C14.358 6.91787 15.0145 6.26218 15.8201 6.26218C16.6272 6.26218 17.2837 6.91889 17.2837 7.72574C17.2837 8.24228 17.0149 8.69698 16.6097 8.95759H16.9549C17.0025 8.95759 17.0503 8.96043 17.0975 8.96572C17.4379 9.00417 17.7426 9.17262 17.9558 9.44035C18.1691 9.70808 18.2653 10.0425 18.2266 10.3827L17.9302 12.601C17.8877 12.9705 17.6588 13.2964 17.3313 13.4675L16.8605 16.595C16.8239 16.9209 16.5407 17.1742 16.203 17.1742ZM14.689 9.5022C14.4922 9.5024 14.3073 9.5791 14.1684 9.71846C14.0292 9.85761 13.9529 10.0427 13.9531 10.2395C13.9531 10.2667 13.9545 10.2938 13.9574 10.3202L14.2493 12.5223C14.274 12.7477 14.4172 12.9326 14.6239 13.0106C14.716 13.0453 14.7821 13.1273 14.797 13.2248L15.2908 16.5142C15.2987 16.5844 15.3493 16.6296 15.4098 16.6296H16.203C16.2634 16.6296 16.3141 16.5842 16.3208 16.5242L16.8158 13.2374C16.8308 13.1365 16.9012 13.0527 16.9978 13.0201C17.2104 12.9483 17.3646 12.7575 17.3903 12.5339L17.6867 10.316C17.7083 10.1258 17.6529 9.9335 17.5302 9.77949C17.4076 9.62549 17.2324 9.52885 17.0367 9.50668C17.0098 9.50362 16.9824 9.5022 16.9551 9.5022H14.689ZM15.8201 6.8068C15.3141 6.8068 14.9014 7.21856 14.9006 7.72473C14.9006 8.2315 15.3131 8.64469 15.8203 8.64551C16.3269 8.64551 16.7393 8.23292 16.7393 7.72595C16.7393 7.21897 16.3269 6.8068 15.8201 6.8068ZM3.98853 17.1651C3.98832 17.1651 3.98629 17.1651 3.98608 17.1651H3.25573C2.84315 17.1651 2.49791 16.8568 2.45172 16.4485L2.18827 13.5047H0.986127C0.942184 13.5039 0.90292 13.4998 0.864266 13.4923C0.517397 13.4211 0.294424 13.0836 0.365019 12.7392L0.778006 11.0168C0.347523 10.9119 0.0694172 10.4954 0.143877 10.0596L1.1853 5.6425C1.33483 5.00003 1.8532 4.52051 2.50584 4.42164C2.54999 4.41533 2.74549 4.41187 2.99146 4.40984C2.2491 4.14923 1.71547 3.44125 1.71547 2.6108C1.71547 1.55982 2.57053 0.704956 3.62152 0.704956C4.6723 0.704956 5.52736 1.56002 5.52736 2.6108C5.52736 3.44085 4.99414 4.14862 4.25219 4.40964C4.68206 4.41269 4.72417 4.419 4.74106 4.42144C5.39513 4.52051 5.9137 5.00003 6.06262 5.64351L7.09875 10.0958C7.1547 10.5247 6.87557 10.921 6.46523 11.0203L6.87924 12.7316C6.88961 12.7799 6.89348 12.8201 6.89429 12.8604C6.89775 13.214 6.61435 13.5029 6.26281 13.5061H5.04765L4.79192 16.4414C4.74452 16.857 4.39928 17.1651 3.98853 17.1651ZM3.9869 16.6206H3.98853C4.12259 16.6206 4.2351 16.5201 4.25036 16.3869L4.52704 13.2107C4.53945 13.0702 4.65724 12.9621 4.79823 12.9621H6.26036C6.30919 12.9617 6.35069 12.9194 6.35008 12.8679L5.85511 10.8128C5.83212 10.7178 5.86182 10.6177 5.93303 10.5507C6.00423 10.4836 6.10595 10.46 6.19933 10.4887C6.23331 10.4989 6.26932 10.5021 6.30533 10.4974C6.46645 10.4763 6.58038 10.3282 6.55922 10.1673L5.53286 5.7668C5.43439 5.34161 5.092 5.02505 4.6607 4.95974C4.61716 4.95649 4.24649 4.95201 3.64267 4.95201C3.0234 4.95201 2.63096 4.95669 2.57623 4.96097C2.15653 5.02464 1.81434 5.34161 1.71547 5.76639L0.677099 10.1679C0.653296 10.3113 0.76112 10.4639 0.921229 10.4913C0.948491 10.495 0.959476 10.4956 0.970259 10.4956C0.995282 10.4956 1.0201 10.4919 1.04391 10.4846C1.13708 10.4561 1.2386 10.4799 1.3098 10.5469C1.38101 10.6138 1.41071 10.7135 1.38793 10.8085L0.896409 12.8572C0.89173 12.8812 0.903937 12.9062 0.911871 12.9182C0.919805 12.9304 0.938319 12.9516 0.971276 12.9583C0.975955 12.9593 0.983686 12.9601 0.990807 12.9601H2.43728C2.57806 12.9601 2.69586 13.0677 2.70827 13.2081L2.99308 16.3934C3.00753 16.5201 3.12003 16.6206 3.2541 16.6206H3.9869ZM3.62152 1.24937C2.87082 1.24937 2.25988 1.8601 2.25988 2.6108C2.25988 3.36171 2.87082 3.97244 3.62152 3.97244C4.37222 3.97244 4.98295 3.36171 4.98295 2.6108C4.98316 1.8601 4.37242 1.24937 3.62152 1.24937Z"/>
</mask>
<path d="M10.767 17.176C10.7668 17.176 10.7668 17.176 10.767 17.176H9.6961C9.28514 17.1758 8.94031 16.8678 8.89392 16.4595L8.23477 10.4012C7.80449 10.1815 7.5038 9.75264 7.45192 9.26621L7.0544 6.25404C7.04646 6.1863 7.0428 6.12242 7.04301 6.05854C7.04402 5.14956 7.78496 4.40923 8.69496 4.40923H9.5962C8.86544 4.14231 8.34219 3.44003 8.34219 2.61813C8.34341 1.56918 9.19746 0.715738 10.246 0.715738C11.2962 0.715738 12.1504 1.56999 12.1504 2.61975C12.1504 3.44105 11.6278 4.14252 10.8974 4.40903H11.796C11.8581 4.40903 11.9201 4.41249 11.9818 4.41961C12.8875 4.52194 13.5412 5.34262 13.4388 6.24875L13.036 9.27496C12.9799 9.76342 12.6702 10.1917 12.23 10.4049L11.5696 16.4579C11.5228 16.8678 11.178 17.1758 10.767 17.176ZM8.69638 4.95364C8.08463 4.95364 7.58782 5.44984 7.58721 6.05996C7.58701 6.10289 7.58945 6.145 7.59433 6.18711L7.99206 9.20192C8.02909 9.54818 8.25979 9.84276 8.58103 9.95954C8.67848 9.99494 8.74724 10.0828 8.75863 10.186L9.43467 16.3995C9.44952 16.5313 9.56203 16.6318 9.6961 16.6318H10.7666C10.9007 16.6318 11.0134 16.5313 11.0284 16.3981L11.7061 10.1858C11.7177 10.0804 11.7893 9.99128 11.8896 9.9573C12.2182 9.84663 12.456 9.55245 12.4957 9.20823L12.8985 6.18243C12.9664 5.57984 12.528 5.02932 11.9201 4.96056C11.8786 4.95588 11.8371 4.95364 11.7958 4.95364H8.69638ZM10.246 1.26035C9.49713 1.26035 8.88721 1.86966 8.8864 2.61853C8.8864 3.36842 9.49632 3.97915 10.2462 3.97976C10.9963 3.97976 11.6062 3.36964 11.6062 2.61996C11.606 1.87027 10.9959 1.26035 10.246 1.26035ZM16.203 17.1742C16.2028 17.1742 16.2018 17.1742 16.2016 17.1742H15.4104C15.0719 17.1742 14.7887 16.9209 14.751 16.5852L14.2803 13.4498C13.9633 13.2738 13.7495 12.956 13.709 12.5878L13.4175 10.388C13.4114 10.3363 13.4087 10.2881 13.4087 10.2399C13.4083 9.8979 13.5412 9.57625 13.783 9.33395C14.0247 9.09186 14.3464 8.9582 14.6886 8.95779H15.0318C14.6259 8.69677 14.3563 8.24127 14.3563 7.72412C14.358 6.91787 15.0145 6.26218 15.8201 6.26218C16.6272 6.26218 17.2837 6.91889 17.2837 7.72574C17.2837 8.24228 17.0149 8.69698 16.6097 8.95759H16.9549C17.0025 8.95759 17.0503 8.96043 17.0975 8.96572C17.4379 9.00417 17.7426 9.17262 17.9558 9.44035C18.1691 9.70808 18.2653 10.0425 18.2266 10.3827L17.9302 12.601C17.8877 12.9705 17.6588 13.2964 17.3313 13.4675L16.8605 16.595C16.8239 16.9209 16.5407 17.1742 16.203 17.1742ZM14.689 9.5022C14.4922 9.5024 14.3073 9.5791 14.1684 9.71846C14.0292 9.85761 13.9529 10.0427 13.9531 10.2395C13.9531 10.2667 13.9545 10.2938 13.9574 10.3202L14.2493 12.5223C14.274 12.7477 14.4172 12.9326 14.6239 13.0106C14.716 13.0453 14.7821 13.1273 14.797 13.2248L15.2908 16.5142C15.2987 16.5844 15.3493 16.6296 15.4098 16.6296H16.203C16.2634 16.6296 16.3141 16.5842 16.3208 16.5242L16.8158 13.2374C16.8308 13.1365 16.9012 13.0527 16.9978 13.0201C17.2104 12.9483 17.3646 12.7575 17.3903 12.5339L17.6867 10.316C17.7083 10.1258 17.6529 9.9335 17.5302 9.77949C17.4076 9.62549 17.2324 9.52885 17.0367 9.50668C17.0098 9.50362 16.9824 9.5022 16.9551 9.5022H14.689ZM15.8201 6.8068C15.3141 6.8068 14.9014 7.21856 14.9006 7.72473C14.9006 8.2315 15.3131 8.64469 15.8203 8.64551C16.3269 8.64551 16.7393 8.23292 16.7393 7.72595C16.7393 7.21897 16.3269 6.8068 15.8201 6.8068ZM3.98853 17.1651C3.98832 17.1651 3.98629 17.1651 3.98608 17.1651H3.25573C2.84315 17.1651 2.49791 16.8568 2.45172 16.4485L2.18827 13.5047H0.986127C0.942184 13.5039 0.90292 13.4998 0.864266 13.4923C0.517397 13.4211 0.294424 13.0836 0.365019 12.7392L0.778006 11.0168C0.347523 10.9119 0.0694172 10.4954 0.143877 10.0596L1.1853 5.6425C1.33483 5.00003 1.8532 4.52051 2.50584 4.42164C2.54999 4.41533 2.74549 4.41187 2.99146 4.40984C2.2491 4.14923 1.71547 3.44125 1.71547 2.6108C1.71547 1.55982 2.57053 0.704956 3.62152 0.704956C4.6723 0.704956 5.52736 1.56002 5.52736 2.6108C5.52736 3.44085 4.99414 4.14862 4.25219 4.40964C4.68206 4.41269 4.72417 4.419 4.74106 4.42144C5.39513 4.52051 5.9137 5.00003 6.06262 5.64351L7.09875 10.0958C7.1547 10.5247 6.87557 10.921 6.46523 11.0203L6.87924 12.7316C6.88961 12.7799 6.89348 12.8201 6.89429 12.8604C6.89775 13.214 6.61435 13.5029 6.26281 13.5061H5.04765L4.79192 16.4414C4.74452 16.857 4.39928 17.1651 3.98853 17.1651ZM3.9869 16.6206H3.98853C4.12259 16.6206 4.2351 16.5201 4.25036 16.3869L4.52704 13.2107C4.53945 13.0702 4.65724 12.9621 4.79823 12.9621H6.26036C6.30919 12.9617 6.35069 12.9194 6.35008 12.8679L5.85511 10.8128C5.83212 10.7178 5.86182 10.6177 5.93303 10.5507C6.00423 10.4836 6.10595 10.46 6.19933 10.4887C6.23331 10.4989 6.26932 10.5021 6.30533 10.4974C6.46645 10.4763 6.58038 10.3282 6.55922 10.1673L5.53286 5.7668C5.43439 5.34161 5.092 5.02505 4.6607 4.95974C4.61716 4.95649 4.24649 4.95201 3.64267 4.95201C3.0234 4.95201 2.63096 4.95669 2.57623 4.96097C2.15653 5.02464 1.81434 5.34161 1.71547 5.76639L0.677099 10.1679C0.653296 10.3113 0.76112 10.4639 0.921229 10.4913C0.948491 10.495 0.959476 10.4956 0.970259 10.4956C0.995282 10.4956 1.0201 10.4919 1.04391 10.4846C1.13708 10.4561 1.2386 10.4799 1.3098 10.5469C1.38101 10.6138 1.41071 10.7135 1.38793 10.8085L0.896409 12.8572C0.89173 12.8812 0.903937 12.9062 0.911871 12.9182C0.919805 12.9304 0.938319 12.9516 0.971276 12.9583C0.975955 12.9593 0.983686 12.9601 0.990807 12.9601H2.43728C2.57806 12.9601 2.69586 13.0677 2.70827 13.2081L2.99308 16.3934C3.00753 16.5201 3.12003 16.6206 3.2541 16.6206H3.9869ZM3.62152 1.24937C2.87082 1.24937 2.25988 1.8601 2.25988 2.6108C2.25988 3.36171 2.87082 3.97244 3.62152 3.97244C4.37222 3.97244 4.98295 3.36171 4.98295 2.6108C4.98316 1.8601 4.37242 1.24937 3.62152 1.24937Z" fill="black"/>
<path d="M10.767 17.176C10.7668 17.176 10.7668 17.176 10.767 17.176H9.6961C9.28514 17.1758 8.94031 16.8678 8.89392 16.4595L8.23477 10.4012C7.80449 10.1815 7.5038 9.75264 7.45192 9.26621L7.0544 6.25404C7.04646 6.1863 7.0428 6.12242 7.04301 6.05854C7.04402 5.14956 7.78496 4.40923 8.69496 4.40923H9.5962C8.86544 4.14231 8.34219 3.44003 8.34219 2.61813C8.34341 1.56918 9.19746 0.715738 10.246 0.715738C11.2962 0.715738 12.1504 1.56999 12.1504 2.61975C12.1504 3.44105 11.6278 4.14252 10.8974 4.40903H11.796C11.8581 4.40903 11.9201 4.41249 11.9818 4.41961C12.8875 4.52194 13.5412 5.34262 13.4388 6.24875L13.036 9.27496C12.9799 9.76342 12.6702 10.1917 12.23 10.4049L11.5696 16.4579C11.5228 16.8678 11.178 17.1758 10.767 17.176ZM8.69638 4.95364C8.08463 4.95364 7.58782 5.44984 7.58721 6.05996C7.58701 6.10289 7.58945 6.145 7.59433 6.18711L7.99206 9.20192C8.02909 9.54818 8.25979 9.84276 8.58103 9.95954C8.67848 9.99494 8.74724 10.0828 8.75863 10.186L9.43467 16.3995C9.44952 16.5313 9.56203 16.6318 9.6961 16.6318H10.7666C10.9007 16.6318 11.0134 16.5313 11.0284 16.3981L11.7061 10.1858C11.7177 10.0804 11.7893 9.99128 11.8896 9.9573C12.2182 9.84663 12.456 9.55245 12.4957 9.20823L12.8985 6.18243C12.9664 5.57984 12.528 5.02932 11.9201 4.96056C11.8786 4.95588 11.8371 4.95364 11.7958 4.95364H8.69638ZM10.246 1.26035C9.49713 1.26035 8.88721 1.86966 8.8864 2.61853C8.8864 3.36842 9.49632 3.97915 10.2462 3.97976C10.9963 3.97976 11.6062 3.36964 11.6062 2.61996C11.606 1.87027 10.9959 1.26035 10.246 1.26035ZM16.203 17.1742C16.2028 17.1742 16.2018 17.1742 16.2016 17.1742H15.4104C15.0719 17.1742 14.7887 16.9209 14.751 16.5852L14.2803 13.4498C13.9633 13.2738 13.7495 12.956 13.709 12.5878L13.4175 10.388C13.4114 10.3363 13.4087 10.2881 13.4087 10.2399C13.4083 9.8979 13.5412 9.57625 13.783 9.33395C14.0247 9.09186 14.3464 8.9582 14.6886 8.95779H15.0318C14.6259 8.69677 14.3563 8.24127 14.3563 7.72412C14.358 6.91787 15.0145 6.26218 15.8201 6.26218C16.6272 6.26218 17.2837 6.91889 17.2837 7.72574C17.2837 8.24228 17.0149 8.69698 16.6097 8.95759H16.9549C17.0025 8.95759 17.0503 8.96043 17.0975 8.96572C17.4379 9.00417 17.7426 9.17262 17.9558 9.44035C18.1691 9.70808 18.2653 10.0425 18.2266 10.3827L17.9302 12.601C17.8877 12.9705 17.6588 13.2964 17.3313 13.4675L16.8605 16.595C16.8239 16.9209 16.5407 17.1742 16.203 17.1742ZM14.689 9.5022C14.4922 9.5024 14.3073 9.5791 14.1684 9.71846C14.0292 9.85761 13.9529 10.0427 13.9531 10.2395C13.9531 10.2667 13.9545 10.2938 13.9574 10.3202L14.2493 12.5223C14.274 12.7477 14.4172 12.9326 14.6239 13.0106C14.716 13.0453 14.7821 13.1273 14.797 13.2248L15.2908 16.5142C15.2987 16.5844 15.3493 16.6296 15.4098 16.6296H16.203C16.2634 16.6296 16.3141 16.5842 16.3208 16.5242L16.8158 13.2374C16.8308 13.1365 16.9012 13.0527 16.9978 13.0201C17.2104 12.9483 17.3646 12.7575 17.3903 12.5339L17.6867 10.316C17.7083 10.1258 17.6529 9.9335 17.5302 9.77949C17.4076 9.62549 17.2324 9.52885 17.0367 9.50668C17.0098 9.50362 16.9824 9.5022 16.9551 9.5022H14.689ZM15.8201 6.8068C15.3141 6.8068 14.9014 7.21856 14.9006 7.72473C14.9006 8.2315 15.3131 8.64469 15.8203 8.64551C16.3269 8.64551 16.7393 8.23292 16.7393 7.72595C16.7393 7.21897 16.3269 6.8068 15.8201 6.8068ZM3.98853 17.1651C3.98832 17.1651 3.98629 17.1651 3.98608 17.1651H3.25573C2.84315 17.1651 2.49791 16.8568 2.45172 16.4485L2.18827 13.5047H0.986127C0.942184 13.5039 0.90292 13.4998 0.864266 13.4923C0.517397 13.4211 0.294424 13.0836 0.365019 12.7392L0.778006 11.0168C0.347523 10.9119 0.0694172 10.4954 0.143877 10.0596L1.1853 5.6425C1.33483 5.00003 1.8532 4.52051 2.50584 4.42164C2.54999 4.41533 2.74549 4.41187 2.99146 4.40984C2.2491 4.14923 1.71547 3.44125 1.71547 2.6108C1.71547 1.55982 2.57053 0.704956 3.62152 0.704956C4.6723 0.704956 5.52736 1.56002 5.52736 2.6108C5.52736 3.44085 4.99414 4.14862 4.25219 4.40964C4.68206 4.41269 4.72417 4.419 4.74106 4.42144C5.39513 4.52051 5.9137 5.00003 6.06262 5.64351L7.09875 10.0958C7.1547 10.5247 6.87557 10.921 6.46523 11.0203L6.87924 12.7316C6.88961 12.7799 6.89348 12.8201 6.89429 12.8604C6.89775 13.214 6.61435 13.5029 6.26281 13.5061H5.04765L4.79192 16.4414C4.74452 16.857 4.39928 17.1651 3.98853 17.1651ZM3.9869 16.6206H3.98853C4.12259 16.6206 4.2351 16.5201 4.25036 16.3869L4.52704 13.2107C4.53945 13.0702 4.65724 12.9621 4.79823 12.9621H6.26036C6.30919 12.9617 6.35069 12.9194 6.35008 12.8679L5.85511 10.8128C5.83212 10.7178 5.86182 10.6177 5.93303 10.5507C6.00423 10.4836 6.10595 10.46 6.19933 10.4887C6.23331 10.4989 6.26932 10.5021 6.30533 10.4974C6.46645 10.4763 6.58038 10.3282 6.55922 10.1673L5.53286 5.7668C5.43439 5.34161 5.092 5.02505 4.6607 4.95974C4.61716 4.95649 4.24649 4.95201 3.64267 4.95201C3.0234 4.95201 2.63096 4.95669 2.57623 4.96097C2.15653 5.02464 1.81434 5.34161 1.71547 5.76639L0.677099 10.1679C0.653296 10.3113 0.76112 10.4639 0.921229 10.4913C0.948491 10.495 0.959476 10.4956 0.970259 10.4956C0.995282 10.4956 1.0201 10.4919 1.04391 10.4846C1.13708 10.4561 1.2386 10.4799 1.3098 10.5469C1.38101 10.6138 1.41071 10.7135 1.38793 10.8085L0.896409 12.8572C0.89173 12.8812 0.903937 12.9062 0.911871 12.9182C0.919805 12.9304 0.938319 12.9516 0.971276 12.9583C0.975955 12.9593 0.983686 12.9601 0.990807 12.9601H2.43728C2.57806 12.9601 2.69586 13.0677 2.70827 13.2081L2.99308 16.3934C3.00753 16.5201 3.12003 16.6206 3.2541 16.6206H3.9869ZM3.62152 1.24937C2.87082 1.24937 2.25988 1.8601 2.25988 2.6108C2.25988 3.36171 2.87082 3.97244 3.62152 3.97244C4.37222 3.97244 4.98295 3.36171 4.98295 2.6108C4.98316 1.8601 4.37242 1.24937 3.62152 1.24937Z" stroke="black" stroke-width="0.14" mask="url(#path-1-outside-1)"/>
</svg>
