<svg width="17" height="17" viewBox="0 0 17 17" fill="none" xmlns="http://www.w3.org/2000/svg">
<path d="M12.7659 3.31543L12.7657 3.31536L12.1616 2.98424C12.1616 2.98424 12.1616 2.98424 12.1616 2.98424C11.6069 2.68012 11.1534 2.22592 10.8502 1.67047L10.5198 1.06505L10.5197 1.06487C10.4693 0.972838 10.3728 0.915259 10.2674 0.915259C10.1621 0.915259 10.0656 0.972838 10.0151 1.06487L10.015 1.06502L9.68448 1.67046L9.68446 1.67049C9.38125 2.22631 8.9278 2.68049 8.37308 2.98442L8.37307 2.98443L7.76895 3.31555L7.76882 3.31562C7.6771 3.36607 7.61951 3.46251 7.61951 3.56768C7.61951 3.6727 7.67679 3.76928 7.76894 3.8198L7.76895 3.81981L8.37307 4.15093L8.3731 4.15095C8.9278 4.45468 9.38125 4.90885 9.68446 5.46486L9.68449 5.46491L10.015 6.07016L10.0151 6.0703C10.0656 6.16238 10.1623 6.21991 10.2674 6.21991C10.3728 6.21991 10.4693 6.16233 10.5197 6.0703L10.5198 6.07014L10.8502 5.46489L10.8502 5.46487C11.1534 4.90904 11.6069 4.45486 12.1616 4.15094L12.1616 4.15093L12.7657 3.81981L12.7659 3.81974C12.8576 3.76929 12.9152 3.67285 12.9152 3.56768C12.9152 3.46262 12.8577 3.36593 12.7659 3.31543ZM10.1895 1.94592L10.2676 1.80284L10.3456 1.94588L10.3456 1.94593C10.7016 2.59792 11.234 3.13148 11.8855 3.48848C11.8855 3.48849 11.8855 3.4885 11.8855 3.4885L12.0295 3.56749L11.8855 3.64647C11.234 4.00329 10.7016 4.53667 10.3456 5.18908L10.4334 5.23698L10.3456 5.18908L10.2676 5.33205L10.1895 5.18906C9.83324 4.53667 9.30084 4.0033 8.64956 3.64648L8.50553 3.56749L8.64956 3.48851C9.30085 3.13168 9.83324 2.59812 10.1894 1.94594L10.1895 1.94592Z" fill="black" stroke="black" stroke-width="0.2"/>
<path d="M15.6033 5.9083L15.6033 5.90832L15.9508 6.09882C16.0428 6.14929 16.1002 6.24562 16.1002 6.35075C16.1002 6.45592 16.0426 6.55236 15.9509 6.60281L15.9507 6.60289L15.6033 6.7932L15.6033 6.79322C15.3049 6.95651 15.0611 7.20085 14.8979 7.49984L14.8979 7.49988L14.7078 7.84787L14.7077 7.84801C14.6573 7.94004 14.5607 7.99762 14.4554 7.99762C14.3502 7.99762 14.2534 7.94017 14.203 7.84784L15.6033 5.9083ZM15.6033 5.9083C15.3049 5.74481 15.0609 5.50043 14.8979 5.20169L14.8979 5.20161L14.7078 4.8538L14.7077 4.85375C14.6533 4.75431 14.549 4.71121 14.4551 4.71134C14.3614 4.71147 14.2573 4.75477 14.2031 4.85373L14.203 4.85383L14.0131 5.20164L14.013 5.20171C13.8501 5.50063 13.6061 5.74498 13.3077 5.90828L13.3076 5.90832L12.9602 6.09882L12.9601 6.09888C12.8684 6.14933 12.8108 6.24577 12.8108 6.35094C12.8108 6.45596 12.8681 6.55254 12.9602 6.60306L12.9602 6.60308L13.3077 6.79339C13.3077 6.79339 13.3077 6.79339 13.3077 6.79339C13.6061 6.95687 13.8499 7.20123 14.0131 7.49984C14.0131 7.49985 14.0131 7.49987 14.0131 7.49988L14.203 7.8478L15.6033 5.9083ZM14.4558 7.11691C14.2635 6.80497 14.0021 6.54317 13.6904 6.35084C14.0022 6.15837 14.2636 5.89656 14.4559 5.5847C14.6481 5.89666 14.9095 6.15835 15.2212 6.35078C14.9095 6.54315 14.6481 6.80508 14.4558 7.11691Z" fill="black" stroke="black" stroke-width="0.2"/>
<path d="M12.4062 9.27919C12.5651 9.27919 12.6937 9.15061 12.6937 8.99169V8.68538H12.9991C13.158 8.68538 13.2866 8.5568 13.2866 8.39789C13.2866 8.23897 13.158 8.11039 12.9991 8.11039H12.6937V7.80408C12.6937 7.64516 12.5651 7.51658 12.4062 7.51658C12.2473 7.51658 12.1187 7.64516 12.1187 7.80408V8.11039H11.8135C11.6546 8.11039 11.526 8.23897 11.526 8.39789C11.526 8.5568 11.6546 8.68538 11.8135 8.68538H12.1187V8.99169C12.1187 9.15061 12.2473 9.27919 12.4062 9.27919Z" fill="black" stroke="black" stroke-width="0.2"/>
<path d="M8.17213 7.08449C8.33105 7.08449 8.45963 6.95591 8.45963 6.79699V6.49068H8.76482C8.92373 6.49068 9.05232 6.3621 9.05232 6.20318C9.05232 6.04427 8.92373 5.91568 8.76482 5.91568H8.45963V5.60937C8.45963 5.45046 8.33105 5.32187 8.17213 5.32187C8.01322 5.32187 7.88464 5.45046 7.88464 5.60937V5.91568H7.57945C7.42054 5.91568 7.29195 6.04427 7.29195 6.20318C7.29195 6.3621 7.42054 6.49068 7.57945 6.49068H7.88464V6.79699C7.88464 6.95591 8.01322 7.08449 8.17213 7.08449Z" fill="black" stroke="black" stroke-width="0.2"/>
<path d="M15.193 3.56893C15.3519 3.56893 15.4805 3.44034 15.4805 3.28143V2.97512H15.7859C15.9448 2.97512 16.0734 2.84653 16.0734 2.68762C16.0734 2.5287 15.9448 2.40012 15.7859 2.40012H15.4805V2.09381C15.4805 1.93489 15.3519 1.80631 15.193 1.80631C15.0341 1.80631 14.9055 1.93489 14.9055 2.09381V2.40012H14.6003C14.4414 2.40012 14.3128 2.5287 14.3128 2.68762C14.3128 2.84653 14.4414 2.97512 14.6003 2.97512H14.9055V3.28143C14.9055 3.44041 15.0344 3.56893 15.193 3.56893Z" fill="black" stroke="black" stroke-width="0.2"/>
<path d="M15.6841 10.6478L15.6845 10.6477C15.7895 10.6086 15.9084 10.6329 15.9889 10.7134C16.0686 10.7932 16.0946 10.9122 16.0547 11.0181C16.0547 11.0181 16.0546 11.0182 16.0546 11.0182L15.9611 10.9829C14.8314 13.9838 11.9263 16 8.73188 16C4.46854 16 1 12.5252 1 8.25402C1 5.05417 3.01242 2.14381 6.0079 1.01188L15.6841 10.6478ZM15.6841 10.6478C14.8526 10.9619 13.9925 11.121 13.128 11.121M15.6841 10.6478L13.128 11.121M13.128 11.121C9.12667 11.121 5.87109 7.85941 5.87109 3.85005M13.128 11.121L5.87109 3.85005M5.87109 3.85005C5.87109 2.9834 6.02987 2.12176 6.34337 1.28879L5.87109 3.85005ZM8.73188 15.525C4.73076 15.525 1.475 12.2634 1.475 8.25402C1.475 5.46031 3.10943 2.90138 5.60074 1.7029C5.39845 2.40659 5.29609 3.12636 5.29609 3.85005C5.29609 8.17614 8.80923 11.696 13.128 11.696C13.8501 11.696 14.5685 11.5935 15.2711 11.3909C14.0746 13.8872 11.5202 15.525 8.73188 15.525Z" fill="black" stroke="black" stroke-width="0.2"/>
</svg>
