<svg width="22" height="22" viewBox="0 0 22 22" fill="none" xmlns="http://www.w3.org/2000/svg">
<circle cx="11" cy="11" r="10.4" stroke="#067891" stroke-width="1.2"/>
<path d="M14.009 13.634C14.009 13.4867 14.0133 13.322 14.022 13.14C14.0393 12.958 14.0783 12.789 14.139 12.633C14.1997 12.477 14.2863 12.347 14.399 12.243C14.5203 12.139 14.685 12.087 14.893 12.087C15.0837 12.087 15.231 12.1477 15.335 12.269C15.4477 12.3817 15.53 12.5203 15.582 12.685C15.634 12.841 15.6643 13.01 15.673 13.192C15.6903 13.3653 15.699 13.517 15.699 13.647C15.699 13.7857 15.6903 13.946 15.673 14.128C15.6643 14.3013 15.6297 14.4703 15.569 14.635C15.517 14.791 15.4303 14.9253 15.309 15.038C15.1963 15.1507 15.0403 15.207 14.841 15.207C14.633 15.207 14.4727 15.1507 14.36 15.038C14.2473 14.9253 14.165 14.791 14.113 14.635C14.061 14.4703 14.0307 14.297 14.022 14.115C14.0133 13.933 14.009 13.7727 14.009 13.634ZM12.683 13.621C12.683 13.9763 12.7177 14.31 12.787 14.622C12.865 14.934 12.9863 15.207 13.151 15.441C13.3243 15.6663 13.5453 15.844 13.814 15.974C14.0913 16.104 14.4293 16.169 14.828 16.169C15.2093 16.169 15.5387 16.1083 15.816 15.987C16.0933 15.857 16.3187 15.6793 16.492 15.454C16.674 15.2287 16.8083 14.9643 16.895 14.661C16.9817 14.3577 17.025 14.0283 17.025 13.673C17.025 13.3177 16.9903 12.984 16.921 12.672C16.8517 12.36 16.7303 12.0913 16.557 11.866C16.3923 11.632 16.1757 11.45 15.907 11.32C15.6383 11.1813 15.3003 11.112 14.893 11.112C14.5117 11.112 14.1823 11.177 13.905 11.307C13.6277 11.437 13.398 11.6147 13.216 11.84C13.034 12.0653 12.8997 12.3297 12.813 12.633C12.7263 12.9363 12.683 13.2657 12.683 13.621ZM13.684 6.614L8.302 16.273H9.433L14.789 6.614H13.684ZM7.301 9.318C7.301 9.17067 7.30533 9.00167 7.314 8.811C7.33133 8.62033 7.37033 8.44267 7.431 8.278C7.49167 8.11333 7.57833 7.97467 7.691 7.862C7.81233 7.74933 7.977 7.693 8.185 7.693C8.37567 7.693 8.523 7.75367 8.627 7.875C8.73967 7.99633 8.822 8.14367 8.874 8.317C8.926 8.49033 8.95633 8.67233 8.965 8.863C8.98233 9.045 8.991 9.201 8.991 9.331C8.991 9.46967 8.98233 9.62567 8.965 9.799C8.95633 9.96367 8.92167 10.124 8.861 10.28C8.809 10.4273 8.72233 10.553 8.601 10.657C8.48833 10.761 8.33233 10.813 8.133 10.813C7.925 10.813 7.76467 10.761 7.652 10.657C7.53933 10.553 7.457 10.4273 7.405 10.28C7.353 10.124 7.32267 9.95933 7.314 9.786C7.30533 9.61267 7.301 9.45667 7.301 9.318ZM5.975 9.292C5.975 9.64733 6.00967 9.981 6.079 10.293C6.157 10.5963 6.27833 10.8607 6.443 11.086C6.61633 11.3027 6.83733 11.476 7.106 11.606C7.38333 11.7273 7.72133 11.788 8.12 11.788C8.50133 11.788 8.83067 11.7273 9.108 11.606C9.38533 11.4847 9.61067 11.3157 9.784 11.099C9.966 10.8823 10.1003 10.6267 10.187 10.332C10.2737 10.0287 10.317 9.69933 10.317 9.344C10.317 8.98867 10.2823 8.65067 10.213 8.33C10.1437 8.00933 10.0223 7.732 9.849 7.498C9.68433 7.25533 9.46767 7.06467 9.199 6.926C8.93033 6.78733 8.59233 6.718 8.185 6.718C7.80367 6.718 7.47433 6.78733 7.197 6.926C6.91967 7.056 6.69 7.238 6.508 7.472C6.326 7.706 6.19167 7.979 6.105 8.291C6.01833 8.603 5.975 8.93667 5.975 9.292Z" fill="#067891"/>
<path d="M14.022 13.14L13.8227 13.121L13.8222 13.1305L14.022 13.14ZM14.139 12.633L13.9526 12.5605L14.139 12.633ZM14.399 12.243L14.2688 12.091L14.2633 12.096L14.399 12.243ZM15.335 12.269L15.1831 12.3992L15.1881 12.405L15.1936 12.4104L15.335 12.269ZM15.582 12.685L15.3913 12.7452L15.3923 12.7482L15.582 12.685ZM15.673 13.192L15.473 13.2015L15.474 13.2119L15.673 13.192ZM15.673 14.128L15.4737 14.109L15.4733 14.118L15.673 14.128ZM15.569 14.635L15.3812 14.5658L15.3793 14.5718L15.569 14.635ZM15.309 15.038L15.1728 14.8913L15.1676 14.8966L15.309 15.038ZM14.36 15.038L14.2186 15.1794L14.36 15.038ZM14.113 14.635L13.9223 14.6952L13.9233 14.6982L14.113 14.635ZM14.022 14.115L13.8222 14.1245V14.1245L14.022 14.115ZM12.787 14.622L12.5917 14.6654L12.593 14.6705L12.787 14.622ZM13.151 15.441L12.9873 15.5562L12.9925 15.5629L13.151 15.441ZM13.814 15.974L13.7269 16.154L13.7291 16.1551L13.814 15.974ZM15.816 15.987L15.8962 16.1703L15.9009 16.1681L15.816 15.987ZM16.492 15.454L16.3364 15.3283L16.3335 15.3321L16.492 15.454ZM16.895 14.661L16.7027 14.6061L16.895 14.661ZM16.921 12.672L16.7258 12.7154L16.921 12.672ZM16.557 11.866L16.3933 11.9812L16.3985 11.9879L16.557 11.866ZM15.907 11.32L15.8152 11.4978L15.8199 11.5L15.907 11.32ZM13.905 11.307L13.8201 11.1259L13.905 11.307ZM13.216 11.84L13.0604 11.7143L13.216 11.84ZM12.813 12.633L12.6207 12.5781L12.813 12.633ZM13.684 6.614V6.414H13.5665L13.5093 6.51665L13.684 6.614ZM8.302 16.273L8.12729 16.1757L7.96161 16.473H8.302V16.273ZM9.433 16.273V16.473H9.55079L9.60791 16.37L9.433 16.273ZM14.789 6.614L14.9639 6.71099L15.1286 6.414H14.789V6.614ZM7.314 8.811L7.11462 8.79287L7.11421 8.80192L7.314 8.811ZM7.691 7.862L7.55482 7.71534L7.54958 7.72058L7.691 7.862ZM8.627 7.875L8.47503 8.00526L8.48044 8.01109L8.627 7.875ZM8.874 8.317L8.68243 8.37447L8.874 8.317ZM8.965 8.863L8.76496 8.87209L8.7659 8.88196L8.965 8.863ZM8.965 9.799L8.76577 9.77908L8.76528 9.78849L8.965 9.799ZM8.861 10.28L8.67451 10.2075L8.6724 10.2134L8.861 10.28ZM8.601 10.657L8.47075 10.505L8.46534 10.51L8.601 10.657ZM7.405 10.28L7.21523 10.3433L7.2164 10.3466L7.405 10.28ZM7.314 9.786L7.11425 9.79599L7.314 9.786ZM6.079 10.293L5.88366 10.3364L5.8853 10.3428L6.079 10.293ZM6.443 11.086L6.28137 11.2041L6.28683 11.2109L6.443 11.086ZM7.106 11.606L7.01882 11.7862L7.02584 11.7892L7.106 11.606ZM9.108 11.606L9.02784 11.4228L9.108 11.606ZM9.784 11.099L9.63082 10.9703L9.62783 10.9741L9.784 11.099ZM10.187 10.332L10.3789 10.3884L10.3793 10.3869L10.187 10.332ZM10.213 8.33L10.4085 8.28773L10.213 8.33ZM9.849 7.498L9.68336 7.6104L9.68829 7.61704L9.849 7.498ZM9.199 6.926L9.10727 7.10372H9.10727L9.199 6.926ZM7.197 6.926L7.28191 7.10715L7.28644 7.10489L7.197 6.926ZM6.508 7.472L6.35013 7.34921L6.508 7.472ZM6.105 8.291L5.9123 8.23747H5.9123L6.105 8.291ZM14.209 13.634C14.209 13.4905 14.2132 13.3291 14.2218 13.1495L13.8222 13.1305C13.8134 13.3149 13.809 13.4829 13.809 13.634H14.209ZM14.2211 13.159C14.2368 12.9936 14.272 12.8428 14.3254 12.7055L13.9526 12.5605C13.8847 12.7352 13.8418 12.9224 13.8229 13.121L14.2211 13.159ZM14.3254 12.7055C14.3761 12.5752 14.4463 12.4715 14.5347 12.39L14.2633 12.096C14.1263 12.2225 14.0233 12.3788 13.9526 12.5605L14.3254 12.7055ZM14.5292 12.3949C14.6045 12.3303 14.7181 12.287 14.893 12.287V11.887C14.6519 11.887 14.4362 11.9477 14.2688 12.0911L14.5292 12.3949ZM14.893 12.287C15.0377 12.287 15.1245 12.3308 15.1831 12.3992L15.4869 12.1388C15.3375 11.9646 15.1297 11.887 14.893 11.887V12.287ZM15.1936 12.4104C15.2817 12.4985 15.3481 12.6086 15.3913 12.7452L15.7727 12.6248C15.7119 12.4321 15.6137 12.2648 15.4764 12.1276L15.1936 12.4104ZM15.3923 12.7482C15.4379 12.8851 15.4653 13.0358 15.4732 13.2015L15.8728 13.1825C15.8633 12.9842 15.8301 12.7969 15.7717 12.6218L15.3923 12.7482ZM15.474 13.2119C15.4909 13.3807 15.499 13.5254 15.499 13.647H15.899C15.899 13.5086 15.8898 13.35 15.872 13.1721L15.474 13.2119ZM15.499 13.647C15.499 13.7777 15.4908 13.9315 15.4739 14.109L15.8721 14.147C15.8899 13.9605 15.899 13.7936 15.899 13.647H15.499ZM15.4733 14.118C15.4656 14.2709 15.4351 14.42 15.3813 14.5659L15.7567 14.7041C15.8243 14.5207 15.8631 14.3318 15.8728 14.138L15.4733 14.118ZM15.3793 14.5718C15.338 14.6957 15.2698 14.8014 15.1729 14.8914L15.4451 15.1846C15.5908 15.0492 15.696 14.8863 15.7587 14.6982L15.3793 14.5718ZM15.1676 14.8966C15.1013 14.9628 15.0014 15.007 14.841 15.007V15.407C15.0793 15.407 15.2914 15.3385 15.4504 15.1794L15.1676 14.8966ZM14.841 15.007C14.6692 15.007 14.5661 14.9613 14.5014 14.8966L14.2186 15.1794C14.3792 15.34 14.5968 15.407 14.841 15.407V15.007ZM14.5014 14.8966C14.4114 14.8066 14.3452 14.6993 14.3027 14.5718L13.9233 14.6982C13.9848 14.8827 14.0832 15.0441 14.2186 15.1794L14.5014 14.8966ZM14.3037 14.5748C14.2572 14.4274 14.2297 14.2712 14.2218 14.1055L13.8222 14.1245C13.8317 14.3228 13.8648 14.5132 13.9223 14.6952L14.3037 14.5748ZM14.2218 14.1055C14.2132 13.9257 14.209 13.7687 14.209 13.634H13.809C13.809 13.7766 13.8135 13.9403 13.8222 14.1245L14.2218 14.1055ZM12.483 13.621C12.483 13.9893 12.5189 14.3377 12.5918 14.6654L12.9822 14.5786C12.9164 14.2823 12.883 13.9633 12.883 13.621H12.483ZM12.593 14.6705C12.6762 15.0034 12.807 15.2996 12.9874 15.5561L13.3146 15.3259C13.1657 15.1144 13.0538 14.8646 12.981 14.5735L12.593 14.6705ZM12.9925 15.5629C13.1857 15.8142 13.4317 16.0112 13.7269 16.154L13.9011 15.794C13.659 15.6768 13.4629 15.5185 13.3095 15.3191L12.9925 15.5629ZM13.7291 16.1551C14.0398 16.3007 14.4085 16.369 14.828 16.369V15.969C14.4502 15.969 14.1429 15.9073 13.8989 15.7929L13.7291 16.1551ZM14.828 16.369C15.23 16.369 15.5879 16.3051 15.8962 16.1702L15.7358 15.8038C15.4894 15.9116 15.1887 15.969 14.828 15.969V16.369ZM15.9009 16.1681C16.2048 16.0256 16.4562 15.8285 16.6505 15.5759L16.3335 15.3321C16.1811 15.5301 15.9818 15.6884 15.7311 15.8059L15.9009 16.1681ZM16.6476 15.5797C16.8479 15.3317 16.9939 15.0428 17.0873 14.7159L16.7027 14.6061C16.6227 14.8859 16.5001 15.1257 16.3364 15.3283L16.6476 15.5797ZM17.0873 14.7159C17.1797 14.3927 17.225 14.0446 17.225 13.673H16.825C16.825 14.0121 16.7837 14.3227 16.7027 14.6061L17.0873 14.7159ZM17.225 13.673C17.225 13.3047 17.1891 12.9563 17.1162 12.6286L16.7258 12.7154C16.7916 13.0117 16.825 13.3307 16.825 13.673H17.225ZM17.1162 12.6286C17.0414 12.2916 16.9088 11.9953 16.7155 11.7441L16.3985 11.9879C16.5519 12.1874 16.662 12.4284 16.7258 12.7154L17.1162 12.6286ZM16.7206 11.7509C16.5355 11.4879 16.292 11.2841 15.9941 11.14L15.8199 11.5C16.0593 11.6159 16.2492 11.7761 16.3934 11.9811L16.7206 11.7509ZM15.9987 11.1423C15.6936 10.9848 15.3217 10.912 14.893 10.912V11.312C15.279 11.312 15.5831 11.3779 15.8153 11.4977L15.9987 11.1423ZM14.893 10.912C14.4893 10.912 14.1297 10.9808 13.8201 11.1259L13.9899 11.4881C14.235 11.3732 14.534 11.312 14.893 11.312V10.912ZM13.8201 11.1259C13.5169 11.268 13.2626 11.4641 13.0604 11.7143L13.3716 11.9657C13.5334 11.7653 13.7384 11.606 13.9899 11.4881L13.8201 11.1259ZM13.0604 11.7143C12.8601 11.9623 12.7141 12.2512 12.6207 12.5781L13.0053 12.6879C13.0853 12.4081 13.2079 12.1683 13.3716 11.9657L13.0604 11.7143ZM12.6207 12.5781C12.5283 12.9013 12.483 13.2494 12.483 13.621H12.883C12.883 13.2819 12.9243 12.9713 13.0053 12.6879L12.6207 12.5781ZM13.5093 6.51665L8.12729 16.1757L8.47671 16.3703L13.8587 6.71135L13.5093 6.51665ZM8.302 16.473H9.433V16.073H8.302V16.473ZM9.60791 16.37L14.9639 6.71099L14.6141 6.51701L9.25809 16.176L9.60791 16.37ZM14.789 6.414H13.684V6.814H14.789V6.414ZM7.501 9.318C7.501 9.17442 7.50523 9.00855 7.51379 8.82008L7.11421 8.80192C7.10544 8.99478 7.101 9.16691 7.101 9.318H7.501ZM7.51318 8.82911C7.52907 8.65431 7.56458 8.49396 7.61867 8.34714L7.24333 8.20886C7.17609 8.39138 7.1336 8.58635 7.11482 8.79289L7.51318 8.82911ZM7.61867 8.34714C7.67035 8.20685 7.74221 8.09363 7.83242 8.00342L7.54958 7.72058C7.41445 7.8557 7.31298 8.01982 7.24333 8.20886L7.61867 8.34714ZM7.82709 8.00856C7.90261 7.93843 8.014 7.893 8.185 7.893V7.493C7.94001 7.493 7.72206 7.56023 7.55491 7.71544L7.82709 8.00856ZM8.185 7.893C8.32968 7.893 8.41653 7.93677 8.47515 8.00516L8.77885 7.74484C8.62947 7.57056 8.42165 7.493 8.185 7.493V7.893ZM8.48044 8.01109C8.57041 8.10798 8.6384 8.22767 8.68243 8.37447L9.06557 8.25953C9.0056 8.05966 8.90892 7.88469 8.77356 7.73891L8.48044 8.01109ZM8.68243 8.37447C8.72947 8.53124 8.75724 8.69693 8.76521 8.87208L9.16479 8.85392C9.15542 8.64774 9.12254 8.44943 9.06557 8.25953L8.68243 8.37447ZM8.7659 8.88196C8.78285 9.05997 8.791 9.20929 8.791 9.331H9.191C9.191 9.19271 9.18181 9.03003 9.1641 8.84404L8.7659 8.88196ZM8.791 9.331C8.791 9.46159 8.78282 9.61079 8.76599 9.7791L9.16401 9.8189C9.18184 9.64054 9.191 9.47774 9.191 9.331H8.791ZM8.76528 9.78849C8.75774 9.9316 8.72768 10.071 8.6746 10.2075L9.0474 10.3525C9.11566 10.177 9.15492 9.99574 9.16472 9.80951L8.76528 9.78849ZM8.6724 10.2134C8.63235 10.3269 8.56619 10.4234 8.47084 10.5051L8.73116 10.8089C8.87847 10.6826 8.98565 10.5277 9.0496 10.3466L8.6724 10.2134ZM8.46534 10.51C8.39964 10.5707 8.29759 10.613 8.133 10.613V11.013C8.36708 11.013 8.57703 10.9513 8.73666 10.804L8.46534 10.51ZM8.133 10.613C7.95709 10.613 7.85189 10.5693 7.78766 10.51L7.51634 10.804C7.67744 10.9527 7.89291 11.013 8.133 11.013V10.613ZM7.78766 10.51C7.69939 10.4286 7.63497 10.3307 7.5936 10.2134L7.2164 10.3466C7.27903 10.524 7.37928 10.6774 7.51634 10.804L7.78766 10.51ZM7.59474 10.2168C7.54878 10.0789 7.52156 9.93222 7.51375 9.77601L7.11425 9.79599C7.12377 9.98644 7.15722 10.1691 7.21526 10.3432L7.59474 10.2168ZM7.51375 9.77601C7.50521 9.60522 7.501 9.45263 7.501 9.318H7.101C7.101 9.4607 7.10546 9.62011 7.11425 9.79599L7.51375 9.77601ZM5.775 9.292C5.775 9.66033 5.81093 10.0087 5.88376 10.3364L6.27424 10.2496C6.2084 9.95334 6.175 9.63434 6.175 9.292H5.775ZM5.8853 10.3428C5.96885 10.6677 6.10017 10.9558 6.28152 11.204L6.60448 10.968C6.4565 10.7655 6.34515 10.5249 6.2727 10.2432L5.8853 10.3428ZM6.28683 11.2109C6.48017 11.4526 6.72545 11.644 7.01889 11.786L7.19311 11.426C6.94922 11.308 6.7525 11.1527 6.59917 10.9611L6.28683 11.2109ZM7.02584 11.7892C7.3351 11.9245 7.70207 11.988 8.12 11.988V11.588C7.7406 11.588 7.43157 11.5301 7.18616 11.4228L7.02584 11.7892ZM8.12 11.988C8.522 11.988 8.8799 11.9241 9.18816 11.7892L9.02784 11.4228C8.78144 11.5306 8.48067 11.588 8.12 11.588V11.988ZM9.18816 11.7892C9.49242 11.6561 9.7448 11.4682 9.94017 11.2239L9.62783 10.9741C9.47654 11.1632 9.27824 11.3132 9.02784 11.4228L9.18816 11.7892ZM9.93714 11.2276C10.1384 10.9881 10.2851 10.7073 10.3789 10.3884L9.99513 10.2756C9.91558 10.546 9.79363 10.7766 9.63086 10.9704L9.93714 11.2276ZM10.3793 10.3869C10.4717 10.0637 10.517 9.71561 10.517 9.344H10.117C10.117 9.68306 10.0757 9.99368 9.9947 10.2771L10.3793 10.3869ZM10.517 9.344C10.517 8.97562 10.4811 8.62338 10.4085 8.28773L10.0175 8.37227C10.0836 8.67795 10.117 9.00171 10.117 9.344H10.517ZM10.4085 8.28773C10.3339 7.94282 10.202 7.63852 10.0097 7.37895L9.68829 7.61704C9.84269 7.82548 9.95343 8.07585 10.0175 8.37227L10.4085 8.28773ZM10.0145 7.3857C9.83049 7.11453 9.5881 6.90176 9.29073 6.74828L9.10727 7.10372C9.34723 7.22757 9.53818 7.39613 9.68351 7.6103L10.0145 7.3857ZM9.29073 6.74828C8.98559 6.59079 8.61367 6.518 8.185 6.518V6.918C8.571 6.918 8.87507 6.98388 9.10727 7.10372L9.29073 6.74828ZM8.185 6.518C7.77963 6.518 7.41832 6.59173 7.10756 6.74711L7.28644 7.10489C7.53035 6.98293 7.82771 6.918 8.185 6.918V6.518ZM7.11211 6.74491C6.80717 6.88785 6.55217 7.08945 6.35013 7.34921L6.66587 7.59479C6.82783 7.38655 7.03216 7.22415 7.28189 7.10709L7.11211 6.74491ZM6.35013 7.34921C6.15069 7.60563 6.0053 7.90267 5.9123 8.23747L6.2977 8.34453C6.37804 8.05533 6.50131 7.80637 6.66587 7.59479L6.35013 7.34921ZM5.9123 8.23747C5.82034 8.5685 5.775 8.92032 5.775 9.292H6.175C6.175 8.95301 6.21632 8.6375 6.2977 8.34453L5.9123 8.23747Z" fill="#067891"/>
</svg>
