<svg width="11" height="14" viewBox="0 0 11 14" fill="none" xmlns="http://www.w3.org/2000/svg">
<path d="M5.4953 0.88533C2.94769 0.88533 0.874634 2.97641 0.874634 5.54617C0.874634 7.4483 3.2599 10.6983 4.68356 12.4619C4.88337 12.7138 5.18309 12.8524 5.4953 12.8524C5.80751 12.8524 6.10722 12.7138 6.30704 12.4619C7.7307 10.6983 10.116 7.4483 10.116 5.54617C10.116 2.97641 8.04291 0.88533 5.4953 0.88533Z" stroke="black" stroke-width="0.8" stroke-miterlimit="10"/>
<path d="M5.49525 3.29134C4.2714 3.29134 3.27234 4.29909 3.27234 5.53358C3.27234 6.76807 4.2714 7.77582 5.49525 7.77582C6.7191 7.77582 7.71817 6.76807 7.71817 5.53358C7.71817 4.29909 6.7191 3.29134 5.49525 3.29134Z" stroke="black" stroke-width="0.8" stroke-miterlimit="10"/>
</svg>
