<svg width="19" height="19" viewBox="0 0 19 19" fill="none" xmlns="http://www.w3.org/2000/svg">
<path d="M9.62241 14.1031C9.40054 14.1031 9.21448 13.9297 9.20145 13.7054C9.18799 13.4729 9.36558 13.2729 9.59831 13.2597C10.1914 13.225 10.7288 13.0999 11.1951 12.8869C11.6202 12.6926 11.9968 12.4434 12.3188 12.1436L11.359 11.2402C11.1719 11.4191 10.9556 11.5733 10.7116 11.7016C10.315 11.9104 9.84885 12.0168 9.32694 12.0168C8.87928 12.0168 8.45919 11.9332 8.07818 11.7686C7.6963 11.6036 7.36326 11.3698 7.0882 11.0737C6.81617 10.7817 6.60081 10.4272 6.44818 10.0205C6.2973 9.61804 6.22088 9.1732 6.22088 8.69667C6.22088 8.22903 6.29773 7.79027 6.44862 7.39168C6.60124 6.99048 6.81856 6.6366 7.09536 6.33917C7.37347 6.04044 7.70997 5.80272 8.09511 5.63295C8.83477 5.3086 9.7644 5.28189 10.5955 5.62231C10.8575 5.72999 11.0902 5.87501 11.2913 6.05586L12.2274 5.11929C11.9193 4.85269 11.5453 4.63841 11.1113 4.47971C9.8673 4.02553 8.51759 4.06353 7.41754 4.47233C6.8496 4.68335 6.34854 4.98881 5.9291 5.38046C5.51118 5.77037 5.17858 6.25016 4.94086 6.80659C4.70183 7.36541 4.58069 8.00151 4.58069 8.69732C4.58069 9.37728 4.69987 10.0045 4.93499 10.5637C5.16968 11.1226 5.49707 11.6082 5.90826 12.007C6.31901 12.4056 6.81313 12.7189 7.37651 12.9382C7.68067 13.056 8.0048 13.1433 8.33957 13.1985C8.56991 13.2365 8.72557 13.4536 8.68801 13.683C8.65002 13.9134 8.43248 14.0688 8.20323 14.0313C7.81093 13.967 7.42991 13.8637 7.07105 13.7247C6.40173 13.4642 5.81295 13.0901 5.32056 12.6125C4.82753 12.134 4.4361 11.5546 4.15734 10.8903C3.87837 10.2274 3.73682 9.48974 3.73682 8.69689C3.73682 7.88667 3.88075 7.13854 4.16494 6.47443C4.44912 5.80923 4.84881 5.23326 5.35335 4.76259C5.85528 4.29474 6.45079 3.93044 7.1238 3.68056C8.41121 3.20251 9.96956 3.16364 11.4018 3.68664C12.1113 3.94629 12.6968 4.3336 13.1425 4.83879C13.2897 5.00596 13.2821 5.25888 13.1242 5.41628L11.5752 6.96551C11.4884 7.053 11.3662 7.09664 11.2442 7.08795C11.1208 7.07818 11.0084 7.01523 10.9359 6.91558C10.7676 6.68415 10.5514 6.51655 10.2757 6.40344C9.65498 6.14921 8.96525 6.17288 8.43574 6.40582C8.1559 6.52892 7.91318 6.70021 7.71366 6.91449C7.51133 7.13181 7.35132 7.3932 7.238 7.69149C7.12337 7.99391 7.06519 8.33194 7.06519 8.69689C7.06519 9.0716 7.12337 9.41701 7.23865 9.72399C7.35241 10.0268 7.50959 10.2876 7.7065 10.499C7.90189 10.7092 8.1394 10.8755 8.41294 10.9938C8.68779 11.1126 8.99543 11.1723 9.32716 11.1723C9.71056 11.1723 10.044 11.0989 10.3191 10.9539C10.6009 10.8058 10.8197 10.6206 10.9875 10.3866C11.059 10.2882 11.169 10.2248 11.29 10.2129C11.4107 10.2016 11.5312 10.2424 11.62 10.326L13.2087 11.822C13.3741 11.9773 13.3867 12.235 13.238 12.406C12.7817 12.9301 12.2122 13.35 11.5459 13.6546C10.9839 13.911 10.3456 14.0614 9.6476 14.1018C9.63891 14.1027 9.63088 14.1031 9.62241 14.1031Z" fill="white"/>
<path d="M8.64509 18.5024C8.63488 18.5024 8.62444 18.5021 8.61423 18.5015C3.78383 18.1675 0 14.1094 0 9.26196C0 4.15477 4.155 0 9.26196 0C14.3689 0 18.5239 4.15477 18.5239 9.26196C18.5239 14.0926 14.9 18.0584 10.0946 18.4865C9.85433 18.5074 9.63767 18.3293 9.61634 18.0863C9.59479 17.8442 9.77402 17.6298 10.0168 17.6083C14.3637 17.2205 17.6418 13.6327 17.6418 9.26196C17.6418 4.64119 13.8825 0.881865 9.26196 0.881865C4.64119 0.881865 0.882092 4.64096 0.882092 9.26196C0.882092 13.6477 4.30496 17.3192 8.67504 17.621C8.91802 17.638 9.10156 17.8483 9.08455 18.0915C9.06844 18.3243 8.87491 18.5024 8.64509 18.5024Z" fill="white"/>
</svg>
