<svg width="100" height="95" viewBox="0 0 100 95" fill="none" xmlns="http://www.w3.org/2000/svg">
<g style="mix-blend-mode:multiply">
<path fill-rule="evenodd" clip-rule="evenodd" d="M51.1003 6.52634L50.8659 6.79767L50.6971 6.48112C50.4652 6.0448 50.1544 5.78788 49.8451 5.77546C49.5502 5.76204 49.218 5.99212 48.9464 6.4195L48.8263 6.60833L48.6277 6.50795C48.0572 6.21873 47.5647 6.21426 47.2385 6.48559C48.4822 7.45562 49.2995 8.5156 49.718 9.70429C50.2562 8.46988 50.9513 7.18379 52.3887 6.27141C51.9031 6.01548 51.4712 6.09996 51.1003 6.52634Z" fill="#BC9654"/>
<path fill-rule="evenodd" clip-rule="evenodd" d="M19.1894 20.1225C19.5096 20.0922 19.8507 20.0708 20.2057 20.0708C21.1367 20.0708 22.1674 20.2149 23.2016 20.7129C22.7051 19.4253 22.2568 17.9876 22.6416 16.3164C22.4172 16.389 22.233 16.5072 22.1054 16.6638C21.948 16.8566 21.88 17.1065 21.9078 17.3863L21.944 17.7521L21.5945 17.6512C21.2812 17.5603 20.8462 17.5041 20.5592 17.7516C20.3075 17.9672 20.2092 18.3832 20.2757 18.9537L20.3016 19.1788L20.0831 19.227C19.6084 19.3314 19.2549 19.7011 19.1894 20.1225Z" fill="#BC9654"/>
<path fill-rule="evenodd" clip-rule="evenodd" d="M9.05079 49.6629C9.70022 48.7436 10.7161 47.6866 12.1678 47.1643C10.9464 46.6187 9.6739 45.915 8.76977 44.4614C8.51655 44.9544 8.60096 45.3912 9.02299 45.7629L9.29209 45.999L8.9783 46.1704C8.54584 46.4065 8.29114 46.722 8.27922 47.0366C8.2678 47.3467 8.49371 47.6702 8.91574 47.945L9.11087 48.0717L8.99816 48.277C8.72955 48.762 8.75934 49.3071 9.05079 49.6629Z" fill="#BC9654"/>
<path fill-rule="evenodd" clip-rule="evenodd" d="M18.8205 74.2677C18.8915 74.4963 19.0092 74.6826 19.1641 74.8113C19.3547 74.9703 19.6025 75.0364 19.878 75.0106L20.234 74.9738L20.1417 75.3232C20.0086 75.8256 20.0493 76.2266 20.2549 76.4542C20.4694 76.6898 20.8711 76.7613 21.4142 76.6654L21.6516 76.6227L21.6992 76.8617C21.8094 77.4183 22.231 77.715 22.6475 77.7646C22.438 76.2306 22.6078 74.8923 23.1679 73.7021C21.8948 74.2026 20.4748 74.6563 18.8205 74.2677Z" fill="#BC9654"/>
<path fill-rule="evenodd" clip-rule="evenodd" d="M46.8621 88.213C47.3476 88.4541 47.8188 88.3939 48.1286 88.0297L48.3411 87.7787L48.5219 88.054C48.7165 88.3502 49.0303 88.705 49.4186 88.711C49.7959 88.7244 50.1519 88.3547 50.3669 88.0476L50.5059 87.8503L50.705 87.985C51.0104 88.1907 51.3539 88.2702 51.6474 88.1966C51.7844 88.1638 51.9051 88.1002 52.0014 88.0113C51.1126 87.3692 50.0829 86.3296 49.5735 84.7588C49.0089 85.9937 48.3441 87.3459 46.8621 88.213Z" fill="#BC9654"/>
<path fill-rule="evenodd" clip-rule="evenodd" d="M80.0847 74.3724C78.5609 74.5836 77.2387 74.3943 76.0695 73.793C76.5665 75.1143 77.0133 76.4963 76.6365 78.2098C77.1355 78.007 77.4125 77.6284 77.3643 77.1796L77.3266 76.8402L77.6578 76.9068C78.1717 77.0097 78.5803 76.9446 78.8072 76.718C79.0823 76.4432 79.0629 75.9726 78.9983 75.6262L78.9566 75.4055L79.1696 75.3409C79.686 75.1839 80.0276 74.8117 80.0847 74.3724Z" fill="#BC9654"/>
<path fill-rule="evenodd" clip-rule="evenodd" d="M90.4021 44.7368C89.7254 45.6393 88.6802 46.6858 87.2334 47.1962C88.433 47.7781 89.7695 48.443 90.629 49.912C90.7576 49.7092 90.8197 49.498 90.8053 49.2973C90.7879 49.0557 90.6613 48.8391 90.4398 48.6716L90.1489 48.4525L90.4577 48.2591C90.9056 47.9799 91.1583 47.6544 91.1677 47.3443C91.1801 46.9537 90.8226 46.6128 90.5208 46.3956L90.34 46.2664L90.4473 46.0716C90.7154 45.5836 90.6856 45.0419 90.4021 44.7368Z" fill="#BC9654"/>
<path fill-rule="evenodd" clip-rule="evenodd" d="M80.4903 20.2457C80.2912 19.7384 79.9174 19.4531 79.471 19.5073L79.1299 19.547L79.2019 19.2071C79.2719 18.8767 79.2997 18.421 79.0316 18.1253C78.8141 17.8853 78.4288 17.7913 77.9184 17.8554L77.7178 17.8813L77.6533 17.6875C77.4919 17.197 77.1081 16.8382 76.6995 16.7642C76.9066 18.2982 76.7199 19.6295 76.1295 20.8053C77.3921 20.3103 78.8067 19.8696 80.4903 20.2457Z" fill="#BC9654"/>
<path fill-rule="evenodd" clip-rule="evenodd" d="M43.4833 17.0226C46.4882 16.882 48.6132 14.8599 48.7716 11.9905C48.8084 10.698 48.2235 9.29115 47.2066 8.23316C46.1913 7.17567 44.9019 6.59375 43.5757 6.59375C41.5326 6.59375 39.6474 7.56776 37.8247 8.51046C36.1976 9.35079 34.655 10.1494 33.1501 10.1499C33.4415 10.787 33.9907 11.5965 35.3347 11.5965C36.2577 11.5965 36.9598 10.9008 37.7726 10.0947C38.8028 9.0725 39.9706 7.91413 41.9338 7.82468L43.0007 7.77598L42.0628 8.29329C40.544 9.13014 38.6529 10.1732 37.9662 11.5662C37.5759 12.3558 37.8351 12.5759 38.2288 12.9099C38.4255 13.0769 38.6404 13.2592 38.7591 13.5246C39.0103 13.4327 39.265 13.4307 39.4969 13.4282C40.0962 13.4227 40.6145 13.4183 41.0842 11.8529L41.1751 11.6079C41.5346 10.6443 41.9412 9.55205 43.2624 9.55205H43.8572L43.4372 9.97843C42.5405 10.8873 42.0604 11.8052 42.0862 12.563C42.1006 13.0008 42.2907 13.385 42.6502 13.702C42.8875 13.8814 43.5603 13.9813 44.2524 13.8153C44.6601 13.7184 44.9833 13.5465 45.1744 13.3323C44.5697 12.885 44.317 12.2395 44.4967 11.5637C44.6601 10.9445 45.1571 10.4962 45.6759 10.4962C46.5095 10.4962 47.3998 10.9957 47.3998 12.3985C47.3998 14.2566 45.7881 15.7117 43.7306 15.7117C41.5639 15.7117 39.1906 14.8052 36.8942 13.9291C34.7419 13.1072 32.7087 12.331 30.9819 12.331C30.9322 12.3295 30.8831 12.3295 30.8334 12.3295C28.8955 12.3295 27.0292 13.0838 25.6876 14.4131C24.6489 15.4433 24.0775 16.6812 24.0775 17.8982C23.9995 20.7526 26.2492 23.3159 28.8906 23.3894C30.4243 23.6125 31.9893 22.4214 33.6476 21.1626C35.2975 19.9103 37 18.6188 38.8316 18.5795C38.3177 17.5966 37.4002 16.8924 36.579 16.8924C35.3928 16.8924 34.7742 17.849 34.1198 18.8613C33.6421 19.5997 33.1486 20.364 32.4093 20.7198L31.7619 21.0319L32.0821 20.3829C32.3194 19.9009 32.5761 19.4939 32.8234 19.0998C33.234 18.4458 33.5895 17.8813 33.7742 17.1314C34.0393 16.2389 33.6853 15.9894 33.1948 15.6436C33.0011 15.5064 32.8025 15.3663 32.6387 15.1794C32.4232 15.3121 32.1829 15.3891 31.949 15.4652C31.3448 15.661 30.9079 15.8026 30.9948 16.7741C31.2376 18.4135 30.892 19.312 29.7168 20.0743L28.9934 20.5434L29.3608 19.7568C30.0097 18.3683 30.2302 17.1066 29.9491 16.3845C29.821 16.0545 29.5951 15.8289 29.2595 15.6928C28.9814 15.5919 28.4859 15.7549 28.0301 16.1008C27.5639 16.4551 27.2407 16.9058 27.1399 17.3203C27.4939 17.2517 27.8385 17.2939 28.1324 17.447C28.4378 17.6055 28.8439 17.9653 29.046 18.7803C29.1284 19.1967 29.0544 19.5784 28.8345 19.8964C28.5589 20.294 28.0649 20.5648 27.4438 20.6602C26.2641 20.7447 25.4056 19.7657 25.2194 18.1621C25.1484 17.2716 25.5223 16.3333 26.272 15.5114C27.2948 14.3893 28.7943 13.7199 30.2828 13.7199C32.4585 13.7199 34.5974 14.5607 36.6663 15.3752C38.8703 16.2454 41.1582 17.1414 43.4833 17.0226Z" fill="#BC9654"/>
<path fill-rule="evenodd" clip-rule="evenodd" d="M84.9346 46.1683C86.152 46.2384 87.5045 45.6808 88.5591 44.674C89.6479 43.6359 90.2715 42.2638 90.2715 40.9116C90.2715 38.8568 89.3147 36.9754 88.3902 35.1551C87.5546 33.5122 86.7622 31.9528 86.7543 30.3993C86.0502 30.771 85.2459 31.3207 85.2459 32.5794C85.2781 33.5385 85.9713 34.2591 86.7746 35.0929C87.786 36.145 88.9329 37.3371 88.9771 39.3344L89.0019 40.445L88.5094 39.4511C87.639 37.6934 86.654 35.976 85.3546 35.3186C84.5746 34.923 84.3537 35.1864 84.0225 35.5844C83.8557 35.7852 83.6725 36.0053 83.4053 36.1236C83.4734 36.3447 83.4753 36.5699 83.4763 36.7766C83.4803 37.3739 83.4848 37.9384 85.0766 38.4736C85.9752 38.7534 87.3426 39.1778 87.3426 40.6761V41.2555L86.926 40.8575C85.9469 39.9207 85.0388 39.4516 84.3095 39.4621C83.8969 39.4755 83.5454 39.6449 83.2345 39.9814C83.029 40.3019 82.9754 41.1035 83.1397 41.7719C83.2266 42.1257 83.3651 42.4109 83.5339 42.5898C84.0508 41.8534 84.7752 41.7207 85.3139 41.8613C85.9489 42.0268 86.4107 42.5535 86.4107 43.1141C86.4107 43.9823 85.8059 44.8579 84.4554 44.8579C82.6894 44.8579 81.253 43.1931 81.253 41.1477C81.2123 38.8533 82.1387 36.3875 83.0349 34.0032C83.8199 31.9155 84.5607 29.9426 84.5964 28.2491C84.6674 24.5672 82.0563 21.2705 79.0078 21.196C76.2924 21.0961 73.7245 23.4382 73.5845 26.0685C73.4057 27.5966 74.5824 29.1878 75.8277 30.8719C77.0759 32.561 78.3638 34.3028 78.416 36.1574C79.2526 35.6441 80.0872 34.8017 80.0872 33.8367C80.0872 32.7056 79.1701 32.0934 78.198 31.4454C77.4418 30.941 76.6588 30.4182 76.2984 29.6176L75.9965 28.9483L76.639 29.2941C77.0684 29.5247 77.4542 29.7747 77.8271 30.0167C78.4815 30.4411 79.0987 30.8416 79.8628 31.0846C80.755 31.3077 80.9943 30.9311 81.3255 30.4088C81.4417 30.2254 81.5613 30.0371 81.7157 29.8721C81.5752 29.638 81.5007 29.3731 81.4322 29.1336C81.257 28.5104 81.1507 28.1382 80.2143 28.265C78.5823 28.4339 77.7159 28.0975 76.8743 26.9918L76.3222 26.2673L77.1618 26.6077C78.7377 27.2472 79.9263 27.4226 80.5986 27.1145C80.8866 26.9819 81.0807 26.7622 81.1914 26.4432C81.3195 26.1535 81.1874 25.6948 80.8617 25.252C80.5623 24.845 80.0673 24.435 79.5842 24.3466C79.6686 24.7183 79.6379 25.0602 79.4914 25.3504C79.2824 25.7648 78.8539 26.056 78.2179 26.2156C77.8072 26.3015 77.4324 26.227 77.1181 26.0049C76.7244 25.7276 76.4548 25.2281 76.3599 24.599C76.2979 24.1607 76.3977 23.7671 76.6559 23.4282C77.059 22.899 77.8301 22.5427 78.8281 22.4244C78.9279 22.4125 79.0276 22.407 79.1289 22.407C79.8792 22.407 80.6567 22.737 81.3473 23.3577C82.458 24.3545 83.1476 25.9298 83.1476 27.4699C83.1476 29.6579 82.3398 31.8146 81.5583 33.9003C80.7138 36.1564 79.8399 38.4891 79.9591 40.8987C80.0991 43.937 82.0524 46.0053 84.9346 46.1683Z" fill="#BC9654"/>
<path fill-rule="evenodd" clip-rule="evenodd" d="M62.7597 80.5699C64.9125 81.3919 66.9457 82.1681 68.6736 82.1681C70.6283 82.2565 72.518 81.5221 73.8958 80.1828C74.9643 79.1437 75.5765 77.8392 75.5765 76.6023C75.6534 73.8692 73.3556 71.2547 70.7564 71.1101C69.2406 70.9292 67.6696 72.1164 66.0123 73.3747C64.3639 74.627 62.6629 75.9175 60.8338 75.9916C61.3074 76.8279 62.1758 77.6082 63.076 77.6082C64.2775 77.6082 64.8991 76.651 65.559 75.6378C66.0287 74.9152 66.5153 74.1678 67.2352 73.7832L67.9139 73.4209L67.5718 74.1151C67.3424 74.5803 67.0957 74.9883 66.8564 75.3828C66.4527 76.0507 66.0709 76.6818 65.8792 77.4461C65.6121 78.3531 65.9775 78.5926 66.4825 78.9246C66.6647 79.0438 66.8504 79.1666 67.0063 79.3271C67.2297 79.1909 67.479 79.1174 67.7064 79.0493C68.3136 78.8689 68.7148 78.7501 68.5842 77.7334C68.4174 76.0463 68.7724 75.1831 69.9386 74.4272L70.6635 73.9571L70.2956 74.7438C69.6462 76.1307 69.4263 77.39 69.7073 78.113C69.8354 78.443 70.0613 78.6701 70.3979 78.8063C70.677 78.9082 71.1615 78.7516 71.6218 78.4028C72.088 78.0494 72.4122 77.5982 72.5145 77.1838C72.1352 77.2648 71.7827 77.2275 71.4783 77.0695C71.0578 76.8508 70.7663 76.4234 70.6109 75.7983C70.5225 75.354 70.6144 74.9296 70.8676 74.5917C71.1615 74.1991 71.6456 73.9586 72.2295 73.9154C72.664 73.8513 73.0919 73.9611 73.4474 74.2359C73.9762 74.6469 74.3277 75.3923 74.438 76.3355C74.508 77.2285 74.1326 78.1677 73.3809 78.9901C72.3581 80.1098 70.8607 80.7781 69.3726 80.7781C67.1766 80.7781 65.0158 79.9393 62.9265 79.1283C60.8303 78.3143 58.665 77.4735 56.4546 77.4735C56.3578 77.4735 56.2614 77.4755 56.1646 77.4789C53.1667 77.6181 51.0427 79.671 50.8833 82.587C50.849 83.8204 51.4156 85.1875 52.3991 86.2371C53.4085 87.3144 54.7526 87.9505 56.0857 87.9843C58.0916 87.9843 59.9381 87.0153 61.7235 86.0795C63.3788 85.2114 64.9542 84.4058 66.5133 84.4222C66.1583 83.5953 65.5972 82.9041 64.3207 82.9041C63.3987 82.9041 62.6971 83.5998 61.8853 84.4058C60.8546 85.428 59.6868 86.5864 57.7232 86.6759L56.6979 86.7226L57.5901 86.2097C59.1809 85.2958 60.9594 84.2726 61.6977 83C62.0835 82.179 61.8084 81.9564 61.4281 81.6488C61.2369 81.4942 61.0115 81.3124 60.8908 81.0376C60.6495 81.1141 60.3963 81.1126 60.1838 81.1126C59.5602 81.1066 59.0458 81.1121 58.5702 82.6486L58.4823 82.8837C58.1233 83.8512 57.7167 84.9485 56.3925 84.9485H55.7972L56.2177 84.5221C57.1159 83.6132 57.608 82.6695 57.5702 81.932C57.5484 81.5216 57.3612 81.1682 57.0131 80.884C56.7614 80.6594 56.1711 80.5828 55.5723 80.6892C55.1066 80.7717 54.7158 80.9511 54.4909 81.1762C55.1915 81.7069 55.3012 82.4474 55.1547 82.998C54.9864 83.6271 54.4934 84.0833 53.9825 84.0833C53.1245 84.0833 52.2586 83.4726 52.2586 82.107C52.2586 80.2151 53.8345 78.7884 55.9243 78.7884C58.0906 78.7879 60.4639 79.6938 62.7597 80.5699Z" fill="#BC9654"/>
<path fill-rule="evenodd" clip-rule="evenodd" d="M20.2947 73.4462C23.0691 73.5068 25.6594 71.2418 25.8019 68.5692C25.9811 67.0406 24.8054 65.4683 23.5607 63.803C22.3035 62.1234 21.0081 60.39 20.9704 58.524C19.9963 59.0403 19.2987 59.9696 19.2987 60.802C19.2987 62.0031 20.245 62.6278 21.2465 63.2897C21.9773 63.7722 22.733 64.2716 23.0845 65.019L23.3938 65.6765L22.7509 65.349C22.2479 65.0931 21.8239 64.8163 21.4133 64.5489C20.811 64.1554 20.2425 63.7841 19.5226 63.557C18.6463 63.3339 18.3955 63.6977 18.0514 64.2046C17.9184 64.3994 17.7818 64.6001 17.6011 64.7731C17.7342 64.9922 17.8116 65.2352 17.8871 65.4728C18.0847 66.0924 18.2093 66.5004 19.1735 66.3702C20.818 66.2072 21.6938 66.5616 22.5175 67.7294L23.0483 68.4822L22.2146 68.1021C21.3552 67.7095 19.7659 67.1122 18.7883 67.5087C18.468 67.6394 18.2471 67.867 18.1135 68.203C18.0167 68.4743 18.1766 68.9548 18.5241 69.4195C18.8796 69.8935 19.3299 70.2325 19.7276 70.3413C19.6537 69.9557 19.6954 69.6028 19.8518 69.3062C20.0752 68.8813 20.5186 68.5826 21.1685 68.4206C21.5811 68.3381 21.9569 68.4132 22.2712 68.6358C22.6645 68.9151 22.9321 69.414 23.0269 70.0416C23.0915 70.5008 22.9733 70.9312 22.6848 71.288C22.2514 71.8227 21.4709 72.1591 20.5429 72.2128C19.7157 72.3166 18.8245 71.9837 18.041 71.281C16.9298 70.2841 16.2392 68.7074 16.2392 67.1658C16.2392 64.9699 17.0515 62.8096 17.837 60.72C18.677 58.4862 19.5454 56.177 19.4268 53.818C19.2858 50.7792 17.2863 48.6314 14.4518 48.4724C13.2373 48.3953 11.8854 48.9549 10.8313 49.9592C9.74046 50.9983 9.11536 52.3709 9.11536 53.7245C9.11536 55.7814 10.0716 57.6628 10.9961 59.4831C11.8362 61.1359 12.6331 62.7048 12.6311 64.2677C13.4141 63.9034 14.1415 63.3448 14.1415 62.0573C14.1097 61.1444 13.428 60.4442 12.6371 59.6342C11.6138 58.5841 10.4534 57.394 10.4073 55.3828L10.3829 54.3189L10.873 55.2606C11.7498 56.9487 12.717 58.6522 14.0303 59.3171C14.8266 59.7594 15.0426 59.504 15.3698 59.1164C15.5327 58.9245 15.7114 58.7129 15.9691 58.5961C15.8782 58.3411 15.8763 58.0837 15.8743 57.8492C15.8688 57.2404 15.8638 56.7161 14.3167 56.2435L14.0913 56.1586C13.1306 55.7923 12.0413 55.3779 12.0413 53.9606V53.3573L12.4628 53.7842C13.421 54.7542 14.3217 55.2591 15.0466 55.2283C15.4681 55.2144 15.8276 55.0285 16.1454 54.6593C16.3221 54.4213 16.4204 53.7424 16.2576 53.0447C16.1627 52.6348 15.9959 52.3102 15.7854 52.1154C15.3127 52.8032 14.6246 52.9294 14.1042 52.7953C13.4493 52.6318 12.9747 52.0971 12.9747 51.5246C12.9747 50.7563 13.4876 49.8588 14.9314 49.8588C16.7263 49.8588 18.1324 51.4883 18.1324 53.569C18.1324 55.8008 17.2263 58.2427 16.3504 60.6042C15.5664 62.7172 14.8266 64.7124 14.7904 66.3871C14.7507 68.441 15.5079 70.4238 16.8678 71.8257C17.8801 72.8712 19.0971 73.4462 20.2947 73.4462Z" fill="#BC9654"/>
<path fill-rule="evenodd" clip-rule="evenodd" d="M86.7547 64.1458C86.7522 62.5844 87.5491 61.0141 88.3902 59.3597C89.3152 57.5394 90.2724 55.657 90.2724 53.6032C90.2724 52.2793 89.695 50.9823 88.6454 49.9511C87.5859 48.91 86.1922 48.3217 84.9286 48.3475C82.099 48.506 80.1001 50.6528 79.9591 53.6906C79.8404 56.0531 80.7093 58.3634 81.5499 60.5986C82.3353 62.6883 83.1476 64.8485 83.1476 67.0445C83.1476 68.5755 82.4892 70.1041 81.388 71.1348C80.6 71.8708 79.6914 72.2395 78.8375 72.1719C77.8722 72.0546 77.0868 71.675 76.6732 71.1298C76.4056 70.7775 76.2973 70.3591 76.3599 69.9188C76.4547 69.2891 76.7238 68.7907 77.1161 68.5114C77.4309 68.2883 77.8092 68.2138 78.2059 68.2923C78.8404 68.4533 79.2654 68.751 79.4804 69.1788C79.6348 69.4849 79.6711 69.8412 79.5892 70.2229C80.0454 70.1086 80.5504 69.7275 80.9069 69.2037C81.2008 68.7728 81.313 68.3474 81.1988 68.0935C81.0767 67.7451 80.8771 67.5225 80.5782 67.3933C79.8871 67.0937 78.6448 67.3083 77.1707 67.9812L76.3346 68.3628L76.8678 67.6085C77.7124 66.4143 78.5912 66.0794 80.2157 66.3259C81.1437 66.4079 81.2574 66.0034 81.4297 65.3881C81.4997 65.1387 81.5722 64.8818 81.7087 64.6522C81.5503 64.4946 81.4297 64.3063 81.3115 64.1229C80.9833 63.6121 80.7455 63.2438 79.8583 63.5112C79.0564 63.713 78.4169 64.1229 77.7397 64.5563C77.3926 64.7789 77.0341 65.0085 76.6379 65.2217L75.9771 65.577L76.2993 64.8937C76.6513 64.1468 77.408 63.6469 78.1384 63.1643C79.1403 62.5029 80.0862 61.8777 80.0862 60.6771C80.0862 59.8164 79.2868 58.912 78.4159 58.4126C78.3722 60.2726 77.0798 62.001 75.8276 63.6772C74.5814 65.3439 73.4047 66.9177 73.5825 68.4334C73.7245 71.0781 76.3172 73.4277 79.0058 73.3203C80.2589 73.3203 81.5141 72.733 82.5483 71.6665C83.8889 70.283 84.6356 68.3425 84.5959 66.3423C84.5602 64.6447 83.8144 62.65 83.025 60.538C82.1332 58.1552 81.2117 55.6903 81.2524 53.4402C81.2524 51.3669 82.659 49.7399 84.4549 49.7399C85.8972 49.7399 86.4101 50.6384 86.4101 51.4797C86.4101 51.999 85.9573 52.499 85.3332 52.6679C84.7905 52.815 84.0597 52.7027 83.5384 51.996C83.3522 52.1899 83.2042 52.5089 83.1183 52.9084C82.9813 53.546 83.0399 54.2696 83.2514 54.5553C83.5542 54.9032 83.9107 55.0895 84.3288 55.1089C85.0656 55.1392 85.9504 54.6671 86.9255 53.7353L87.3421 53.3368V53.9167C87.3421 55.2515 86.2696 55.663 85.3243 56.0267L85.0884 56.1187C83.4842 56.6087 83.4808 57.1459 83.4763 57.7675C83.4748 57.9872 83.4728 58.2282 83.3998 58.4672C83.6694 58.586 83.8541 58.8076 84.0224 59.0104C84.3526 59.4099 84.5731 59.6723 85.3551 59.2792C86.711 58.5154 87.7115 56.7592 88.5094 55.1417L89.0019 54.1448L88.9776 55.259C88.9329 57.2746 87.772 58.4652 86.7487 59.5168C85.9593 60.3268 85.2776 61.0265 85.2463 61.9468C85.2468 63.2866 86.0958 63.8461 86.7547 64.1458Z" fill="#BC9654"/>
<path fill-rule="evenodd" clip-rule="evenodd" d="M70.8159 23.3274C72.0944 23.2897 73.296 22.7078 74.2264 21.6846C75.2085 20.6042 75.7289 19.2053 75.6534 17.8472C75.6534 16.6157 75.0809 15.3774 74.0422 14.3477C72.6679 12.9856 70.7673 12.2262 68.7559 12.266C67.0236 12.266 64.99 13.0427 62.8361 13.8652C60.5408 14.7413 58.1675 15.6472 56.0007 15.6472C53.9437 15.6472 52.3331 14.1917 52.3331 12.3341C52.3331 10.9307 53.2233 10.4313 54.0564 10.4313C54.5753 10.4313 55.0713 10.88 55.2356 11.4977C55.4149 12.1741 55.1636 12.8196 54.5599 13.2678C54.7501 13.4815 55.0718 13.6525 55.4784 13.7499C56.172 13.9168 56.8453 13.817 57.0985 13.6256C57.4436 13.3185 57.6328 12.9344 57.6472 12.4956C57.6725 11.7373 57.1914 10.8204 56.2932 9.91298L55.8712 9.4871H56.468C57.7882 9.4871 58.1963 10.5789 58.5563 11.542L58.6426 11.7705C59.1163 13.3533 59.6759 13.3578 60.2682 13.3632C60.4936 13.3657 60.7399 13.3677 60.9762 13.4552C61.0949 13.1923 61.3079 13.0114 61.503 12.8459C61.8953 12.512 62.1544 12.2923 61.7637 11.5022C61.0338 10.1669 59.4112 9.19092 57.671 8.22785L56.7371 7.71103L57.8006 7.75973C59.7623 7.84868 60.9295 9.00805 61.9598 10.0298C62.7721 10.8358 63.4731 11.532 64.3956 11.532C65.7387 11.532 66.2893 10.7215 66.5813 10.0854C65.0848 10.0834 63.563 9.2923 61.9583 8.45793C60.1337 7.50927 58.2469 6.5293 56.1547 6.5293C54.829 6.5293 53.5401 7.11072 52.5242 8.16772C51.5079 9.22571 50.923 10.633 50.9602 11.9326C51.1186 14.7959 53.2417 16.818 56.2435 16.9581C58.5667 17.0774 60.859 16.1804 63.0675 15.3123C65.1349 14.4993 67.2734 13.6574 69.4481 13.6574C70.9753 13.6574 72.5552 14.3775 73.571 15.5359C74.2791 16.3439 74.6147 17.2553 74.5134 18.1001C74.3287 19.7037 73.4499 20.6912 72.3084 20.6002C71.667 20.5023 71.1729 20.2315 70.8974 19.8339C70.6779 19.5159 70.6034 19.1342 70.6839 18.7297C70.8889 17.9018 71.2961 17.5425 71.6009 17.384C71.8949 17.2324 72.2364 17.1912 72.5914 17.2588C72.4912 16.8448 72.1689 16.3946 71.7037 16.0403C71.2474 15.6924 70.7464 15.5299 70.4654 15.6338C70.1357 15.767 69.9103 15.9936 69.7822 16.3235C69.5012 17.0461 69.7216 18.3063 70.3711 19.6948L70.7385 20.4815L70.0146 20.0113C68.8404 19.249 68.4948 18.3506 68.7406 16.6967C68.8677 15.7451 68.4337 15.603 67.8344 15.4062C67.6006 15.3296 67.3603 15.2516 67.1527 15.117C66.978 15.2983 66.7744 15.4365 66.5753 15.5702C66.0614 15.9165 65.6905 16.167 65.9547 17.0565C66.1433 17.8173 66.4974 18.3819 66.9075 19.0358C67.1547 19.4299 67.4099 19.8369 67.6473 20.3194L67.967 20.9685L67.3196 20.6554C66.5823 20.2996 66.0897 19.5368 65.6131 18.7988C64.9587 17.7855 64.3405 16.8284 63.1514 16.8284C62.3312 16.8284 61.4146 17.5321 60.9027 18.516C62.7333 18.5538 64.4354 19.8454 66.0838 21.0972C67.7436 22.3559 69.314 23.5471 70.8159 23.3274Z" fill="#BC9654"/>
<path fill-rule="evenodd" clip-rule="evenodd" d="M37.4955 86.1244C39.3058 87.074 41.1781 88.0565 43.249 88.0565C44.5787 88.0237 45.9242 87.3861 46.9341 86.3067C47.9167 85.2572 48.4812 83.8916 48.4445 82.6527C48.2871 79.7441 46.164 77.6907 43.1616 77.5506C40.8564 77.4716 38.6042 78.3457 36.4196 79.19C34.307 80.0065 32.1219 80.8508 29.8802 80.8508C28.3986 80.8508 26.8535 80.1382 25.8465 78.9908C25.1311 78.1758 24.793 77.2574 24.8928 76.4076C25.0055 75.4361 25.3361 74.7106 25.847 74.31C26.204 74.0303 26.633 73.9199 27.1151 73.99C27.6623 74.0337 28.1558 74.2897 28.4557 74.6907C28.7094 75.0306 28.8047 75.4451 28.7228 75.859C28.5654 76.4961 28.273 76.9235 27.8524 77.1421C27.5496 77.3006 27.196 77.3394 26.8152 77.2554C26.9324 77.7365 27.342 78.2165 27.7596 78.5221C28.1796 78.8312 28.621 78.9729 28.8549 78.8784C29.1841 78.7458 29.407 78.5271 29.5386 78.2091C29.8305 77.5019 29.6498 76.2943 29.0301 74.806L28.7228 74.0665L29.3906 74.4984C30.5678 75.2592 30.9144 76.1562 30.6686 77.8095C30.5385 78.8114 30.9695 78.9396 31.5648 79.117C31.8046 79.189 32.0504 79.2621 32.2634 79.3992C32.4287 79.2437 32.6209 79.1234 32.8075 79.0057C33.3383 78.6737 33.7221 78.4337 33.454 77.5278C33.2608 76.752 32.878 76.1214 32.4734 75.4535C32.2346 75.0589 31.9878 74.6509 31.7584 74.1858L31.4153 73.4921L32.0941 73.8539C32.8155 74.2385 33.3016 74.9869 33.7718 75.7099C34.4306 76.7232 35.0517 77.6788 36.2548 77.6788C37.1564 77.6788 38.0248 76.8986 38.497 76.0638C36.6579 75.9897 34.9346 74.6882 33.2643 73.4275C31.612 72.1792 30.0559 71.0054 28.5897 71.1793C27.274 71.2514 26.0476 71.8676 25.1202 72.9166C24.1763 73.9826 23.6778 75.3477 23.7523 76.6596C23.7528 77.9099 24.3655 79.2139 25.4335 80.252C26.8132 81.5927 28.7084 82.3198 30.6492 82.2393C32.3855 82.2393 34.4192 81.4635 36.5715 80.6421C38.8669 79.7665 41.2412 78.8601 43.4079 78.8601C45.4977 78.8601 47.0736 80.2873 47.0736 82.1781C47.0736 83.5437 46.2072 84.155 45.3492 84.155C44.8374 84.155 44.3438 83.6983 44.176 83.0692C44.029 82.5195 44.1398 81.7781 44.8398 81.2469C44.6154 81.0223 44.2252 80.8434 43.7594 80.7604C43.1607 80.654 42.5718 80.7315 42.3265 80.9487C41.971 81.2399 41.7838 81.5927 41.7625 82.0042C41.7243 82.7422 42.2173 83.6854 43.1155 84.5933L43.5375 85.0197H42.9412C41.615 85.0197 41.2069 83.9214 40.8474 82.9524L40.7665 82.7347C40.2849 81.1843 39.7412 81.1848 39.1112 81.1843C38.8917 81.1982 38.6588 81.1848 38.4374 81.1152C38.3168 81.3865 38.0933 81.5674 37.9032 81.721C37.5228 82.0281 37.2478 82.2502 37.6435 83.09C38.2825 84.3105 39.9443 85.295 41.7367 86.2784L42.6805 86.7967L41.6081 86.747C39.6454 86.6581 38.4776 85.4997 37.4464 84.478C36.6341 83.672 35.9325 82.9757 35.0105 82.9757C33.7385 82.9757 33.1759 83.667 32.8185 84.4929C32.8453 84.4929 32.8726 84.4929 32.8994 84.4929C34.3869 84.4934 35.9018 85.2875 37.4955 86.1244Z" fill="#BC9654"/>
<path fill-rule="evenodd" clip-rule="evenodd" d="M20.9907 36.2356C21.0389 34.3766 22.3283 32.6318 23.5785 30.9402C24.8247 29.2531 26.002 27.6604 25.8237 26.1452C25.6792 23.4538 23.1123 21.1802 20.3224 21.2573C17.6517 21.3303 14.7323 24.2464 14.8102 28.3144C14.847 30.0353 15.5937 32.0394 16.3837 34.1609C17.253 36.496 18.1522 38.9107 18.1522 41.134C18.1522 43.2216 16.7168 44.9197 14.9517 44.9197C13.5998 44.9197 12.995 44.0456 12.995 43.1794C12.995 42.6049 13.4712 42.0697 14.127 41.9062C14.6499 41.7755 15.341 41.9008 15.8132 42.5995C16.0004 42.4389 16.1528 42.1607 16.2516 41.7934C16.4447 41.0753 16.3573 40.2986 16.1533 40.0238C15.8638 39.6904 15.5227 39.5125 15.1225 39.4931C14.4031 39.4588 13.4915 39.9532 12.4767 40.9208L12.0606 41.3188V40.7399C12.0606 39.2471 13.429 38.8187 14.3351 38.535C15.8842 38.0127 15.8886 37.4616 15.8941 36.8792C15.8961 36.6521 15.8986 36.4041 15.9904 36.1626C15.7357 36.0304 15.5585 35.8112 15.3976 35.612C15.0699 35.205 14.8534 34.9356 14.0595 35.3769C12.7497 36.0393 11.7652 37.7577 10.8953 39.5159L10.4028 40.5118L10.4276 39.3982C10.4738 37.3309 11.642 36.1218 12.6728 35.0554C13.4543 34.2469 14.1295 33.5486 14.1603 32.6353C14.1603 31.3179 13.3679 30.8189 12.6509 30.4577C12.6445 32.0121 11.8516 33.573 11.016 35.2179C10.0915 37.0382 9.13519 38.9206 9.13519 40.9764C9.13519 42.3306 9.76029 43.7032 10.8506 44.7418C11.9037 45.7456 13.2597 46.3012 14.4701 46.2286C17.3052 46.0716 19.3041 43.9561 19.4456 40.964C19.5648 38.5539 18.6919 36.2197 17.8464 33.9626C17.0664 31.8769 16.2585 29.7192 16.2585 27.5322C16.2585 25.9916 16.9497 24.4163 18.0614 23.419C18.8448 22.7168 19.744 22.3878 20.5771 22.4892C21.4917 22.5439 22.2727 22.8828 22.7047 23.417C22.9926 23.7733 23.1103 24.2031 23.0463 24.6598C22.9514 25.2895 22.6823 25.7884 22.2891 26.0672C21.9738 26.2898 21.598 26.3663 21.1993 26.2858C20.5359 26.1184 20.0926 25.8187 19.8696 25.3928C19.7142 25.0971 19.673 24.7448 19.7465 24.3592C19.3483 24.4695 18.896 24.8099 18.5405 25.2865C18.1949 25.7486 18.0365 26.2262 18.1358 26.5035C18.2664 26.832 18.4869 27.0581 18.8066 27.1888C19.7837 27.5863 21.374 26.989 22.2345 26.5969L23.0681 26.2173L22.5363 26.9701C21.7092 28.1404 20.8358 28.4962 19.2013 28.3342C18.2346 28.1991 18.1036 28.6095 17.9059 29.2277C17.83 29.4648 17.7525 29.7078 17.619 29.9259C17.7997 30.0989 17.9357 30.2996 18.0678 30.4944C18.4134 31.0013 18.6646 31.3661 19.5543 31.1434C20.2559 30.9223 20.8209 30.5526 21.4197 30.1605C21.8323 29.8897 22.2603 29.6099 22.7687 29.354L23.3923 29.0389L23.1044 29.6804C22.7434 30.481 21.9614 31.0038 21.2052 31.5092C20.2341 32.1572 19.3165 32.7704 19.3165 33.901C19.3195 34.9073 20.1541 35.7426 20.9907 36.2356Z" fill="#BC9654"/>
<path d="M50 92.823C25.0308 92.823 4.7168 72.4916 4.7168 47.5004C4.7168 22.5091 25.0308 2.17725 50 2.17725C74.9692 2.17725 95.2832 22.5091 95.2832 47.5004C95.2832 72.4916 74.9692 92.823 50 92.823ZM50 3.65167C25.8431 3.65167 6.19042 23.3217 6.19042 47.5004C6.19042 71.6786 25.8431 91.3486 50 91.3486C74.1569 91.3486 93.8096 71.6786 93.8096 47.5004C93.8096 23.3217 74.1569 3.65167 50 3.65167Z" fill="#BC9654"/>
<path d="M48.9519 76.1016C33.1154 76.1016 20.2311 63.0748 20.2311 47.0623C20.2311 31.0498 33.1154 18.0229 48.9519 18.0229C64.7884 18.0229 77.6732 31.0498 77.6732 47.0623C77.6732 63.0748 64.7884 76.1016 48.9519 76.1016ZM48.9519 19.0064C33.6566 19.0064 21.2137 31.5925 21.2137 47.0628C21.2137 62.5331 33.6566 75.1187 48.9519 75.1187C64.2472 75.1187 76.6906 62.5331 76.6906 47.0628C76.6906 31.5925 64.2467 19.0064 48.9519 19.0064Z" fill="#BC9654"/>
<path d="M49.8501 65.5128C39.9408 65.5128 31.8791 57.3615 31.8791 47.3416C31.8791 37.3223 39.9408 29.1704 49.8501 29.1704C59.7588 29.1704 67.8211 37.3223 67.8211 47.3416C67.8211 57.3615 59.7588 65.5128 49.8501 65.5128ZM49.8501 29.6619C40.2114 29.6619 32.3696 37.5926 32.3696 47.3411C32.3696 57.0896 40.2119 65.0213 49.8501 65.0213C59.4887 65.0213 67.33 57.0896 67.33 47.3411C67.33 37.5926 59.4887 29.6619 49.8501 29.6619Z" fill="#BC9654"/>
<path d="M49.5815 68.9589C37.7885 68.9589 28.1935 59.2575 28.1935 47.3344C28.1935 35.4103 37.7885 25.71 49.5815 25.71C61.3749 25.71 70.9694 35.4103 70.9694 47.3344C70.9694 59.258 61.3749 68.9589 49.5815 68.9589ZM49.5815 26.4961C38.2219 26.4961 28.9795 35.8441 28.9795 47.3344C28.9795 58.8247 38.2214 68.1727 49.5815 68.1727C60.9415 68.1727 70.1839 58.8247 70.1839 47.3344C70.1839 35.8441 60.9415 26.4961 49.5815 26.4961Z" fill="#BC9654"/>
<path fill-rule="evenodd" clip-rule="evenodd" d="M49.3173 20.5186L51.1822 24.2108H47.2955L49.3173 20.5186Z" fill="#BC9654"/>
<path fill-rule="evenodd" clip-rule="evenodd" d="M54.4482 20.9883L55.614 24.9991L51.7283 24.2105L54.4482 20.9883Z" fill="#BC9654"/>
<path fill-rule="evenodd" clip-rule="evenodd" d="M59.4222 22.4824L59.8099 26.6488L56.1577 25.1545L59.4222 22.4824Z" fill="#BC9654"/>
<path fill-rule="evenodd" clip-rule="evenodd" d="M64.0099 24.9995L63.5427 29.1624L60.2776 26.9629L64.0099 24.9995Z" fill="#BC9654"/>
<path fill-rule="evenodd" clip-rule="evenodd" d="M68.0539 28.3789L66.8087 32.3092L64.0094 29.4791L68.0539 28.3789Z" fill="#BC9654"/>
<path fill-rule="evenodd" clip-rule="evenodd" d="M71.3179 32.3882L69.2962 36.0844L67.1195 32.7042L71.3179 32.3882Z" fill="#BC9654"/>
<path fill-rule="evenodd" clip-rule="evenodd" d="M73.7284 37.1039L71.084 40.3286L69.6069 36.6318L73.7284 37.1039Z" fill="#BC9654"/>
<path fill-rule="evenodd" clip-rule="evenodd" d="M75.2825 42.057L72.018 44.6541L71.3179 40.8013L75.2825 42.057Z" fill="#BC9654"/>
<path fill-rule="evenodd" clip-rule="evenodd" d="M75.7473 47.4033L72.095 49.2897L72.1724 45.3594L75.7473 47.4033Z" fill="#BC9654"/>
<path fill-rule="evenodd" clip-rule="evenodd" d="M75.2825 52.6694L71.3179 53.7696L72.0945 49.8423L75.2825 52.6694Z" fill="#BC9654"/>
<path fill-rule="evenodd" clip-rule="evenodd" d="M73.6495 57.702L69.6069 58.019L71.0835 54.3223L73.6495 57.702Z" fill="#BC9654"/>
<path fill-rule="evenodd" clip-rule="evenodd" d="M71.161 62.3396L67.119 61.7915L69.2961 58.4863L71.161 62.3396Z" fill="#BC9654"/>
<path fill-rule="evenodd" clip-rule="evenodd" d="M67.8196 66.3522L63.855 65.0909L66.7302 62.3394L67.8196 66.3522Z" fill="#BC9654"/>
<path fill-rule="evenodd" clip-rule="evenodd" d="M63.778 69.6533L60.1252 67.6088L63.4667 65.4829L63.778 69.6533Z" fill="#BC9654"/>
<path fill-rule="evenodd" clip-rule="evenodd" d="M59.1108 72.0891L56.0037 69.3356L59.657 67.8438L59.1108 72.0891Z" fill="#BC9654"/>
<path fill-rule="evenodd" clip-rule="evenodd" d="M54.2918 73.5856L51.7288 70.2794L55.614 69.5723L54.2918 73.5856Z" fill="#BC9654"/>
<path fill-rule="evenodd" clip-rule="evenodd" d="M49.3173 73.977L47.4495 70.2798L51.3366 70.3603L49.3173 73.977Z" fill="#BC9654"/>
<path fill-rule="evenodd" clip-rule="evenodd" d="M44.1055 20.9883L46.7533 24.2105L42.8632 25.0766L44.1055 20.9883Z" fill="#BC9654"/>
<path fill-rule="evenodd" clip-rule="evenodd" d="M39.133 22.4824L42.3206 25.1545L38.6668 26.7268L39.133 22.4824Z" fill="#BC9654"/>
<path fill-rule="evenodd" clip-rule="evenodd" d="M34.6237 24.9995L38.2005 27.0434L34.934 29.2434L34.6237 24.9995Z" fill="#BC9654"/>
<path fill-rule="evenodd" clip-rule="evenodd" d="M30.5822 28.3789L34.5468 29.5596L31.6696 32.3877L30.5822 28.3789Z" fill="#BC9654"/>
<path fill-rule="evenodd" clip-rule="evenodd" d="M27.3162 32.3882L31.3593 32.8598L29.261 36.16L27.3162 32.3882Z" fill="#BC9654"/>
<path fill-rule="evenodd" clip-rule="evenodd" d="M24.8302 37.104L28.9497 36.7124L27.4726 40.4062L24.8302 37.104Z" fill="#BC9654"/>
<path fill-rule="evenodd" clip-rule="evenodd" d="M23.3521 42.2138L27.3167 40.9561L26.6171 44.8894L23.3521 42.2138Z" fill="#BC9654"/>
<path fill-rule="evenodd" clip-rule="evenodd" d="M22.9623 47.4034L26.5402 45.437L26.6171 49.3703L22.9623 47.4034Z" fill="#BC9654"/>
<path fill-rule="evenodd" clip-rule="evenodd" d="M23.4291 52.5956L26.6171 49.998L27.4721 53.8503L23.4291 52.5956Z" fill="#BC9654"/>
<path fill-rule="evenodd" clip-rule="evenodd" d="M24.9856 57.6215L27.628 54.4028L29.1051 58.0946L24.9856 57.6215Z" fill="#BC9654"/>
<path fill-rule="evenodd" clip-rule="evenodd" d="M27.5496 62.1836L29.4159 58.4863L31.6691 61.792L27.5496 62.1836Z" fill="#BC9654"/>
<path fill-rule="evenodd" clip-rule="evenodd" d="M30.8146 66.272L32.0578 62.2642L34.8576 65.0157L30.8146 66.272Z" fill="#BC9654"/>
<path fill-rule="evenodd" clip-rule="evenodd" d="M34.8581 69.5726L35.2449 65.4077L38.5893 67.5282L34.8581 69.5726Z" fill="#BC9654"/>
<path fill-rule="evenodd" clip-rule="evenodd" d="M39.4438 72.0135L38.9766 67.7632L42.6294 69.2615L39.4438 72.0135Z" fill="#BC9654"/>
<path fill-rule="evenodd" clip-rule="evenodd" d="M44.1055 73.4244L43.0206 69.4165L46.9068 70.3597L44.1055 73.4244Z" fill="#BC9654"/>
<path fill-rule="evenodd" clip-rule="evenodd" d="M49.6117 44.6528C51.0129 44.6528 52.1479 45.8008 52.1479 47.2836C52.1479 48.6348 51.0129 49.7823 49.6117 49.7823C48.2076 49.7823 47.0746 48.6343 47.0746 47.2836C47.0746 45.8003 48.2076 44.6528 49.6117 44.6528Z" fill="#BC9654"/>
<path fill-rule="evenodd" clip-rule="evenodd" d="M48.9752 32.3189C48.9752 31.9209 48.782 31.6451 48.3843 31.4781C47.4425 31.0801 45.6958 31.4682 44.9207 32.2464C44.5791 32.5888 44.4823 32.9525 44.6333 33.3277L48.6609 43.287C48.7254 43.3044 48.8719 43.2755 48.9002 43.2333L48.9752 32.3189Z" fill="#BC9654"/>
<path fill-rule="evenodd" clip-rule="evenodd" d="M43.3985 33.7154C43.252 33.3393 42.975 33.1544 42.549 33.1489C42.5425 33.1489 42.5365 33.1489 42.5291 33.1489C41.5281 33.1489 40.0962 34.1493 39.6821 35.1456C39.4935 35.5984 39.5461 35.977 39.8385 36.2722L47.296 43.9699C47.3363 43.9535 47.3988 43.9092 47.4341 43.8491L47.4301 43.8416L47.4435 43.7765L43.3985 33.7154Z" fill="#BC9654"/>
<path fill-rule="evenodd" clip-rule="evenodd" d="M38.1703 36.9248C38.0481 36.9248 37.9195 36.9516 37.782 37.0053C36.8595 37.3651 35.8908 38.8519 35.863 39.9502C35.8506 40.461 36.0378 40.8069 36.4191 40.9784L46.2117 45.1432C46.2543 45.1154 46.3115 45.0384 46.3249 44.9882L38.7854 37.2145C38.6037 37.0212 38.3996 36.9248 38.1703 36.9248Z" fill="#BC9654"/>
<path fill-rule="evenodd" clip-rule="evenodd" d="M34.1357 45.8733C34.311 46.3131 34.5999 46.5352 34.9942 46.5352L45.6427 46.6908C45.6675 46.6764 45.7197 46.5963 45.7231 46.488C45.7246 46.4438 45.7147 46.3901 45.6894 46.3777L35.7553 42.2183C35.6287 42.1616 35.5066 42.1333 35.3894 42.1333C35.1759 42.1333 34.9758 42.2277 34.7822 42.4156C34.0607 43.1222 33.7335 44.8675 34.1357 45.8733Z" fill="#BC9654"/>
<path fill-rule="evenodd" clip-rule="evenodd" d="M45.7524 48.1593C45.7618 48.0584 45.7246 47.9849 45.7087 47.9725L34.9167 47.8994C34.5244 47.8994 34.2519 48.0947 34.087 48.4952C33.6948 49.4469 34.0776 51.2165 34.8467 52.0002C35.1863 52.3461 35.5443 52.443 35.9142 52.2919L45.6968 48.2875C45.7261 48.2696 45.7469 48.2199 45.7524 48.1593Z" fill="#BC9654"/>
<path fill-rule="evenodd" clip-rule="evenodd" d="M46.3681 49.6114C46.3224 49.5393 46.2623 49.501 46.2415 49.4971L36.2548 53.652C35.9077 53.7961 35.7379 54.0699 35.7369 54.4904C35.7335 55.518 36.7498 56.9944 37.7508 57.4164C38.1971 57.6027 38.5725 57.551 38.8634 57.2578L46.4043 49.7078C46.4048 49.7003 46.3994 49.6621 46.3681 49.6114Z" fill="#BC9654"/>
<path fill-rule="evenodd" clip-rule="evenodd" d="M47.3705 50.6558L39.6787 58.3594C39.4041 58.6372 39.349 58.9662 39.5103 59.3617C39.8966 60.3094 41.3951 61.2799 42.4789 61.2844H42.4864C42.9442 61.2844 43.2495 61.107 43.395 60.7576L47.584 50.8764C47.584 50.8486 47.5646 50.7944 47.5155 50.7413C47.4569 50.6771 47.3953 50.6548 47.3745 50.6548C47.3735 50.6553 47.3715 50.6553 47.3705 50.6558Z" fill="#BC9654"/>
<path fill-rule="evenodd" clip-rule="evenodd" d="M48.9082 51.2993C48.8481 51.2993 48.8118 51.3187 48.8059 51.3257L44.6338 61.3495C44.4734 61.7252 44.5414 62.0571 44.8408 62.3653C45.5374 63.0818 47.2677 63.3904 48.2707 62.977C48.7389 62.7832 48.9762 62.4661 48.9762 62.0343L49.0526 51.3411C49.0472 51.3351 49.0045 51.3048 48.928 51.2993C48.9206 51.2993 48.9146 51.2993 48.9082 51.2993Z" fill="#BC9654"/>
<path fill-rule="evenodd" clip-rule="evenodd" d="M50.5476 51.2974C50.5412 51.2974 50.5342 51.2974 50.5273 51.2979C50.4503 51.3033 50.4066 51.3341 50.4002 51.3446L50.3242 62.2713C50.3242 62.6679 50.5134 62.9397 50.9017 63.1017C51.8301 63.4884 53.5565 63.0853 54.3216 62.3046C54.6493 61.9692 54.7411 61.6203 54.5927 61.267L50.6425 51.3177C50.6276 51.3093 50.5953 51.2974 50.5476 51.2974Z" fill="#BC9654"/>
<path fill-rule="evenodd" clip-rule="evenodd" d="M56.7296 61.3654H56.737C57.7514 61.3654 59.2062 60.3417 59.6227 59.3314C59.8099 58.8782 59.7573 58.4981 59.4663 58.2029L52.0783 50.5788C52.0709 50.5723 52.061 50.5693 52.05 50.5693C52.0252 50.5693 51.9919 50.5818 51.9701 50.5942C51.908 50.63 51.8614 50.6946 51.8703 50.7328L55.9039 60.8416C56.0449 61.192 56.3155 61.3634 56.7296 61.3654Z" fill="#BC9654"/>
<path fill-rule="evenodd" clip-rule="evenodd" d="M63.5174 54.5475C63.5169 54.0789 63.3307 53.7648 62.9667 53.6143L53.205 49.3833C53.1782 49.3952 53.1285 49.4315 53.0898 49.4921C53.056 49.5428 53.0501 49.5826 53.053 49.593L60.5944 57.3771C60.871 57.6569 61.2027 57.7106 61.6048 57.5421C62.5546 57.1436 63.5198 55.6314 63.5174 54.5475Z" fill="#BC9654"/>
<path fill-rule="evenodd" clip-rule="evenodd" d="M65.197 48.6397C65.0058 48.1676 64.693 47.9281 64.268 47.9281L53.694 47.8511C53.688 47.8555 53.6592 47.8973 53.6523 47.9718C53.6458 48.0479 53.6686 48.0951 53.6771 48.1025L63.5838 52.3241C63.9572 52.4866 64.2849 52.4165 64.5912 52.1124C65.3017 51.4052 65.6071 49.6535 65.197 48.6397Z" fill="#BC9654"/>
<path fill-rule="evenodd" clip-rule="evenodd" d="M63.3937 42.5366L53.6141 46.541C53.5962 46.6081 53.626 46.7527 53.6667 46.781L64.4622 46.853C64.8519 46.853 65.1196 46.6597 65.2784 46.2632C65.6598 45.31 65.2526 43.5588 64.4711 42.7945C64.1271 42.4576 63.7621 42.3701 63.3937 42.5366Z" fill="#BC9654"/>
<path fill-rule="evenodd" clip-rule="evenodd" d="M63.0779 41.1994C63.4478 41.0523 63.6301 40.7765 63.6385 40.3566C63.6579 39.3712 62.6693 37.9176 61.6798 37.4778C61.223 37.2751 60.8397 37.3153 60.5438 37.6001L52.9304 45.1437C52.9289 45.1501 52.9348 45.1899 52.9681 45.2406C53.0128 45.3116 53.0729 45.3494 53.0932 45.3534L63.0779 41.1994Z" fill="#BC9654"/>
<path fill-rule="evenodd" clip-rule="evenodd" d="M59.5964 36.6575C59.8735 36.3772 59.9276 36.0418 59.7588 35.6338C59.3631 34.6727 57.8735 33.6992 56.8031 33.6992H56.7951C56.3349 33.7012 56.0261 33.8881 55.8786 34.2543L51.7492 44.1777C51.7487 44.1802 51.7477 44.1817 51.7477 44.1817C51.7482 44.1857 51.7576 44.2115 51.7944 44.2419C51.842 44.2826 51.9006 44.2955 51.909 44.2925L59.5964 36.6575Z" fill="#BC9654"/>
<path fill-rule="evenodd" clip-rule="evenodd" d="M54.4586 32.1781C53.7496 31.4496 51.9989 31.132 50.9925 31.5505C50.5486 31.7338 50.3247 32.0305 50.3247 32.431L50.2477 43.1923C50.2855 43.2361 50.4444 43.2649 50.4985 43.2351L54.6701 33.1978C54.829 32.8211 54.7595 32.4882 54.4586 32.1781Z" fill="#BC9654"/>
<path fill-rule="evenodd" clip-rule="evenodd" d="M73.0532 24.9715C73.0532 25.5062 72.6247 25.9395 72.0954 25.9395C71.5662 25.9395 71.1382 25.5057 71.1382 24.9715C71.1382 24.4368 71.5667 24.0034 72.0954 24.0034C72.6242 24.0034 73.0532 24.4368 73.0532 24.9715Z" fill="#BC9654"/>
<path fill-rule="evenodd" clip-rule="evenodd" d="M82.3061 47.4998C82.3061 48.0345 81.8776 48.4678 81.3483 48.4678C80.819 48.4678 80.3906 48.034 80.3906 47.4998C80.3906 46.9651 80.819 46.5317 81.3483 46.5317C81.8776 46.5317 82.3061 46.9656 82.3061 47.4998Z" fill="#BC9654"/>
<path fill-rule="evenodd" clip-rule="evenodd" d="M73.0825 69.9793C73.0825 70.514 72.654 70.9473 72.1247 70.9473C71.596 70.9473 71.1675 70.5135 71.1675 69.9793C71.1675 69.4446 71.596 69.0112 72.1247 69.0112C72.6535 69.0112 73.0825 69.4451 73.0825 69.9793Z" fill="#BC9654"/>
<path fill-rule="evenodd" clip-rule="evenodd" d="M50.8073 78.9651C50.8073 79.4998 50.3788 79.9332 49.8495 79.9332C49.3208 79.9332 48.8923 79.4993 48.8923 78.9651C48.8923 78.4304 49.3208 77.9971 49.8495 77.9971C50.3788 77.9966 50.8073 78.4304 50.8073 78.9651Z" fill="#BC9654"/>
<path fill-rule="evenodd" clip-rule="evenodd" d="M28.5773 69.8885C28.5773 70.4232 28.1488 70.8565 27.6196 70.8565C27.0908 70.8565 26.6618 70.4227 26.6618 69.8885C26.6618 69.3537 27.0903 68.9204 27.6196 68.9204C28.1488 68.9199 28.5773 69.3537 28.5773 69.8885Z" fill="#BC9654"/>
<path fill-rule="evenodd" clip-rule="evenodd" d="M19.3835 47.4588C19.3835 47.9935 18.955 48.4268 18.4258 48.4268C17.897 48.4268 17.468 47.993 17.468 47.4588C17.468 46.9241 17.8965 46.4907 18.4258 46.4907C18.955 46.4907 19.3835 46.9241 19.3835 47.4588Z" fill="#BC9654"/>
<path fill-rule="evenodd" clip-rule="evenodd" d="M28.6066 24.9715C28.6066 25.5062 28.1781 25.9395 27.6489 25.9395C27.1196 25.9395 26.6911 25.5057 26.6911 24.9715C26.6911 24.4368 27.1196 24.0034 27.6489 24.0034C28.1781 24.0034 28.6066 24.4368 28.6066 24.9715Z" fill="#BC9654"/>
<path fill-rule="evenodd" clip-rule="evenodd" d="M51.3083 15.6834C51.3083 16.2181 50.8798 16.6514 50.3505 16.6514C49.8217 16.6514 49.3928 16.2176 49.3928 15.6834C49.3928 15.1487 49.8212 14.7153 50.3505 14.7153C50.8798 14.7153 51.3083 15.1487 51.3083 15.6834Z" fill="#BC9654"/>
</g>
</svg>
